<svg width="22" height="16" viewBox="0 0 22 16" fill="none" xmlns="http://www.w3.org/2000/svg">
<path d="M12.1379 0.793335H9.86206V6.86228H0V9.13817H9.86206V15.2071H12.1379V9.13817H22V6.86228H12.1379V0.793335Z" fill="#FF4B55"/>
<path d="M1.06546 15.1007L9.0827 9.89661H7.68931L0.396484 14.6306C0.574934 14.8388 0.804258 15.002 1.06546 15.1007Z" fill="#FF4B55"/>
<path d="M14.8836 9.89661H13.4902L21.2554 14.9371C21.4727 14.7944 21.654 14.6016 21.7833 14.3752L14.8836 9.89661Z" fill="#FF4B55"/>
<path d="M0.173828 1.70432L6.95129 6.10376H8.34468L0.664789 1.11853C0.458582 1.27201 0.289844 1.47268 0.173828 1.70432Z" fill="#FF4B55"/>
<path d="M14.2899 6.10324L21.5961 1.36056C21.4156 1.15298 21.1845 0.99073 20.9215 0.893921L12.8965 6.10324H14.2899Z" fill="#FF4B55"/>
</svg>
