<svg width="20" height="17" viewBox="0 0 23 20" fill="none" xmlns="http://www.w3.org/2000/svg">
<path d="M11.0948 2.94547L11.5 3.50571L11.9051 2.9455C12.2921 2.41049 12.7274 1.95692 13.2034 1.58876C14.1415 0.863334 15.1974 0.5 16.3543 0.5C17.9153 0.5 19.3441 1.12317 20.3871 2.25439C21.4195 3.37428 22 4.91743 22 6.61148C22 8.32862 21.3668 9.92266 19.9332 11.6524L19.9332 11.6525C18.6352 13.2187 16.7595 14.8192 14.5321 16.7173L14.5321 16.7173L14.513 16.7336C13.7608 17.3748 12.907 18.1025 12.021 18.8773L12.0207 18.8775C11.8771 19.0033 11.6921 19.0729 11.5 19.0729C11.3078 19.0729 11.123 19.0034 10.979 18.8772L10.9786 18.8769C10.0861 18.0966 9.22689 17.3643 8.47092 16.72L8.4684 16.7178L8.46838 16.7178C6.24068 14.8194 4.36499 13.2188 3.06699 11.6526C1.6333 9.92263 1 8.32858 1 6.61165C1 4.91744 1.58045 3.37428 2.6127 2.25439C3.65568 1.12318 5.08463 0.5 6.64571 0.5C7.80264 0.5 8.85852 0.863337 9.79645 1.58873L9.79647 1.58875C10.2726 1.95691 10.7081 2.41064 11.0948 2.94547Z" stroke="#fff"/>
</svg>
