<svg width="16" height="16" viewBox="0 0 16 16" fill="none" xmlns="http://www.w3.org/2000/svg">
<path d="M7.51005 8.47721C5.15158 8.37602 2.77253 8.89584 0.625615 10.0367C0.240633 10.2413 0 10.6417 0 11.0777V13.6887C0 14.376 0.557156 14.9332 1.24445 14.9332H10.8262C8.57637 14.9234 6.75556 13.0965 6.75556 10.8444C6.75556 9.96215 7.03496 9.14523 7.51005 8.47721Z" fill="#C10077"/>
<path fill-rule="evenodd" clip-rule="evenodd" d="M3.2002 3.73334C3.2002 1.67148 4.87167 0 6.93353 0C8.9954 0 10.6669 1.67148 10.6669 3.73334C10.6669 5.79521 8.9954 7.46667 6.93353 7.46667C4.87167 7.46667 3.2002 5.79521 3.2002 3.73334Z" fill="#C10077"/>
<path fill-rule="evenodd" clip-rule="evenodd" d="M10.8446 8.53322C9.5682 8.53322 8.53346 9.56796 8.53346 10.8443C8.53346 12.1207 9.5682 13.1554 10.8446 13.1554C12.121 13.1554 13.1557 12.1207 13.1557 10.8443C13.1557 9.56796 12.121 8.53322 10.8446 8.53322ZM7.4668 10.8443C7.4668 8.9788 8.97905 7.46655 10.8446 7.46655C12.7101 7.46655 14.2224 8.9788 14.2224 10.8443C14.2224 12.7099 12.7101 14.2221 10.8446 14.2221C8.97905 14.2221 7.4668 12.7099 7.4668 10.8443Z" fill="#C10077"/>
<path fill-rule="evenodd" clip-rule="evenodd" d="M12.6005 12.6008C12.8088 12.3925 13.1465 12.3925 13.3548 12.6008L15.8436 15.0897C16.0519 15.298 16.0519 15.6356 15.8436 15.8439C15.6354 16.0522 15.2977 16.0522 15.0894 15.8439L12.6005 13.355C12.3923 13.1467 12.3923 12.8091 12.6005 12.6008Z" fill="#C10077"/>
</svg>
