<svg width="18" height="22" viewBox="0 0 18 22" fill="none" xmlns="http://www.w3.org/2000/svg">
<path d="M11.8217 3.34799C12.6019 2.41403 12.9894 1.21386 12.9027 0C11.7058 0.114892 10.5996 0.688215 9.81573 1.60001C9.42679 2.03603 9.12859 2.54514 8.93852 3.09764C8.74846 3.65015 8.67034 4.23497 8.70872 4.81799C9.30567 4.82896 9.89712 4.70223 10.4372 4.44765C10.9772 4.19306 11.4513 3.81747 11.8227 3.35001" fill="black"/>
<path d="M12.9216 5.04704C11.1626 4.94204 9.66762 6.05205 8.82762 6.05205C7.98762 6.05205 6.70162 5.10004 5.31062 5.12604C4.40365 5.15062 3.51903 5.41296 2.74528 5.8868C1.97153 6.36063 1.33577 7.02934 0.90162 7.82604C-0.98838 11.106 0.401625 15.971 2.24062 18.642C3.13262 19.964 4.20863 21.419 5.62563 21.366C6.96463 21.313 7.48962 20.493 9.11662 20.493C10.7436 20.493 11.2166 21.366 12.6326 21.34C14.1026 21.314 15.0216 20.018 15.9136 18.695C16.5467 17.7571 17.0415 16.733 17.3826 15.654C16.5358 15.2799 15.8153 14.6689 15.3079 13.8946C14.8004 13.1203 14.5277 12.2158 14.5226 11.29C14.5325 10.4678 14.7493 9.66126 15.1528 8.94475C15.5563 8.22824 16.1336 7.62481 16.8316 7.19005C16.3889 6.5558 15.8055 6.03251 15.1271 5.6611C14.4486 5.28969 13.6935 5.08022 12.9206 5.04904" fill="black"/>
</svg>
