<svg width="7" height="6" viewBox="0 0 7 6" fill="none" xmlns="http://www.w3.org/2000/svg">
<path d="M3.50148 3.67425L0.882683 1.05557C0.810748 0.98346 0.714569 0.943793 0.612016 0.943793C0.509406 0.943793 0.413284 0.98346 0.341236 1.05557L0.111886 1.28503C0.0397236 1.35702 0 1.45326 0 1.55581C0 1.65836 0.0397236 1.75448 0.111886 1.82653L3.22979 4.94449C3.30206 5.01683 3.39864 5.05644 3.50131 5.05615C3.60443 5.05644 3.70089 5.01688 3.77323 4.94449L6.88811 1.82944C6.96028 1.75739 7 1.66126 7 1.55866C7 1.4561 6.96028 1.35998 6.88811 1.28787L6.65876 1.05847C6.50949 0.909192 6.26648 0.909192 6.11726 1.05847L3.50148 3.67425Z" fill="black"/>
</svg>
