<svg width="13" height="9" viewBox="0 0 13 9" fill="none" xmlns="http://www.w3.org/2000/svg">
<path d="M11.9872 0.000244141H0.970431C0.434461 0.000244141 0 0.43524 0 0.971872V7.52859C0 8.0652 0.434461 8.50022 0.970431 8.50022H11.9872C12.5232 8.50022 12.9576 8.06522 12.9576 7.52859V0.971872C12.9576 0.43524 12.5232 0.000244141 11.9872 0.000244141Z" fill="#41479B"/>
<path d="M12.9442 0.811028C12.8677 0.350896 12.4685 0 11.9872 0H11.7347L7.59586 2.71501V2.53252e-05H5.36178V2.71503L1.22293 2.53252e-05H0.970431C0.489151 2.53252e-05 0.0899189 0.350896 0.0134385 0.811054L3.55092 3.13161H0V5.36844H3.55092L0.0134385 7.68895C0.0899189 8.14908 0.489151 8.49997 0.970431 8.49997H1.22293L5.36178 5.78497V8.49997H7.59586V5.78497L11.7347 8.49997H11.9872C12.4685 8.49997 12.8677 8.1491 12.9442 7.68895L9.40671 5.36839H12.9576V3.13156H9.40671L12.9442 0.811028Z" fill="#F5F5F5"/>
<path d="M7.14905 0.000244141H5.80859V3.57916H0V4.92127H5.80859V8.50019H7.14905V4.92127H12.9576V3.57916H7.14905V0.000244141Z" fill="#FF4B55"/>
<path d="M0.627417 8.43782L5.34944 5.3689H4.52875L0.233398 8.16056C0.338502 8.28337 0.47357 8.37961 0.627417 8.43782Z" fill="#FF4B55"/>
<path d="M8.766 5.3689H7.94531L12.5189 8.3413C12.6468 8.25715 12.7536 8.14348 12.8298 8.00999L8.766 5.3689Z" fill="#FF4B55"/>
<path d="M0.102539 0.537586L4.09435 3.13198H4.91504L0.391707 0.192139C0.270254 0.28265 0.17087 0.400983 0.102539 0.537586Z" fill="#FF4B55"/>
<path d="M8.41639 3.13156L12.7196 0.334753C12.6133 0.21234 12.4772 0.116659 12.3223 0.0595703L7.5957 3.13156H8.41639Z" fill="#FF4B55"/>
</svg>
