<svg width="102" height="104" viewBox="0 0 102 104" fill="none" xmlns="http://www.w3.org/2000/svg">
<mask id="mask0_1464_10308" style="mask-type:alpha" maskUnits="userSpaceOnUse" x="0" y="0" width="102" height="104">
<path d="M101.5 52C101.5 80.4519 78.8813 103.5 51 103.5C23.1187 103.5 0.5 80.4519 0.5 52C0.5 23.5481 23.1187 0.5 51 0.5C78.8813 0.5 101.5 23.5481 101.5 52Z" fill="white" stroke="#DEDEDE"/>
</mask>
<g mask="url(#mask0_1464_10308)">
<path d="M51 20.9999C39.4206 20.9999 30 30.4205 30 41.9999C30 53.5793 39.4206 62.9999 51 62.9999C62.5794 62.9999 72 53.5793 72 41.9999C72 30.4205 62.5794 20.9999 51 20.9999Z" fill="#DEDEDE"/>
<path d="M82.3537 80.0764C75.4545 73.0712 66.3083 69.2133 56.6 69.2133H45.4C35.6918 69.2133 26.5455 73.0712 19.6463 80.0764C12.7809 87.0473 9 96.2488 9 105.987C9 107.533 10.2537 108.787 11.8 108.787H90.2C91.7463 108.787 93 107.533 93 105.987C93 96.2488 89.2191 87.0473 82.3537 80.0764Z" fill="#DEDEDE"/>
</g>
</svg>
