<svg width="10" height="17" viewBox="0 0 10 17" fill="none" xmlns="http://www.w3.org/2000/svg">
<path d="M2.94023 8.02896L9.56623 1.39996C9.63921 1.32684 9.68019 1.22776 9.68019 1.12446C9.68019 1.02116 9.63921 0.922074 9.56623 0.848957L8.83523 0.113957C8.76211 0.0409838 8.66303 0 8.55973 0C8.45643 0 8.35735 0.0409838 8.28423 0.113957L0.644234 7.75396C0.571261 7.82707 0.530273 7.92616 0.530273 8.02946C0.530273 8.13276 0.571261 8.23184 0.644234 8.30496L8.28323 15.944C8.31937 15.9802 8.36231 16.009 8.40958 16.0286C8.45686 16.0482 8.50754 16.0583 8.55873 16.0583C8.60992 16.0583 8.6606 16.0482 8.70788 16.0286C8.75516 16.009 8.79809 15.9802 8.83423 15.944L9.56923 15.209C9.6422 15.1358 9.68319 15.0368 9.68319 14.9335C9.68319 14.8302 9.6422 14.7311 9.56923 14.658L2.94023 8.02896Z" fill="black"/>
</svg>
