<svg width="12" height="12" viewBox="0 0 12 12" fill="none" xmlns="http://www.w3.org/2000/svg">
<path d="M0.508514 0.508487C0.727296 0.28977 1.02399 0.166903 1.33335 0.166903C1.6427 0.166903 1.9394 0.28977 2.15818 0.508487L6.00001 4.35032L9.84185 0.508487C10.0619 0.295969 10.3566 0.178375 10.6625 0.181033C10.9684 0.183692 11.261 0.30639 11.4773 0.522699C11.6936 0.739008 11.8163 1.03162 11.819 1.33752C11.8216 1.64342 11.704 1.93812 11.4915 2.15815L7.64968 5.99999L11.4915 9.84182C11.6029 9.94944 11.6918 10.0782 11.753 10.2205C11.8141 10.3629 11.8463 10.5159 11.8476 10.6709C11.849 10.8258 11.8195 10.9794 11.7608 11.1228C11.7021 11.2661 11.6155 11.3964 11.506 11.5059C11.3964 11.6155 11.2662 11.7021 11.1228 11.7608C10.9794 11.8194 10.8258 11.849 10.6709 11.8476C10.516 11.8463 10.3629 11.8141 10.2205 11.7529C10.0782 11.6918 9.94947 11.6029 9.84185 11.4915L6.00001 7.64965L2.15818 11.4915C2.05056 11.6029 1.92182 11.6918 1.77948 11.7529C1.63715 11.8141 1.48406 11.8463 1.32915 11.8476C1.17424 11.849 1.02061 11.8194 0.877234 11.7608C0.733854 11.7021 0.603594 11.6155 0.494052 11.5059C0.384511 11.3964 0.297882 11.2661 0.239221 11.1228C0.18056 10.9794 0.151042 10.8258 0.152388 10.6709C0.153734 10.5159 0.185918 10.3629 0.247062 10.2205C0.308206 10.0782 0.397085 9.94944 0.508514 9.84182L4.35035 5.99999L0.508514 2.15815C0.289797 1.93937 0.166929 1.64268 0.166929 1.33332C0.166929 1.02396 0.289797 0.727268 0.508514 0.508487Z" fill="black"/>
</svg>
