<svg width="33" height="35" viewBox="0 0 33 35" fill="none" xmlns="http://www.w3.org/2000/svg">
<mask id="mask0_4469_5823" style="mask-type:alpha" maskUnits="userSpaceOnUse" x="0" y="0" width="33" height="35">
<path d="M32.5 17.3724C32.5 26.3968 25.3274 33.6959 16.5 33.6959C7.67255 33.6959 0.5 26.3968 0.5 17.3724C0.5 8.34792 7.67255 1.04883 16.5 1.04883C25.3274 1.04883 32.5 8.34792 32.5 17.3724Z" fill="white" stroke="#DEDEDE"/>
</mask>
<g mask="url(#mask0_4469_5823)">
<path d="M16.5002 7.34277C12.7539 7.34277 9.70605 10.3906 9.70605 14.1369C9.70605 17.8832 12.7539 20.931 16.5002 20.931C20.2464 20.931 23.2943 17.8832 23.2943 14.1369C23.2943 10.3906 20.2464 7.34277 16.5002 7.34277Z" fill="#BBBBBB"/>
<path d="M26.6442 26.4557C24.4121 24.1893 21.453 22.9412 18.3121 22.9412H14.6886C11.5477 22.9412 8.58861 24.1893 6.35652 26.4557C4.13535 28.711 2.91211 31.6879 2.91211 34.8384C2.91211 35.3387 3.3177 35.7443 3.81799 35.7443H29.1827C29.683 35.7443 30.0886 35.3387 30.0886 34.8384C30.0886 31.6879 28.8653 28.711 26.6442 26.4557Z" fill="#BBBBBB"/>
</g>
</svg>
