<svg width="10" height="14" viewBox="0 0 10 14" fill="none" xmlns="http://www.w3.org/2000/svg">
<path d="M2.40996 6.99519L9.03596 1.2197C9.10893 1.156 9.14992 1.06968 9.14992 0.979677C9.14992 0.889676 9.10893 0.803352 9.03596 0.739649L8.30495 0.0992844C8.23184 0.0357069 8.13276 0 8.02946 0C7.92616 0 7.82708 0.0357069 7.75396 0.0992844L0.11396 6.75559C0.0409871 6.8193 0 6.90562 0 6.99562C0 7.08562 0.0409871 7.17195 0.11396 7.23565L7.75296 13.8911C7.7891 13.9227 7.83203 13.9477 7.87931 13.9648C7.92659 13.9819 7.97727 13.9907 8.02846 13.9907C8.07965 13.9907 8.13033 13.9819 8.1776 13.9648C8.22488 13.9477 8.26782 13.9227 8.30396 13.8911L9.03896 13.2507C9.11193 13.187 9.15292 13.1007 9.15292 13.0107C9.15292 12.9207 9.11193 12.8344 9.03896 12.7707L2.40996 6.99519Z" fill="black"/>
</svg>
