<svg width="240" height="54" viewBox="0 0 240 54" fill="none" xmlns="http://www.w3.org/2000/svg">
<path d="M13.9337 42.8131C7.74474 37.718 0 27.1097 0 13.4385C0 6.72936 4.05468 3.03931 9.98113 3.03931C15.1297 3.03931 18.8732 5.12013 21.0075 10.0062C18.8865 14.1937 17.798 18.8279 17.8328 23.5218C17.8328 28.3057 18.9267 31.2714 21.3673 31.2714C23.5551 31.2714 24.9066 28.3057 24.9066 23.5218C24.8809 18.7442 23.5349 14.0667 21.0173 10.0062C22.9814 5.12013 26.8805 3.03931 30.6775 3.03931C38.1111 3.03931 42.0102 6.72936 42.0102 13.4385C42.0102 27.1097 33.507 37.8882 28.4946 42.8131C26.477 44.7092 24.0024 47.6749 21.5569 47.7235C19.656 47.7721 15.3728 44.1939 13.9337 42.8131Z" fill="white"/>
<path d="M44.6162 13.1226C47.3425 11.6559 50.3836 10.8719 53.4791 10.8376C59.8723 10.8376 62.6289 14.7901 62.6289 20.2985C62.6289 20.9743 62.522 28.1502 62.6824 31.1158C62.7845 33.1432 63.5138 35.0052 66.4259 34.8059C64.1361 41.8797 58.7784 43.5959 55.0884 43.5959C49.7842 43.5959 45.6761 39.7989 45.8851 33.6099C46.1477 26.1228 46.1477 29.7643 45.8851 21.3924C45.7587 17.7023 45.8073 15.6215 44.6162 13.1226ZM77.3016 43.5959C72.6246 43.5959 67.9428 41.4616 66.387 34.8059C67.6851 30.9165 67.8456 27.6835 67.7386 20.8722C67.6851 17.3863 67.6316 15.5243 66.8538 13.1226C69.3258 11.6135 72.169 10.8223 75.0652 10.8376C81.5167 10.8376 85.0512 14.5276 84.8422 19.7783C84.4775 28.6169 84.531 27.3723 84.4775 33.9745C84.4775 36.8916 84.4775 38.6564 85.6249 40.7323C83.5587 42.7354 80.3353 43.5959 77.3016 43.5959Z" fill="white"/>
<path d="M88.0605 13.1226C90.7798 11.6604 93.812 10.8765 96.8992 10.8376C103.292 10.8376 106.049 14.7901 106.049 20.2985C106.049 20.9743 105.947 28.1502 106.102 31.1158C106.205 33.1432 106.934 35.0052 109.846 34.8059C107.556 41.8797 102.203 43.5959 98.5084 43.5959C93.2043 43.5959 89.101 39.7989 89.3051 33.6099C89.5677 26.1228 89.5677 29.7643 89.3051 21.3924C89.2031 17.7023 89.2565 15.6215 88.0605 13.1226ZM120.765 43.5959C116.084 43.5959 111.407 41.4616 109.846 34.8059C111.144 30.9165 111.304 27.6835 111.198 20.8722C111.144 17.3863 111.091 15.5243 110.313 13.1226C112.786 11.6133 115.631 10.8221 118.529 10.8376C124.976 10.8376 128.51 14.5276 128.301 19.7783C127.936 28.6169 127.99 27.3723 127.936 33.9745C127.936 36.8916 127.936 38.6564 129.084 40.7323C127.003 42.7354 123.78 43.5959 120.765 43.5959Z" fill="white"/>
<path d="M143.149 43.8536C147.568 43.8536 150.684 41.3596 150.684 37.407C150.618 36.2195 150.319 35.0565 149.804 33.9843C152.61 28.369 154.18 23.6386 152.663 19.3213C148.866 18.5435 146.941 21.3487 146.941 25.0922C146.941 27.4356 147.772 29.565 149.804 33.9843C146.318 40.64 141.432 41.4714 138.778 41.4714C132.749 41.4714 131.135 37.1542 130.357 30.4498C130.357 16.098 141.69 10.8474 154.744 10.8474C159.888 10.8474 167.219 11.7322 168.313 12.617C167.827 16.5064 167.063 19.0637 166.961 24.2609C166.806 28.8358 167.326 34.1934 167.326 38.0925C167.326 44.9572 162.542 54.0001 146.318 54.0001C137.738 54.0001 130.926 51.8172 130.926 46.513C130.926 44.9572 131.189 41.9916 134.621 40.5379C137.378 42.8132 140.757 43.8536 143.149 43.8536Z" fill="white"/>
<path d="M191.66 41.3061C188.831 42.776 185.697 43.5604 182.51 43.5959C176.117 43.5959 173.151 39.6433 173.205 34.1301C173.253 24.7178 173.409 19.2095 173.307 12.0336C173.205 8.1442 173.098 6.15575 171.955 3.088C174.872 1.47876 178.868 0.438354 181.625 0.438354C186.307 0.438354 190.206 2.77685 190.206 6.88501C190.206 12.5538 190.05 26.5896 190.308 33.0411C190.517 36.4152 190.726 38.705 191.66 41.3061Z" fill="white"/>
<path d="M229.824 33.9211C229.824 41.6172 220.154 43.5959 213.24 43.5959C201.086 43.5959 195.043 36.3665 195.043 27.8391C195.043 18.1156 203.463 10.823 215.525 10.823C223.586 10.823 230.135 14.0998 230.135 21.8445C230.092 24.2483 229.293 26.5773 227.85 28.5002C223.586 29.4386 216.668 29.6962 212.356 27.1487C213.498 30.7901 216.357 33.0265 220.134 33.0265C223.051 33.0265 225.482 31.4659 227.83 28.5002C229.201 29.6087 229.824 31.8451 229.824 33.9211ZM211.835 23.4732C211.836 24.7263 212.011 25.9731 212.356 27.1779C213.554 26.4908 214.551 25.4999 215.245 24.3049C215.939 23.11 216.306 21.7532 216.308 20.3714C216.308 19.0199 215.944 17.9795 214.796 17.9795C212.667 17.9406 211.835 21.1299 211.835 23.4732Z" fill="white"/>
<path d="M236.169 0.837013C236.592 0.841176 237.01 0.929261 237.399 1.09617C237.788 1.26308 238.14 1.50549 238.434 1.80936C238.701 2.12729 238.899 2.49701 239.017 2.89527C239.134 3.29353 239.167 3.71172 239.115 4.12354C239.039 4.84127 238.747 5.51918 238.279 6.06824C238.021 6.40102 237.728 6.7043 237.404 6.97252L233.028 10.6334C232.926 10.7107 232.799 10.7484 232.671 10.7395C232.543 10.7305 232.423 10.6756 232.333 10.5848L228.526 6.35508C228.258 6.05768 228.023 5.73159 227.826 5.38273C227.416 4.75162 227.207 4.01062 227.228 3.25816C227.235 2.84194 227.327 2.43156 227.499 2.05263C227.672 1.67371 227.92 1.33436 228.23 1.05579C228.567 0.797622 228.954 0.609937 229.365 0.503873C229.777 0.39781 230.206 0.375529 230.626 0.438352C231.202 0.49709 231.749 0.716059 232.206 1.07038C232.605 1.35357 232.972 1.67963 233.3 2.04272C233.673 1.72641 234.081 1.45398 234.516 1.23081C235.02 0.948961 235.592 0.812626 236.169 0.837013Z" fill="#EB008B"/>
</svg>
