<svg width="10" height="10" viewBox="0 0 10 10" fill="none" xmlns="http://www.w3.org/2000/svg">
<path d="M6.61276 5.67478C6.61276 6.5641 5.88931 7.28754 5 7.28754C4.11069 7.28754 3.38752 6.5641 3.38752 5.67478C3.38752 4.78547 4.11069 4.06202 5 4.06202C5.88931 4.06202 6.61276 4.78575 6.61276 5.67478ZM10 3.38474V7.96538C10 8.57604 9.50489 9.07115 8.89423 9.07115H1.10577C0.495107 9.07115 0 8.57604 0 7.96538V3.38474C0 2.77408 0.495107 2.27897 1.10577 2.27897H2.46586V1.89638C2.46586 1.36202 2.89877 0.928833 3.43341 0.928833H6.56659C7.10123 0.928833 7.53414 1.36202 7.53414 1.89638V2.2787H8.89423C9.50489 2.27897 10 2.77408 10 3.38474ZM7.44209 5.67478C7.44209 4.32824 6.34655 3.2327 5 3.2327C3.65373 3.2327 2.55819 4.32824 2.55819 5.67478C2.55819 7.02133 3.65373 8.11687 5 8.11687C6.34655 8.11687 7.44209 7.02133 7.44209 5.67478Z" fill="white"/>
</svg>
