<svg width="37" height="22" viewBox="0 0 37 22" fill="none" xmlns="http://www.w3.org/2000/svg">
<path d="M32.8597 1.50056H4.14029C3.69952 1.48482 3.25806 1.50323 2.82081 1.55556C2.38571 1.61934 1.9821 1.79951 1.66264 2.07257C1.35264 2.34542 1.14531 2.69855 1.06965 3.08256C1.00939 3.46368 0.988167 3.84896 1.00623 4.23356V18.3036C0.988179 18.6878 1.00941 19.0728 1.06965 19.4536C1.14566 19.8375 1.35294 20.1905 1.66264 20.4636C1.98234 20.7363 2.38584 20.9164 2.82081 20.9806C3.25809 21.0327 3.69952 21.0511 4.14029 21.0356H32.8597C33.3005 21.051 33.7419 21.0326 34.1792 20.9806C34.6143 20.9168 35.0179 20.7367 35.3374 20.4636C35.6474 20.1908 35.8548 19.8376 35.9304 19.4536C35.9906 19.0728 36.0118 18.6878 35.9938 18.3036V4.23356C36.0118 3.84929 35.9906 3.46434 35.9304 3.08356C35.8536 2.6999 35.6464 2.34706 35.3374 2.07357C35.0179 1.80046 34.6143 1.62028 34.1792 1.55656C33.742 1.50397 33.3005 1.48523 32.8597 1.50056Z" stroke="black"/>
<path d="M23.006 11.9159H19.871V15.0399C19.871 15.2829 19.7745 15.5158 19.6027 15.6876C19.4309 15.8594 19.1979 15.9559 18.955 15.9559C18.7121 15.9559 18.4791 15.8594 18.3073 15.6876C18.1355 15.5158 18.039 15.2829 18.039 15.0399V11.9159H14.916C14.6723 11.9123 14.4398 11.8131 14.2685 11.6397C14.0972 11.4663 14.0008 11.2326 14 10.9889C14.0024 10.7461 14.0971 10.5133 14.265 10.3379C14.4405 10.1702 14.6732 10.0755 14.916 10.0729H18.039V6.96092C18.039 6.71798 18.1355 6.485 18.3073 6.31321C18.4791 6.14143 18.7121 6.04492 18.955 6.04492C19.1979 6.04492 19.4309 6.14143 19.6027 6.31321C19.7745 6.485 19.871 6.71798 19.871 6.96092V10.0729H23.006C23.1264 10.0727 23.2456 10.0962 23.3568 10.1421C23.4681 10.1881 23.5692 10.2555 23.6543 10.3406C23.7394 10.4257 23.8069 10.5268 23.8528 10.6381C23.8988 10.7493 23.9223 10.8686 23.922 10.9889C23.9212 11.2326 23.8248 11.4663 23.6535 11.6397C23.4822 11.8131 23.2497 11.9123 23.006 11.9159Z" fill="black"/>
</svg>
