<svg width="16" height="13" viewBox="0 0 16 13" fill="none" xmlns="http://www.w3.org/2000/svg">
<path d="M5.89922 11.4219C5.89922 12.1279 6.47358 12.7023 7.17967 12.7023C7.88575 12.7023 8.46012 12.1279 8.46012 11.4219C8.46012 10.7158 7.88575 10.1414 7.17967 10.1414C6.47358 10.1414 5.89922 10.7158 5.89922 11.4219ZM7.17967 11.0617C7.37821 11.0617 7.53982 11.2233 7.53982 11.4219C7.53982 11.6204 7.37821 11.782 7.17967 11.782C6.98113 11.782 6.81952 11.6204 6.81952 11.4219C6.81952 11.2233 6.98113 11.0617 7.17967 11.0617Z" fill="#585858" stroke="#585858" stroke-width="0.1"/>
<path d="M10.0281 11.4219C10.0281 12.1279 10.6025 12.7023 11.3086 12.7023C12.0147 12.7023 12.589 12.1279 12.589 11.4219C12.589 10.7158 12.0147 10.1414 11.3086 10.1414C10.6025 10.1414 10.0281 10.7158 10.0281 11.4219ZM11.3086 11.0617C11.5071 11.0617 11.6687 11.2233 11.6687 11.4219C11.6687 11.6204 11.5071 11.782 11.3086 11.782C11.11 11.782 10.9484 11.6204 10.9484 11.4219C10.9484 11.2233 11.11 11.0617 11.3086 11.0617Z" fill="#585858" stroke="#585858" stroke-width="0.1"/>
<path d="M4.90067 8.38828L4.9454 8.41064L4.90067 8.38828C4.47456 9.2406 5.09515 10.2414 6.04596 10.2414H12.949C13.2032 10.2414 13.4092 10.0354 13.4092 9.78123C13.4092 9.5271 13.2032 9.32107 12.949 9.32107H6.04596C5.77812 9.32107 5.60415 9.03926 5.72382 8.79986L5.82337 8.60078H12.949C13.1545 8.60078 13.335 8.4646 13.3915 8.26704L15.0321 2.52495C15.1159 2.23152 14.8955 1.93838 14.5896 1.93838H4.24555L3.87221 0.631545C3.87221 0.631542 3.8722 0.63154 3.8722 0.631538C3.81579 0.433977 3.63519 0.297778 3.42975 0.297778H1.41015C1.15602 0.297778 0.95 0.503802 0.95 0.757928C0.95 1.01205 1.15602 1.21808 1.41015 1.21808H3.08265L5.04737 8.09492L4.90067 8.38828ZM13.9796 2.85868L12.602 7.68048H5.8861L4.50848 2.85868H13.9796Z" fill="#585858" stroke="#585858" stroke-width="0.1"/>
</svg>
