<svg width="23" height="23" viewBox="0 0 23 23" fill="none" xmlns="http://www.w3.org/2000/svg">
<path d="M11.5 23L5.75 11.5L11.5 0C17.8513 0 23 5.14872 23 11.5C23 17.8513 17.8513 23 11.5 23Z" fill="#FFB24A"/>
<path d="M0 11.5C0 5.14872 5.14872 0 11.5 0V23C5.14872 23 0 17.8513 0 11.5Z" fill="#FFD23B"/>
<path d="M18.2832 9.47852H16.9355V8.13086C16.9355 7.75931 16.6333 7.45703 16.2617 7.45703C15.8902 7.45703 15.5879 7.75931 15.5879 8.13086V9.47852H14.2402V8.13086C14.2402 7.01621 15.1471 6.10938 16.2617 6.10938C17.3764 6.10938 18.2832 7.01621 18.2832 8.13086V9.47852Z" fill="#16202D"/>
<path d="M8.75977 9.47852H7.41211V8.13086C7.41211 7.75931 7.10983 7.45703 6.73828 7.45703C6.36673 7.45703 6.06445 7.75931 6.06445 8.13086V9.47852H4.7168V8.13086C4.7168 7.01621 5.62363 6.10938 6.73828 6.10938C7.85293 6.10938 8.75977 7.01621 8.75977 8.13086V9.47852Z" fill="#2D3E53"/>
<path d="M11.5 11.5L7.90625 15.9023H16.6602C17.672 14.7175 18.2832 13.1802 18.2832 11.5H11.5Z" fill="#962B7C"/>
<path d="M4.7168 11.5C4.7168 13.1802 5.328 14.7175 6.33982 15.9023H11.5V11.5H4.7168Z" fill="#CB2E81"/>
<path d="M11.5 13.5215L8.80469 15.9023L11.5 18.2832C13.566 18.2832 15.416 17.3593 16.6602 15.9023C15.416 14.4454 13.566 13.5215 11.5 13.5215Z" fill="#FF3187"/>
<path d="M6.33984 15.9023C7.584 17.3593 9.43397 18.2832 11.5 18.2832V13.5215C9.43397 13.5215 7.584 14.4454 6.33984 15.9023Z" fill="#FF5178"/>
</svg>
