<svg width="15" height="17" viewBox="0 0 15 17" fill="none" xmlns="http://www.w3.org/2000/svg">
<path d="M12.7425 2.77637H4.85156C4.37957 2.77775 3.92731 2.96586 3.59355 3.29961C3.2598 3.63336 3.07169 4.08562 3.07031 4.55762V15.0314C3.0717 15.5034 3.25981 15.9556 3.59356 16.2894C3.92731 16.6231 4.37957 16.8112 4.85156 16.8126H12.7425C13.2148 16.8122 13.6676 16.6244 14.0016 16.2905C14.3356 15.9565 14.5234 15.5037 14.5238 15.0314V4.55762C14.5234 4.08531 14.3356 3.63246 14.0016 3.29849C13.6677 2.96453 13.2148 2.77674 12.7425 2.77637Z" fill="#585858"/>
<path d="M10.6608 0.78125C10.6609 0.703272 10.6455 0.626054 10.6157 0.554008C10.5859 0.481962 10.5421 0.416499 10.487 0.36136C10.4318 0.306221 10.3664 0.262487 10.2943 0.232655C10.2223 0.202824 10.1451 0.18748 10.0671 0.1875H2.33327C1.84049 0.188061 1.36806 0.384063 1.01962 0.732508C0.671173 1.08095 0.47517 1.55338 0.474609 2.04616V12.3634C0.474609 12.5209 0.537165 12.6719 0.648515 12.7833C0.759865 12.8946 0.910887 12.9572 1.06836 12.9572C1.22583 12.9572 1.37685 12.8946 1.4882 12.7833C1.59955 12.6719 1.66211 12.5209 1.66211 12.3634V2.04616C1.66231 1.86822 1.73309 1.69762 1.85891 1.5718C1.98473 1.44598 2.15533 1.3752 2.33327 1.375H10.0671C10.1451 1.37502 10.2223 1.35968 10.2943 1.32984C10.3664 1.30001 10.4318 1.25628 10.487 1.20114C10.5421 1.146 10.5859 1.08054 10.6157 1.00849C10.6455 0.936446 10.6609 0.859228 10.6608 0.78125Z" fill="#585858"/>
</svg>
