<svg width="21" height="19" viewBox="0 0 21 19" fill="none" xmlns="http://www.w3.org/2000/svg">
<path d="M19.8937 0.0322266H3.57831C3.46921 0.0322266 3.37131 0.099123 3.33161 0.200719L2.47266 2.39961V16.5536C2.47266 16.946 2.79073 17.264 3.18305 17.264H20.289C20.6813 17.264 20.9994 16.9459 20.9994 16.5536V2.39961L20.1404 0.200719C20.1007 0.099123 20.0028 0.0322266 19.8937 0.0322266Z" fill="#927266"/>
<path d="M20.289 17.264H3.18305C2.79069 17.264 2.47266 16.9459 2.47266 16.5536V2.39966H20.9994V16.5537C20.9994 16.946 20.6813 17.264 20.289 17.264Z" fill="#82635A"/>
<path d="M19.1336 2.39966V15.191C19.1336 15.8283 18.6169 16.3449 17.9796 16.3449H3.18305C2.79069 16.3449 2.47266 16.0269 2.47266 15.6345V16.5537C2.47266 16.946 2.79073 17.264 3.18305 17.264H20.289C20.6813 17.264 20.9994 16.946 20.9994 16.5537V2.39966H19.1336Z" fill="#72544E"/>
<path d="M12.9547 9.12964C13.0694 9.50276 12.8597 9.89467 12.4905 10.009L9.43017 10.9562L9.61064 11.0297L11.6528 11.8624L15.0331 13.2408C15.4432 13.408 15.6401 13.8761 15.4729 14.2862C15.3057 14.6963 14.8376 14.8932 14.4275 14.726L15.2114 15.0456C15.6215 15.2128 15.8184 15.6809 15.6512 16.091C15.484 16.5011 15.0159 16.6981 14.6058 16.5308L13.8219 16.2112C14.2272 16.3765 14.4243 16.8356 14.2674 17.2422C14.1056 17.6617 13.6159 17.8594 13.1996 17.6896L12.5459 17.423C12.956 17.5903 13.1529 18.0583 12.9857 18.4684C12.8185 18.8786 12.3504 19.0755 11.9403 18.9083L6.01968 16.4941C5.43792 16.2569 4.92633 15.8752 4.53328 15.3851C4.14022 14.8949 3.62863 14.5132 3.04687 14.276L0.591797 13.2749L2.30777 9.06656L4.43307 9.93314C5.14449 10.2232 12.1218 8.65185 12.1218 8.65185C12.4805 8.57659 12.8471 8.77933 12.9547 9.12964Z" fill="#FED9A8"/>
<path d="M12.9547 9.12964C13.0694 9.50276 12.8597 9.89467 12.4905 10.009L9.43017 10.9562L9.61064 11.0297L11.6528 11.8624L15.0331 13.2408C15.4432 13.408 15.6401 13.8761 15.4729 14.2862C15.3057 14.6963 14.8376 14.8932 14.4275 14.726L15.2114 15.0456C15.6215 15.2128 15.8184 15.6809 15.6512 16.091C15.484 16.5011 15.0159 16.6981 14.6058 16.5308L13.8219 16.2112C14.2272 16.3765 14.4243 16.8356 14.2674 17.2422C14.1056 17.6617 13.6159 17.8594 13.1996 17.6896L12.5459 17.423C12.956 17.5903 13.1529 18.0583 12.9857 18.4684C12.8185 18.8786 12.3504 19.0755 11.9403 18.9083L6.01968 16.4941C5.43792 16.2569 4.92633 15.8752 4.53328 15.3851C4.14022 14.8949 3.62863 14.5132 3.04687 14.276L0.591797 13.2749L2.30777 9.06656L4.43307 9.93314C5.14449 10.2232 12.1218 8.65185 12.1218 8.65185C12.4805 8.57659 12.8471 8.77933 12.9547 9.12964Z" fill="#FED9A8"/>
<path d="M12.9547 9.12964C13.0694 9.50276 12.8597 9.89467 12.4905 10.009L9.43017 10.9562L9.61064 11.0297L11.6528 11.8624L15.0331 13.2408C15.4432 13.408 15.6401 13.8761 15.4729 14.2862C15.3057 14.6963 14.8376 14.8932 14.4275 14.726L15.2114 15.0456C15.6215 15.2128 15.8184 15.6809 15.6512 16.091C15.484 16.5011 15.0159 16.6981 14.6058 16.5308L13.8219 16.2112C14.2272 16.3765 14.4243 16.8356 14.2674 17.2422C14.1056 17.6617 13.6159 17.8594 13.1996 17.6896L12.5459 17.423C12.956 17.5903 13.1529 18.0583 12.9857 18.4684C12.8185 18.8786 12.3504 19.0755 11.9403 18.9083L6.01968 16.4941C5.43792 16.2569 4.92633 15.8752 4.53328 15.3851C4.14022 14.8949 3.62863 14.5132 3.04687 14.276L0.591797 13.2749L2.30777 9.06656L4.43307 9.93314C5.14449 10.2232 12.1218 8.65185 12.1218 8.65185C12.4805 8.57659 12.8471 8.77933 12.9547 9.12964Z" fill="#FED9A8"/>
<path d="M12.9871 18.4666C12.9881 18.4641 12.9891 18.4616 12.9901 18.459C12.9905 18.458 12.9909 18.457 12.9913 18.456C12.9921 18.4539 12.993 18.4518 12.9937 18.4497C12.9942 18.4485 12.9946 18.4473 12.9951 18.446C12.9958 18.4441 12.9965 18.4423 12.9972 18.4404C12.9977 18.439 12.9982 18.4375 12.9987 18.4361C12.9993 18.4345 12.9999 18.4328 13.0005 18.4311C13.001 18.4297 13.0015 18.4282 13.002 18.4268C13.0026 18.4251 13.0032 18.4234 13.0037 18.4216C13.0042 18.4202 13.0047 18.4186 13.0053 18.4172C13.0058 18.4156 13.0063 18.414 13.0068 18.4124C13.0073 18.4108 13.0078 18.4093 13.0083 18.4077C13.0088 18.4061 13.0094 18.4045 13.0099 18.4029C13.0103 18.4014 13.0108 18.3999 13.0113 18.3984C13.0117 18.3967 13.0123 18.395 13.0128 18.3934C13.0132 18.3919 13.0137 18.3904 13.0141 18.3889C13.0145 18.3873 13.015 18.3858 13.0154 18.3842C13.0159 18.3825 13.0164 18.3809 13.0169 18.3792C13.0173 18.3778 13.0177 18.3763 13.0181 18.3749C13.0185 18.3732 13.019 18.3715 13.0194 18.3698C13.0198 18.3683 13.0202 18.3669 13.0206 18.3654C13.021 18.3637 13.0214 18.362 13.0219 18.3603C13.0222 18.3589 13.0226 18.3574 13.0229 18.356C13.0234 18.3542 13.0238 18.3526 13.0242 18.3509C13.0245 18.3496 13.0248 18.3483 13.0251 18.347C13.0255 18.3451 13.026 18.3432 13.0264 18.3413C13.0266 18.3406 13.0267 18.3399 13.0269 18.3392C13.0286 18.3315 13.0302 18.3237 13.0317 18.316C13.0318 18.3152 13.032 18.3143 13.0322 18.3135C13.0326 18.3113 13.033 18.309 13.0334 18.3068C13.0336 18.3059 13.0337 18.305 13.0339 18.3042C13.0343 18.3018 13.0347 18.2995 13.0351 18.2971C13.0352 18.2964 13.0353 18.2957 13.0355 18.2949C13.0358 18.2926 13.0362 18.2902 13.0366 18.2878C13.0367 18.2871 13.0368 18.2863 13.0369 18.2855C13.0373 18.2831 13.0377 18.2807 13.038 18.2783C13.0381 18.2776 13.0382 18.277 13.0383 18.2763C13.0387 18.2737 13.039 18.2711 13.0393 18.2686C13.0393 18.2681 13.0394 18.2677 13.0395 18.2673C13.0398 18.2646 13.0402 18.2619 13.0405 18.2592C13.0405 18.2588 13.0405 18.2585 13.0406 18.2581C13.0409 18.2553 13.0412 18.2526 13.0415 18.2498C13.0416 18.2496 13.0416 18.2493 13.0416 18.2491C13.0419 18.2462 13.0422 18.2433 13.0425 18.2404C13.0425 18.2403 13.0425 18.2402 13.0425 18.2401C13.072 17.9251 12.9115 17.6145 12.625 17.4601C12.6205 17.4577 12.616 17.4556 12.6115 17.4533C12.5914 17.443 12.571 17.4332 12.5497 17.4244C12.5425 17.4214 12.5353 17.4183 12.5283 17.4155L9.52739 16.1919C9.36874 16.581 9.55446 17.0252 9.94292 17.1855L12.3231 18.1679C12.5743 18.2703 12.7465 18.4949 12.803 18.7407C12.88 18.6659 12.9432 18.5742 12.9864 18.4684C12.9866 18.4678 12.9868 18.4672 12.9871 18.4666Z" fill="#F4C892"/>
<path d="M15.3772 14.4596C15.4159 14.4072 15.4487 14.3492 15.4744 14.2861C15.6416 13.8759 15.4447 13.4079 15.0346 13.2407L11.6543 11.8623L9.61211 11.0296L9.43164 10.9561C9.88732 11.7454 10.5928 12.3607 11.4368 12.7049L15.0346 14.1719C15.1605 14.2232 15.2895 14.3492 15.3772 14.4596Z" fill="#F4C892"/>
<path d="M15.6637 15.513C15.6615 15.507 15.6592 15.501 15.6569 15.495C15.6557 15.492 15.6545 15.4891 15.6533 15.4861C15.6509 15.4801 15.6484 15.4742 15.6459 15.4684C15.6382 15.4507 15.6299 15.4333 15.621 15.4163C15.6165 15.4077 15.6119 15.3993 15.6071 15.3909C15.604 15.3853 15.6007 15.3798 15.5974 15.3743C15.5941 15.3688 15.5907 15.3633 15.5873 15.3579C15.5838 15.3524 15.5803 15.347 15.5768 15.3417C15.5428 15.2909 15.5028 15.2437 15.4574 15.2014C15.4551 15.1992 15.4526 15.197 15.4502 15.1947C15.4357 15.1815 15.4206 15.1688 15.4051 15.1566C15.4025 15.1546 15.3999 15.1526 15.3972 15.1506C15.392 15.1465 15.3866 15.1426 15.3813 15.1388C15.3786 15.1368 15.3759 15.1349 15.3732 15.133C15.3244 15.0986 15.2709 15.0691 15.2133 15.0456L14.4294 14.7259H14.4294L10.7397 13.2214C10.5765 13.6219 10.7691 14.0788 11.1699 14.2415L15.2133 15.8824C15.3761 15.9488 15.5079 16.0688 15.5942 16.2076C15.6166 16.171 15.6364 16.132 15.6531 16.091C15.6845 16.0141 15.703 15.9352 15.7098 15.8565C15.7103 15.85 15.7108 15.8434 15.7112 15.8369C15.7179 15.7256 15.7012 15.6154 15.6637 15.513Z" fill="#F4C892"/>
<path d="M2.05004 8.44751C2.11382 8.29112 2.29228 8.21602 2.44867 8.2798L4.10665 8.95586C4.26304 9.01964 4.33814 9.1981 4.27436 9.35449L2.24704 14.3265C2.18326 14.4829 2.0048 14.558 1.84841 14.4942L0.190433 13.8181C0.0340403 13.7544 -0.0410593 13.5759 0.02272 13.4195L2.05004 8.44751Z" fill="#2D5872"/>
<path d="M4.10665 8.95597L3.39137 8.66431L1.49932 13.3045C1.43554 13.4609 1.25709 13.536 1.10069 13.4722L0.15799 13.0878L0.02272 13.4196C-0.0410593 13.576 0.0340403 13.7545 0.190433 13.8182L1.84841 14.4943C2.0048 14.5581 2.18326 14.483 2.24704 14.3266L4.2744 9.3546C4.3381 9.19821 4.26304 9.01971 4.10665 8.95597Z" fill="#1D4859"/>
<path d="M13.2909 0.0322266H10.1806L9.63281 2.39965V7.40027C9.63281 7.53681 9.79404 7.60937 9.89621 7.51881L11.6307 5.9822C11.6907 5.92908 11.7808 5.92908 11.8408 5.9822L13.5753 7.51881C13.6775 7.60937 13.8387 7.53681 13.8387 7.40027V2.39961L13.2909 0.0322266Z" fill="#FFB125"/>
<path d="M13.5753 7.51882L11.8408 5.98221C11.7808 5.92909 11.6906 5.92909 11.6307 5.98221L9.89621 7.51882C9.794 7.60934 9.63281 7.53678 9.63281 7.40028V2.39966H13.8387V7.40028C13.8387 7.53682 13.6775 7.60938 13.5753 7.51882Z" fill="#FF901D"/>
<path d="M14.214 17.353C14.2321 17.3219 14.2482 17.2892 14.2621 17.2549C14.2625 17.2539 14.2629 17.2528 14.2633 17.2518C14.2643 17.2493 14.2653 17.2469 14.2663 17.2444C14.267 17.2427 14.2676 17.2409 14.2683 17.2393C14.2687 17.2381 14.2691 17.2371 14.2695 17.236C14.2703 17.2339 14.2711 17.2318 14.2718 17.2297C14.2722 17.2287 14.2726 17.2276 14.273 17.2266C14.2738 17.2244 14.2745 17.2223 14.2753 17.2201C14.2756 17.2192 14.276 17.2182 14.2763 17.2173C14.277 17.2151 14.2778 17.213 14.2785 17.2108C14.2789 17.2098 14.2792 17.2087 14.2796 17.2077C14.2802 17.2058 14.2808 17.2039 14.2814 17.2021C14.2818 17.2008 14.2823 17.1995 14.2827 17.1982C14.2836 17.1952 14.2846 17.1922 14.2855 17.1892C14.286 17.1876 14.2865 17.1861 14.2869 17.1845C14.2874 17.183 14.2878 17.1815 14.2883 17.1801C14.2889 17.1781 14.2894 17.1763 14.29 17.1743C14.2903 17.1732 14.2906 17.172 14.2909 17.1708C14.2915 17.169 14.292 17.1672 14.2925 17.1653C14.2928 17.164 14.2932 17.1628 14.2935 17.1615C14.294 17.1596 14.2945 17.1578 14.295 17.156C14.2953 17.1548 14.2956 17.1535 14.2959 17.1523C14.2965 17.1503 14.297 17.1483 14.2975 17.1463C14.2977 17.1453 14.2979 17.1444 14.2982 17.1434C14.2987 17.1412 14.2992 17.1391 14.2997 17.1368C14.2999 17.136 14.3001 17.1351 14.3003 17.1343C14.3009 17.1321 14.3014 17.1298 14.3019 17.1276C14.302 17.1268 14.3022 17.1261 14.3023 17.1253C14.3029 17.1229 14.3034 17.1206 14.3039 17.1183C14.304 17.1178 14.3041 17.1173 14.3042 17.1167C14.3054 17.1111 14.3065 17.1055 14.3075 17.0999C14.3758 16.7336 14.1802 16.3574 13.8216 16.2112L10.132 14.7068C9.97491 15.092 10.1608 15.5315 10.5467 15.687L13.8216 17.0069C13.9921 17.0765 14.128 17.2051 14.214 17.353Z" fill="#F4C892"/>
</svg>
