<svg width="17" height="25" viewBox="0 0 17 25" fill="none" xmlns="http://www.w3.org/2000/svg">
<path d="M3.47046 6.97343L4.33057 6.49799C4.50488 6.26518 4.42959 6.13335 4.45884 5.44087C4.14946 5.20097 4.04077 4.97934 3.98872 4.90673C3.86992 3.54785 4.37871 3.67959 5.30669 2.36723C5.48804 2.11079 5.8417 2.04814 6.10117 2.22514C6.44038 2.45659 6.83818 2.86074 6.99409 3.33559C7.04404 3.15219 7.24273 2.33818 7.05093 1.65908C6.74839 0.587447 4.67441 -0.0661175 3.36055 1.20903C2.92886 1.63227 2.62305 2.2812 2.62305 3.21469C2.6231 4.41762 3.01856 5.92304 3.47046 6.97343Z" fill="#CC9D72"/>
<path d="M3.98877 4.90666C3.90957 4.00056 4.10972 3.7569 4.52681 3.30622C4.46216 2.39162 4.58159 1.49684 5.24727 0.844256C5.3583 0.736492 5.47715 0.640936 5.602 0.557781C4.81523 0.394647 3.97051 0.617059 3.36055 1.20905C2.92886 1.63229 2.62305 2.28122 2.62305 3.21471C2.62305 4.4176 3.01851 5.92302 3.47041 6.97341L4.33052 6.49797C4.50483 6.26515 4.42954 6.13332 4.45879 5.44084C4.14946 5.2009 4.04082 4.97922 3.98877 4.90666Z" fill="#C19067"/>
<path d="M8.15537 22.2424C7.42852 23.0381 7.14409 22.571 6.05078 22.9325C6.19502 23.7771 7.05688 24.3587 7.75908 24.7057C7.98286 24.8162 8.24312 24.6466 8.23096 24.3972L8.18179 23.3912L8.15537 22.2424Z" fill="#ED694A"/>
<path d="M7.16538 22.7563C6.8835 22.7753 6.55229 22.7669 6.05078 22.9327C6.19502 23.7773 7.05689 24.3589 7.75908 24.7059C7.98286 24.8164 8.24312 24.6468 8.23096 24.3974L8.19468 23.6553C7.80698 23.4246 7.42031 23.1263 7.16538 22.7563Z" fill="#DB4E33"/>
<path d="M11.5842 5.1937C11.2318 3.24189 10.0571 1.72383 10.0571 1.72383C9.55464 0.836328 10.2288 0.00244141 9.06304 0.00244141C8.08716 0.00244141 8.12783 0.747949 8.2769 1.23584C8.37876 1.56924 8.79546 2.25186 9.04668 2.55762C9.56919 3.1937 9.80894 4.50063 9.89321 5.08398C9.91631 5.2438 9.80659 5.39214 9.64687 5.41616C8.58174 5.57637 7.25015 5.88472 6.68286 6.02085C6.53091 6.05728 6.37905 5.96152 6.34614 5.80879L6.27505 5.27773C5.72432 5.84287 4.94644 5.75059 4.35068 5.28423L4.39824 5.97554C4.42329 6.23193 4.28379 6.47627 4.04976 6.58394C3.41323 6.87681 2.13457 7.53179 1.23774 8.42861C1.23774 8.42861 0.578125 8.85332 0.578125 9.42261C0.578125 9.94526 1.28643 11.2904 2.30444 12.0317L2.32964 12.0618C2.48882 12.2516 2.42192 12.5409 2.19556 12.6415C2.19053 12.6436 1.78188 12.8107 1.80796 12.8C1.42388 12.9557 1.4957 13.4838 1.87588 13.556L2.19658 13.6169C2.71089 13.7146 3.23369 13.495 3.52407 13.0594C3.78901 12.6621 3.69858 12.2843 3.70503 12.1913C3.6895 11.868 3.59736 11.5529 3.43496 11.2729C3.19912 10.8662 2.82964 10.2637 2.48516 9.84717C2.38945 9.73145 2.42813 9.55679 2.56318 9.49121L4.09478 8.74736C4.30996 8.64287 4.5687 8.74033 4.66152 8.96084L4.94629 9.63765L4.99546 9.59707C4.99546 9.59707 5.59229 8.86475 5.59229 8.37681C5.59229 7.90439 6.99868 7.09116 7.95229 7.58203C7.93379 7.53218 7.9147 7.48252 7.89399 7.43345C7.89399 7.43354 11.9366 7.14551 11.5842 5.1937Z" fill="#F4D44E"/>
<path d="M9.0471 2.5576C9.56961 3.19368 9.80935 4.50062 9.89363 5.08397C9.91219 5.21233 9.8449 5.33323 9.73499 5.38826C9.98528 5.34183 10.2337 5.29915 10.469 5.2638C10.6287 5.23978 10.7385 5.09139 10.7154 4.93162C10.6311 4.34832 10.3913 3.04134 9.86883 2.40525C9.61761 2.09944 9.20091 1.41688 9.09905 1.08348C8.99314 0.736797 8.94236 0.26043 9.27156 0.0134573C8.41707 -0.0845408 8.00833 0.355694 8.27727 1.23587C8.37923 1.56927 8.79588 2.25184 9.0471 2.5576Z" fill="#E8C842"/>
<path d="M5.28286 6.27793L5.24189 5.66172C4.93286 5.63179 4.62275 5.49717 4.35068 5.28418L4.39824 5.97549C4.42329 6.23188 4.28379 6.47622 4.04976 6.58389C3.41323 6.87676 2.13457 7.53174 1.23774 8.42856C1.23774 8.42856 0.578125 8.85327 0.578125 9.42256C0.578125 9.94521 1.28643 11.2904 2.30444 12.0317L2.32964 12.0617C2.32676 12.0424 2.34243 11.7842 2.16406 11.5313C1.70937 10.8864 1.43374 10.216 1.43374 9.87695C1.43374 9.28257 2.09839 8.83916 2.09839 8.83916C3.00205 7.90278 4.29038 7.2189 4.93169 6.91318C5.16753 6.80078 5.30811 6.54565 5.28286 6.27793Z" fill="#E8C842"/>
<path d="M13.4308 22.6592C13.4308 22.6592 13.2782 23.6369 13.7661 24.2781C14.2924 24.9698 15.316 25.0249 16.1063 24.9934C16.3558 24.9834 16.5031 24.7099 16.3731 24.4968L15.8486 23.637" fill="#ED694A"/>
<path d="M14.7429 23.1897L13.4308 22.6592C13.4308 22.6592 13.2782 23.6369 13.7661 24.2781C14.1938 24.8402 14.9499 24.9819 15.6423 24.9983C14.9489 24.6475 14.7157 23.9729 14.7429 23.1897Z" fill="#DB4E33"/>
<path d="M15.0984 22.3344L12.698 18.0542C12.1386 18.6418 11.6376 17.8523 11.1064 19.2459L13.4312 22.6592C14.0065 23.4722 14.8576 23.6369 15.8491 23.6369L15.0984 22.3344Z" fill="#F4D44E"/>
<path d="M11.8288 18.3622C11.5886 18.426 11.3507 18.605 11.1064 19.2459L13.4313 22.6592C13.7777 23.1489 14.2244 23.4032 14.7415 23.5281C11.428 17.6513 11.8696 18.4345 11.8288 18.3622Z" fill="#E8C842"/>
<path d="M6.06348 7.80371C5.60635 6.99653 4.78076 6.44316 4.37524 6.2085C4.28125 6.52183 4.04487 6.58154 3.75781 6.72251C3.81836 6.77314 4.91133 7.28896 5.41274 8.18564C5.45522 8.26157 5.52007 8.31689 5.59443 8.34849C5.61318 8.18101 5.79468 7.9771 6.06348 7.80371Z" fill="#DB4E33"/>
<path d="M7.254 5.88716C7.02476 5.93945 6.82827 5.98584 6.68247 6.0208C6.54761 6.05317 6.41289 5.9811 6.36133 5.85767C6.40112 6.08066 6.8002 6.36616 7.13594 7.43628C7.41533 7.4144 7.69727 7.45215 7.94819 7.58032C7.94814 7.57778 7.94829 7.57524 7.94819 7.57266C7.93076 7.52598 7.91299 7.47944 7.89355 7.43345C7.70674 6.74409 7.45122 6.20635 7.254 5.88716Z" fill="#DB4E33"/>
<path d="M12.6418 12.0316C11.7957 12.0316 11.3734 12.8675 11.1772 13.695C11.1457 13.828 10.9986 13.8977 10.8735 13.8427C10.8438 13.8156 9.43128 13.399 8.19387 10.999C8.03899 10.6986 7.98655 10.356 8.0427 10.0227C8.20364 9.06777 8.27127 8.32598 7.89446 7.4334C6.94226 6.83589 5.44177 7.68755 5.44177 8.17549C5.44177 8.66348 4.84495 9.39575 4.84495 9.39575C5.25984 10.4435 5.44085 10.6494 5.45657 11.1164C5.50061 12.4202 5.46726 17.6221 2.3408 20.4026C1.68162 20.9888 1.64949 22.0092 2.25261 22.6529C2.6906 23.1204 3.2509 23.5189 3.88855 23.5189C5.43088 23.5189 5.74358 22.8141 7.1053 22.8141C8.46702 22.8141 8.57547 20.8623 9.93089 20.8623C11.2863 20.8623 10.7984 18.3683 12.1538 18.3683C13.5092 18.3683 13.1839 15.3863 14.702 14.9526C16.2201 14.5189 14.0514 12.0316 12.6418 12.0316Z" fill="#ED694A"/>
<path d="M3.60178 22.7625C2.99866 22.1187 3.03074 21.0984 3.68997 20.5122C6.81643 17.7317 6.84978 12.5298 6.80574 11.2259C6.79407 10.8796 6.69138 10.6768 6.46995 10.1677C6.3075 9.79423 6.32693 9.36386 6.53206 9.012C6.66697 8.78061 6.79089 8.50746 6.79089 8.2851C6.79089 8.00512 7.28513 7.60585 7.88616 7.42885C6.93357 6.8413 5.44177 7.6891 5.44177 8.17568C5.44177 8.66366 4.84495 9.39594 4.84495 9.39594C5.25984 10.4437 5.44085 10.6496 5.45657 11.1165C5.50061 12.4204 5.46726 17.6223 2.3408 20.4028C1.68162 20.989 1.64949 22.0094 2.25261 22.6531C3.04011 23.4936 3.67219 23.6067 4.54109 23.471C4.1886 23.3124 3.87185 23.0507 3.60178 22.7625Z" fill="#DB4E33"/>
<path d="M6.05093 2.12471C5.7915 1.94766 5.43774 2.01026 5.25644 2.26675C5.05166 2.55645 4.7373 2.95957 4.31938 3.37749C3.90376 3.79312 3.84692 4.38438 3.88823 4.8565L3.88852 4.85694C4.298 5.59087 5.47148 6.18321 6.25767 5.39707C7.04385 4.61094 6.99414 3.33575 6.99414 3.33575C6.88071 2.79126 6.42305 2.37862 6.05093 2.12471Z" fill="#F4D44E"/>
<path d="M4.71359 4.45039C4.45236 4.08394 4.45393 3.59185 4.53762 3.14966C4.27546 3.43223 3.79416 3.78433 3.88791 4.85645L3.8882 4.85688C4.29484 5.58574 5.45471 6.17427 6.24064 5.41255C5.64763 5.28794 5.08317 4.91294 4.71359 4.45039Z" fill="#E8C842"/>
</svg>
