<svg width="19" height="19" viewBox="0 0 19 19" fill="none" xmlns="http://www.w3.org/2000/svg">
<path d="M2.20703 8.72269C1.8446 8.7237 1.48986 8.82731 1.18386 9.02152C0.877851 9.21574 0.633086 9.49262 0.477878 9.82014C0.32267 10.1477 0.263362 10.5124 0.306815 10.8722C0.350268 11.2321 0.494706 11.5722 0.72342 11.8534L5.59905 17.826C5.7729 18.0419 5.99573 18.2131 6.24905 18.3256C6.50237 18.438 6.77887 18.4884 7.05557 18.4725C7.64736 18.4408 8.18165 18.1242 8.52229 17.6037L18.6502 1.29264C18.6519 1.28994 18.6536 1.28723 18.6554 1.28457C18.7504 1.13866 18.7196 0.849503 18.5235 0.667853C18.4696 0.61797 18.4061 0.579646 18.3368 0.555241C18.2675 0.530836 18.194 0.520867 18.1208 0.525948C18.0475 0.531029 17.9761 0.551052 17.9109 0.584785C17.8456 0.618518 17.788 0.665245 17.7415 0.72209C17.7379 0.726559 17.7342 0.730961 17.7303 0.735296L7.51615 12.2758C7.47729 12.3197 7.43008 12.3554 7.37728 12.381C7.32448 12.4065 7.26713 12.4212 7.20858 12.4244C7.15002 12.4276 7.09141 12.4191 7.03617 12.3994C6.98092 12.3797 6.93013 12.3493 6.88676 12.3098L3.49687 9.22499C3.1448 8.90225 2.68464 8.72305 2.20703 8.72269Z" fill="#519E3D"/>
</svg>
