<svg width="21" height="20" viewBox="0 0 21 20" fill="none" xmlns="http://www.w3.org/2000/svg">
<path d="M10.5 3.51562C6.74579 3.51562 3.69141 6.42456 3.69141 10C3.69141 13.5754 6.74579 16.4844 10.5 16.4844C14.2542 16.4844 17.3086 13.5754 17.3086 10C17.3086 6.42456 14.2542 3.51562 10.5 3.51562ZM10.1946 9.41406H10.8054C12.0541 9.41406 13.07 10.3816 13.07 11.5709C13.07 12.6599 12.2178 13.5626 11.1152 13.707V14.901H9.88477V13.707C8.78215 13.5625 7.92995 12.6599 7.92995 11.5709H9.16042C9.16042 12.114 9.62441 12.5558 10.1946 12.5558H10.8054C11.3756 12.5558 11.8396 12.114 11.8396 11.5709C11.8396 11.0278 11.3756 10.5859 10.8054 10.5859H10.1946C8.94589 10.5859 7.92995 9.61838 7.92995 8.42911C7.92995 7.34009 8.78215 6.43738 9.88477 6.29303V5.09903H11.1152V6.29303C12.2178 6.43753 13.07 7.34009 13.07 8.42911H11.8396C11.8396 7.88605 11.3756 7.44415 10.8054 7.44415H10.1946C9.62441 7.44415 9.16042 7.88605 9.16042 8.42911C9.16042 8.97217 9.62441 9.41406 10.1946 9.41406Z" fill="#EBC812"/>
<path d="M17.9246 2.92892C15.9415 1.04019 13.3046 0 10.5 0C7.6954 0 5.05854 1.04019 3.07537 2.92892C1.0922 4.81766 0 7.32895 0 10C0 12.6711 1.0922 15.1823 3.07537 17.0711C5.05854 18.9598 7.6954 20 10.5 20C13.3046 20 15.9415 18.9598 17.9246 17.0711C19.9078 15.1823 21 12.6711 21 10C21 7.32895 19.9078 4.81766 17.9246 2.92892ZM10.5 17.6562C6.06727 17.6562 2.46094 14.2216 2.46094 10C2.46094 5.77835 6.06727 2.34375 10.5 2.34375C14.9327 2.34375 18.5391 5.77835 18.5391 10C18.5391 14.2216 14.9327 17.6562 10.5 17.6562Z" fill="#EBC812"/>
</svg>
