<svg width="25" height="25" viewBox="0 0 25 25" fill="none" xmlns="http://www.w3.org/2000/svg">
<path d="M14.8713 16.8398C14.0822 20.4023 11.8713 22.4414 10.5822 23.3594C9.97676 23.7891 9.21113 23.9141 8.5002 23.6953C6.03926 22.9414 0.351763 20.1523 0.390825 10.5195C0.394731 9.98438 0.918169 9.60156 1.42989 9.76953C2.64082 10.168 4.83223 10.6719 7.39473 10.2578C8.42598 10.0898 9.35567 9.80078 10.1643 9.46094C10.3127 10.3633 10.551 11.1758 10.8479 11.9023C9.57051 12.4922 9.19942 13.9805 9.19942 13.9805C10.6604 14.4961 11.5627 14.4766 12.1213 14.1992C13.0432 15.4727 14.09 16.3242 14.8713 16.8398Z" fill="#FFB900"/>
<path d="M5.07833 19.1405C3.6045 16.5616 3.17442 13.2878 3.78575 10.3019C2.82012 10.1753 2.01114 9.96086 1.42989 9.76945C0.918169 9.60149 0.394731 9.9843 0.390825 10.5195C0.351763 20.1523 6.03926 22.9413 8.5002 23.6952C9.21114 23.914 9.97676 23.789 10.5822 23.3593C10.9143 23.123 11.308 22.8105 11.7221 22.4183C9.19317 22.7405 6.49434 21.2648 5.07833 19.1405Z" fill="#FF9700"/>
<path d="M10.164 9.46094C9.84758 7.58594 9.91007 5.32031 10.6093 2.60937C10.8085 1.84765 11.6835 1.48437 12.3515 1.89453C13.4726 2.58203 15.2851 3.45312 17.5702 3.70703C19.8515 3.96094 21.8124 3.50781 23.0585 3.08594C23.8007 2.83203 24.5741 3.38281 24.5976 4.16406C24.8827 13.3672 19.496 16.3281 17.1249 17.1875C16.4296 17.4375 15.6601 17.3516 15.039 16.9531C14.9843 16.918 14.9257 16.8828 14.871 16.8398C14.0898 16.3242 13.0429 15.4727 12.121 14.1992C11.6445 13.5469 11.203 12.7852 10.8476 11.9023C10.5507 11.1758 10.3124 10.3633 10.164 9.46094Z" fill="#E03946"/>
<path d="M13.6718 3.90625C13.8648 3.52031 14.2495 3.23047 14.7296 3.03515C13.7616 2.68398 12.9538 2.26406 12.3515 1.89453C11.6835 1.48437 10.8085 1.84765 10.6093 2.60937C9.91007 5.32031 9.84758 7.58594 10.164 9.46094C10.3124 10.3633 10.5507 11.1758 10.8476 11.9023C11.203 12.7852 11.6445 13.5469 12.121 14.1992C13.0429 15.4727 14.0898 16.3242 14.871 16.8398C14.9257 16.8828 14.9843 16.918 15.039 16.9531C15.6601 17.3516 16.4296 17.4375 17.1249 17.1875C17.1757 17.1691 17.2296 17.1484 17.2831 17.1281C13.1753 14.2934 11.2144 8.46992 13.6718 3.90625Z" fill="#C41432"/>
<path d="M22.2656 21.0938C22.6971 21.0938 23.0469 20.744 23.0469 20.3125C23.0469 19.881 22.6971 19.5312 22.2656 19.5312C21.8342 19.5312 21.4844 19.881 21.4844 20.3125C21.4844 20.744 21.8342 21.0938 22.2656 21.0938Z" fill="#F7B704"/>
<path d="M19.5312 23.8281C20.1785 23.8281 20.7031 23.3035 20.7031 22.6562C20.7031 22.009 20.1785 21.4844 19.5312 21.4844C18.884 21.4844 18.3594 22.009 18.3594 22.6562C18.3594 23.3035 18.884 23.8281 19.5312 23.8281Z" fill="#E03946"/>
<path d="M7.03125 3.90625C7.46272 3.90625 7.8125 3.55647 7.8125 3.125C7.8125 2.69353 7.46272 2.34375 7.03125 2.34375C6.59978 2.34375 6.25 2.69353 6.25 3.125C6.25 3.55647 6.59978 3.90625 7.03125 3.90625Z" fill="#E03946"/>
<path d="M4.28125 3.52344L3.34766 4.14453L2.72656 5.07812L2.10547 4.14453L1.17188 3.52344L2.10547 2.90234L2.72656 1.96875L3.34766 2.90234L4.28125 3.52344Z" fill="#F7B704"/>
<path d="M5.07812 7.42188C5.72533 7.42188 6.25 6.89721 6.25 6.25C6.25 5.60279 5.72533 5.07812 5.07812 5.07812C4.43092 5.07812 3.90625 5.60279 3.90625 6.25C3.90625 6.89721 4.43092 7.42188 5.07812 7.42188Z" fill="#E03946"/>
<path d="M2.68359 13.4296C5.23437 11.8124 6.85156 14.3632 6.85156 14.3632C2.92578 17.4062 2.68359 13.4296 2.68359 13.4296Z" fill="#EDF0F4"/>
<path d="M12.1211 14.1992C11.5625 14.4766 10.6602 14.4961 9.19922 13.9805C9.19922 13.9805 9.57031 12.4922 10.8477 11.9023C11.2031 12.7852 11.6445 13.5469 12.1211 14.1992Z" fill="#EDF0F4"/>
<path d="M12.4375 19.082C10.8086 18.9453 8.85156 19.2617 8.85156 19.2617C8.85156 19.2617 6.89453 19.5781 5.39062 20.2226C5.39062 20.2226 6.51172 17.2265 8.46875 16.9101C10.4258 16.5937 12.4375 19.082 12.4375 19.082Z" fill="#EDF0F4"/>
<path d="M15.9494 7.51556C11.3517 9.39837 12.1838 5.49994 12.1838 5.49994C15.0744 4.62494 15.9494 7.51556 15.9494 7.51556Z" fill="#EDF0F4"/>
<path d="M18.3125 7.78124C18.3125 7.78124 19.8008 5.15233 22.4297 6.64061C22.4297 6.64061 22.3828 10.625 18.3125 7.78124Z" fill="#EDF0F4"/>
<path d="M16.6914 11.5898C16.6914 11.5898 19.0547 11.8516 20.6758 11.6328C20.6758 11.6328 18.3984 14.1719 16.4297 13.9531C14.457 13.7344 12.793 10.7578 12.793 10.7578C14.3281 11.3242 16.6914 11.5898 16.6914 11.5898Z" fill="#EDF0F4"/>
<path d="M4.6875 1.95312C4.90312 1.95312 5.07812 1.77812 5.07812 1.5625C5.07812 1.34688 4.90312 1.17188 4.6875 1.17188C4.47188 1.17188 4.29688 1.34688 4.29688 1.5625C4.29688 1.77812 4.47188 1.95312 4.6875 1.95312Z" fill="#F7B704"/>
<path d="M7.8125 5.85938C8.02824 5.85938 8.20312 5.68449 8.20312 5.46875C8.20312 5.25301 8.02824 5.07812 7.8125 5.07812C7.59676 5.07812 7.42188 5.25301 7.42188 5.46875C7.42188 5.68449 7.59676 5.85938 7.8125 5.85938Z" fill="#F7B704"/>
<path d="M1.95312 7.42188C2.16886 7.42188 2.34375 7.24699 2.34375 7.03125C2.34375 6.81551 2.16886 6.64062 1.95312 6.64062C1.73739 6.64062 1.5625 6.81551 1.5625 7.03125C1.5625 7.24699 1.73739 7.42188 1.95312 7.42188Z" fill="#E03946"/>
<path d="M20.7031 17.5781C20.9189 17.5781 21.0938 17.4032 21.0938 17.1875C21.0938 16.9718 20.9189 16.7969 20.7031 16.7969C20.4874 16.7969 20.3125 16.9718 20.3125 17.1875C20.3125 17.4032 20.4874 17.5781 20.7031 17.5781Z" fill="#E03946"/>
<path d="M19.9219 19.5312C19.9219 19.3156 19.7469 19.1406 19.5312 19.1406C19.3156 19.1406 19.1406 19.3156 19.1406 19.5312C19.1406 19.7469 19.3156 19.9219 19.5312 19.9219C19.7469 19.9219 19.9219 19.7469 19.9219 19.5312Z" fill="#F7B704"/>
<path d="M22.6562 23.4375C22.872 23.4375 23.0469 23.2626 23.0469 23.0469C23.0469 22.8311 22.872 22.6562 22.6562 22.6562C22.4405 22.6562 22.2656 22.8311 22.2656 23.0469C22.2656 23.2626 22.4405 23.4375 22.6562 23.4375Z" fill="#E03946"/>
</svg>
