<svg width="20" height="20" viewBox="0 0 20 20" fill="none" xmlns="http://www.w3.org/2000/svg">
<circle cx="10" cy="10" r="9.5" fill="#36A7E9" stroke="white"/>
<path d="M6.4973 12.4595C6.45655 12.5003 6.42914 12.5521 6.41751 12.608L6.00567 14.668C5.98647 14.7635 6.01676 14.8619 6.08546 14.9312C6.14082 14.9866 6.21538 15.0163 6.29175 15.0163C6.31031 15.0163 6.32962 15.0145 6.34882 15.0105L8.40813 14.5986C8.4652 14.5869 8.51704 14.5596 8.55725 14.5188L13.1663 9.90967L11.107 7.85046L6.4973 12.4595Z" fill="white"/>
<path d="M14.5899 6.426C14.022 5.858 13.098 5.858 12.5306 6.426L11.7244 7.23219L13.7837 9.29151L14.5899 8.48521C14.8649 8.21086 15.0163 7.84499 15.0163 7.45587C15.0163 7.06675 14.8649 6.70088 14.5899 6.426Z" fill="white"/>
</svg>
