<svg width="21" height="16" viewBox="0 0 21 16" fill="none" xmlns="http://www.w3.org/2000/svg">
<path d="M12.255 10.4072C11.7326 10.7616 11.1257 10.9489 10.5 10.9489C9.87435 10.9489 9.26748 10.7616 8.74502 10.4072L0.139822 4.57111C0.0920801 4.53873 0.0455684 4.50497 0 4.47026V14.0334C0 15.1298 0.874658 16 1.93319 16H19.0668C20.1446 16 21 15.1102 21 14.0334V4.47021C20.9543 4.50501 20.9077 4.53885 20.8598 4.57127L12.255 10.4072Z" fill="#AFAFAF"/>
<path d="M0.822363 3.52956L9.42756 9.36573C9.75331 9.58666 10.1266 9.6971 10.5 9.6971C10.8733 9.6971 11.2467 9.58662 11.5724 9.36573L20.1776 3.52956C20.6926 3.18053 21 2.59639 21 1.96593C21 0.881889 20.1331 0 19.0675 0H1.93253C0.866947 4.17245e-05 0 0.88193 0 1.96698C0 2.59639 0.307453 3.18053 0.822363 3.52956Z" fill="#AFAFAF"/>
</svg>
