<svg width="15" height="11" viewBox="0 0 15 11" fill="none" xmlns="http://www.w3.org/2000/svg">
<path d="M9.71963 6.12305L8.46335 7.38357C7.95391 7.8948 7.05754 7.90582 6.53708 7.38357L5.28074 6.12305L0.768555 10.6499C0.936514 10.7275 1.1217 10.7739 1.31857 10.7739H13.6819C13.8787 10.7739 14.0639 10.7276 14.2318 10.6499L9.71963 6.12305Z" fill="#36A7E9"/>
<path d="M13.6818 0.226562H1.31852C1.12164 0.226562 0.936455 0.27291 0.768555 0.350576L5.59015 5.18816C5.59047 5.18849 5.59085 5.18855 5.59117 5.18887C5.59149 5.18919 5.59155 5.18963 5.59155 5.18963L7.15932 6.76258C7.32584 6.9291 7.67453 6.9291 7.84105 6.76258L9.4085 5.18989C9.4085 5.18989 9.40888 5.18919 9.4092 5.18887C9.4092 5.18887 9.4099 5.18849 9.41022 5.18816L14.2317 0.350547C14.0638 0.272852 13.8787 0.226562 13.6818 0.226562Z" fill="#36A7E9"/>
<path d="M0.140215 0.964844C0.0533203 1.14057 0 1.33563 0 1.54457V9.45473C0 9.66367 0.0532617 9.85873 0.140186 10.0345L4.6602 5.49979L0.140215 0.964844Z" fill="#36A7E9"/>
<path d="M14.8598 0.964844L10.3398 5.49985L14.8598 10.0346C14.9467 9.85885 15 9.66379 15 9.45479V1.54463C15 1.33563 14.9467 1.14057 14.8598 0.964844Z" fill="#36A7E9"/>
</svg>
