<svg width="21" height="21" viewBox="0 0 21 21" fill="none" xmlns="http://www.w3.org/2000/svg">
<path d="M19.8556 4.21917L13.0119 0.0788851C12.6517 -0.139031 12.1917 0.120311 12.1917 0.541254V2.48215C12.1916 2.48215 11.9624 2.52005 11.5614 2.58629C9.27711 2.9638 7.08019 3.9839 5.19651 5.31051C3.55514 6.46645 1.97153 7.9107 0.844955 9.58307C0.713254 9.72223 0.719284 9.94179 0.858491 10.0735C0.997657 10.2052 1.21721 10.1992 1.34891 10.06C1.3485 10.0604 1.3597 10.0513 1.37668 10.0397C2.71121 9.12045 4.17653 8.37503 5.71831 7.87202C7.58042 7.26449 9.56939 6.9821 11.5204 7.24161C11.7449 7.27409 11.9692 7.31002 12.1918 7.35452V9.29542C12.1918 9.71641 12.6518 9.97571 13.012 9.75779L19.8557 5.61751C20.3811 5.29956 20.3811 4.53716 19.8556 4.21917Z" fill="#58B78C"/>
<path d="M1.14421 16.7809L7.98791 20.9211C8.34807 21.1391 8.8081 20.8797 8.8081 20.4588V18.5179C8.80814 18.5179 9.03734 18.48 9.43839 18.4137C11.7227 18.0362 13.9196 17.0161 15.8033 15.6895C17.4446 14.5335 19.0282 13.0893 20.1548 11.4169C20.2865 11.2778 20.2805 11.0582 20.1413 10.9265C20.0021 10.7948 19.7825 10.8008 19.6508 10.94C19.6512 10.9395 19.64 10.9486 19.6231 10.9603C18.2885 11.8796 16.8232 12.625 15.2814 13.128C13.4193 13.7355 11.4304 14.0179 9.47932 13.7584C9.2548 13.7259 9.03057 13.69 8.80798 13.6455V11.7046C8.80798 11.2836 8.34795 11.0243 7.98779 11.2422L1.14421 15.3824C0.618596 15.7004 0.618596 16.4629 1.14421 16.7809Z" fill="#FD6F71"/>
</svg>
