<svg width="25" height="25" viewBox="0 0 25 25" fill="none" xmlns="http://www.w3.org/2000/svg">
<path d="M21.2903 9.67662C21.2903 9.67662 24.9996 13.5147 24.9996 19.3974C24.9996 19.3974 24.4257 19.6072 23.3935 19.8496C23.1661 19.9024 22.9171 19.9578 22.647 20.0121C22.3432 20.0734 22.0127 20.1348 21.6575 20.1926C21.4181 20.2319 21.1671 20.2696 20.9055 20.3053C19.7496 20.4618 18.3844 20.576 16.8562 20.576C14.9241 20.576 13.2521 20.3939 11.9352 20.1726C9.902 19.8315 8.71289 19.3974 8.71289 19.3974C8.71289 13.5146 12.4222 9.67662 12.4222 9.67662V7.27721L10.4222 5.63487L8.71289 4.23145L11.977 1.30538C12.3769 0.946736 12.8703 0.751033 13.3718 0.717342C13.6057 0.701766 13.8406 0.721346 14.0695 0.77618C14.4392 0.864705 14.7908 1.04532 15.0896 1.3169L15.4377 1.6338C16.2416 2.36617 17.4709 2.36617 18.2752 1.6338L18.6233 1.3169C18.9221 1.04527 19.2737 0.864705 19.6435 0.77618C20.3633 0.60367 21.1495 0.779695 21.7355 1.30538L24.9996 4.23145L22.24 6.49757L21.2903 7.27725V9.67662Z" fill="#80B4FB"/>
<path d="M13.5665 5.53213V9.90981C13.5665 9.90981 12.0524 14.5094 12.0524 16.7589C12.0524 17.6543 11.9991 18.9445 11.9352 20.1729C9.902 19.8318 8.71289 19.3978 8.71289 19.3978C8.71289 13.5149 12.4222 9.67695 12.4222 9.67695V4.93652H12.9709C13.2999 4.93647 13.5665 5.20312 13.5665 5.53213Z" fill="#61A2F9"/>
<path d="M13.3719 0.717529C12.2351 1.77637 10.9171 4.00425 10.4222 5.63506L8.71289 4.23164L11.977 1.30557C12.3769 0.946924 12.8704 0.75127 13.3719 0.717529Z" fill="#61A2F9"/>
<path d="M19.6433 0.776367C19.523 1.34229 18.5804 5.50273 16.8561 6.10684C15.1317 5.50273 14.1896 1.34224 14.0693 0.776367C14.4391 0.864893 14.7907 1.04546 15.0895 1.31709L15.4375 1.63398C16.2414 2.36636 17.4708 2.36636 18.2751 1.63398L18.6232 1.31709C18.9219 1.04546 19.2735 0.864893 19.6433 0.776367Z" fill="#61A2F9"/>
<path d="M21.6577 20.1929C21.4182 20.2321 21.1673 20.2698 20.9057 20.3056C20.8715 18.7533 20.7116 17.206 20.4293 15.704C20.3911 15.4992 20.5259 15.3021 20.7307 15.2638C20.9354 15.2256 21.1326 15.3599 21.1713 15.5651C21.455 17.0767 21.6184 18.6315 21.6577 20.1929Z" fill="#61A2F9"/>
<path d="M23.3932 19.8498C23.1659 19.9026 22.9168 19.9579 22.6467 20.0122C22.5763 18.8251 22.4309 17.6405 22.2146 16.4891C22.1759 16.2844 22.3107 16.0872 22.516 16.0485C22.7207 16.0102 22.9179 16.1451 22.9561 16.3498C23.1709 17.4947 23.3178 18.6702 23.3932 19.8498Z" fill="#61A2F9"/>
<path d="M22.2397 6.49771L21.29 7.2774V5.77701C21.29 5.53882 21.6031 5.45108 21.7269 5.6546L22.2397 6.49771Z" fill="#61A2F9"/>
<path d="M16.8573 10.4393C15.3542 10.4393 13.851 10.3091 12.3584 10.0486C12.1531 10.0128 12.0158 9.81732 12.0516 9.61204C12.0874 9.40682 12.2829 9.26937 12.4881 9.30526C15.3873 9.81126 18.3273 9.81131 21.2265 9.30526C21.4315 9.26942 21.6272 9.40677 21.663 9.61204C21.6988 9.81732 21.5615 10.0127 21.3562 10.0486C19.8636 10.3091 18.3605 10.4393 16.8573 10.4393Z" fill="#FFD064"/>
<path d="M1.77371 15.9909C1.59055 15.991 1.42991 15.8574 1.4013 15.6708C1.17024 14.1636 2.55818 13.105 4.02762 11.9843C4.65139 11.5085 5.31175 11.0048 5.88704 10.4388C5.42298 10.1738 4.98694 9.90217 4.59915 9.62175C3.3593 8.72517 2.75662 7.82805 2.75662 6.87903C2.75662 5.37981 3.58963 4.74661 4.08621 4.50266C5.01262 4.04749 6.22786 4.19934 7.11033 4.88054C8.04114 5.5991 8.42469 6.75042 8.16248 8.03928C7.9909 8.88274 7.59939 9.60212 7.09182 10.2377C7.61116 10.5109 8.15213 10.7799 8.68924 11.047C11.4208 12.4053 14.0009 13.6883 14.1871 15.5766C14.2076 15.7839 14.0561 15.9686 13.8487 15.9891C13.641 16.0093 13.4567 15.858 13.4362 15.6507C13.2909 14.178 10.7808 12.9298 8.35325 11.7226C7.75872 11.427 7.15511 11.1268 6.57698 10.8187C5.93518 11.4782 5.1885 12.0477 4.48513 12.5842C3.143 13.6078 1.98387 14.4919 2.14705 15.5565C2.17864 15.7624 2.03728 15.955 1.83133 15.9865C1.81204 15.9895 1.7927 15.9909 1.77371 15.9909ZM5.24329 4.99866C4.95115 4.99866 4.66731 5.05784 4.41892 5.17986C3.82503 5.47166 3.51111 6.05925 3.51111 6.87903C3.51111 7.9863 4.78294 8.95637 6.41346 9.87014C6.899 9.28699 7.27098 8.63655 7.42307 7.88889C7.70052 6.52498 7.05735 5.79285 6.64925 5.47786C6.2428 5.16409 5.73152 4.99866 5.24329 4.99866Z" fill="#407093"/>
<path d="M13.8121 15.362C9.79963 15.1524 5.78713 15.1524 1.77463 15.362C0.959253 15.4046 0.289575 16.023 0.186108 16.833C-0.0620361 18.7752 -0.0620361 20.7174 0.186108 22.6597C0.289575 23.4696 0.959204 24.088 1.77463 24.1306C5.78713 24.3402 9.79963 24.3402 13.8121 24.1306C14.6275 24.088 15.2972 23.4696 15.4007 22.6597C15.6488 20.7174 15.6488 18.7752 15.4007 16.833C15.2972 16.023 14.6276 15.4046 13.8121 15.362Z" fill="#DB5C6E"/>
<path d="M2.50641 24.1664C2.26246 24.1553 2.01847 24.1433 1.77452 24.1307C0.959143 24.0879 0.289612 23.4697 0.185999 22.6594C-0.0619995 20.7172 -0.0619995 18.775 0.185999 16.8329C0.289612 16.023 0.959143 15.4043 1.77452 15.3621C2.01847 15.3495 2.26246 15.3375 2.50641 15.3264C1.98883 15.5825 1.61256 16.0845 1.53561 16.6876C1.27501 18.7269 1.27501 20.7661 1.53561 22.8048C1.61256 23.4079 1.98883 23.9099 2.50641 24.1664Z" fill="#D64553"/>
<path d="M15.4007 19.4069C15.2974 20.2167 14.6277 20.835 13.8123 20.8774C9.79995 21.0875 5.78764 21.0875 1.77475 20.8774C0.959321 20.835 0.289692 20.2167 0.186323 19.4069C0.131928 18.9805 0.089692 18.5542 0.0584909 18.1278C-0.016558 19.1854 -0.0182181 20.2429 0.0538522 21.3004C0.357465 21.7606 0.868159 22.0686 1.44936 22.0989C5.67919 22.3202 9.90844 22.3202 14.1377 22.0989C14.7192 22.0686 15.23 21.7603 15.5336 21.2999C15.6057 20.2417 15.604 19.1836 15.5288 18.1255C15.498 18.5526 15.4557 18.9798 15.4007 19.4069Z" fill="#D64553"/>
<path d="M9.82495 22.1985C8.6123 22.2648 7.39966 22.2648 6.18696 22.1985C5.65625 22.1694 5.23315 21.7494 5.19043 21.2196C5.13184 20.4924 5.13184 19.7653 5.19043 19.0381C5.23311 18.5084 5.6562 18.0883 6.18691 18.0593C7.39956 17.9929 8.61226 17.9929 9.8249 18.0593C10.3556 18.0883 10.7787 18.5084 10.8214 19.0381C10.88 19.7653 10.88 20.4924 10.8214 21.2196C10.7788 21.7494 10.3557 22.1694 9.82495 22.1985Z" fill="#FFD064"/>
<path d="M8.00619 20.9078C7.50995 20.9078 7.0078 20.8959 6.5099 20.8727C6.47977 20.378 6.47977 19.8795 6.5099 19.385C7.0078 19.3617 7.51 19.3499 8.00619 19.3499C8.50238 19.3499 9.00453 19.3617 9.50243 19.385C9.53256 19.8796 9.53256 20.3781 9.50243 20.8727C9.00453 20.8959 8.50238 20.9078 8.00619 20.9078Z" fill="#DB5C6E"/>
<path d="M8.00647 21.2851C7.5054 21.2851 6.99602 21.2732 6.4925 21.2496C6.30002 21.2406 6.14529 21.088 6.13357 20.8957C6.10261 20.3868 6.10261 19.8708 6.13357 19.3621C6.14529 19.1698 6.30002 19.0172 6.4925 19.0082C6.99641 18.9846 7.50579 18.9727 8.00647 18.9727C8.50715 18.9727 9.01643 18.9846 9.52034 19.0082C9.71282 19.0171 9.86755 19.1697 9.87927 19.3621C9.91023 19.8709 9.91023 20.3869 9.87927 20.8957C9.86755 21.088 9.71282 21.2406 9.52034 21.2496C9.01682 21.2732 8.50745 21.2851 8.00647 21.2851ZM6.87092 20.5101C7.62913 20.5373 8.38357 20.5373 9.14187 20.5101C9.14998 20.2563 9.14998 20.0015 9.14187 19.7477C8.38318 19.7205 7.62961 19.7205 6.87092 19.7477C6.86282 20.0015 6.86282 20.2563 6.87092 20.5101Z" fill="#FFC250"/>
</svg>
