<svg width="17" height="17" viewBox="0 0 17 17" fill="none" xmlns="http://www.w3.org/2000/svg">
<path d="M0.504511 2.85386H8.18585C8.41736 3.90763 9.3584 4.69873 10.4807 4.69873C11.603 4.69873 12.544 3.90766 12.7755 2.85386H15.6399C15.9185 2.85386 16.1444 2.62797 16.1444 2.34935C16.1444 2.07074 15.9185 1.84484 15.6399 1.84484H12.7753C12.5433 0.79161 11.601 0 10.4807 0C9.35979 0 8.4179 0.791484 8.18604 1.84484H0.504511C0.225895 1.84484 0 2.07074 0 2.34935C0 2.62797 0.225895 2.85386 0.504511 2.85386ZM9.14039 2.35068C9.14039 2.34888 9.14042 2.34705 9.14042 2.34525C9.14263 1.60844 9.74385 1.00905 10.4807 1.00905C11.2165 1.00905 11.8177 1.60763 11.8209 2.34409L11.821 2.3515C11.8198 3.08956 11.219 3.68974 10.4807 3.68974C9.74265 3.68974 9.14203 3.09016 9.14036 2.35254L9.14039 2.35068ZM15.6399 13.3061H12.7753C12.5433 12.2529 11.601 11.4613 10.4807 11.4613C9.35979 11.4613 8.4179 12.2528 8.18604 13.3061H0.504511C0.225895 13.3061 0 13.532 0 13.8106C0 14.0893 0.225895 14.3151 0.504511 14.3151H8.18585C8.41736 15.3689 9.3584 16.16 10.4807 16.16C11.603 16.16 12.544 15.3689 12.7755 14.3151H15.6399C15.9185 14.3151 16.1444 14.0893 16.1444 13.8106C16.1444 13.532 15.9185 13.3061 15.6399 13.3061ZM10.4807 15.151C9.74265 15.151 9.14203 14.5514 9.14036 13.8138L9.14039 13.8119C9.14039 13.8101 9.14042 13.8083 9.14042 13.8065C9.14263 13.0697 9.74385 12.4703 10.4807 12.4703C11.2165 12.4703 11.8177 13.0689 11.8209 13.8053L11.821 13.8127C11.8199 14.5509 11.2191 15.151 10.4807 15.151ZM15.6399 7.57549H7.95851C7.727 6.52172 6.78596 5.73065 5.66368 5.73065C4.54139 5.73065 3.60035 6.52172 3.36884 7.57549H0.504511C0.225895 7.57549 0 7.80138 0 8.08C0 8.35865 0.225895 8.58451 0.504511 8.58451H3.36909C3.60108 9.63771 4.54338 10.4294 5.66368 10.4294C6.78457 10.4294 7.72646 9.63784 7.95832 8.58451H15.6399C15.9185 8.58451 16.1444 8.35865 16.1444 8.08C16.1444 7.80138 15.9185 7.57549 15.6399 7.57549ZM7.00397 8.07868C7.00397 8.0805 7.00394 8.0823 7.00394 8.0841C7.00173 8.82091 6.40051 9.4203 5.66368 9.4203C4.92788 9.4203 4.32663 8.82173 4.32344 8.0853L4.32335 8.07792C4.32445 7.33976 4.92529 6.73967 5.66368 6.73967C6.40171 6.73967 7.00233 7.33922 7.004 8.07688L7.00397 8.07868Z" fill="#2B388F"/>
</svg>
