<svg width="37" height="15" viewBox="0 0 37 15" fill="none" xmlns="http://www.w3.org/2000/svg">
<path d="M17.2685 7.30197V11.5821H15.9102V1.0127H19.5111C20.4237 1.0127 21.2019 1.31693 21.8386 1.92534C22.4895 2.53374 22.8149 3.27656 22.8149 4.15379C22.8149 5.05227 22.4895 5.79509 21.8386 6.39641C21.209 6.99773 20.4308 7.29489 19.5111 7.29489H17.2685V7.30197ZM17.2685 2.31442V6.00025H19.5394C20.0771 6.00025 20.5299 5.81634 20.8835 5.45551C21.2444 5.09469 21.4283 4.65611 21.4283 4.16087C21.4283 3.67272 21.2444 3.24115 20.8835 2.8804C20.5298 2.50541 20.0841 2.3215 19.5394 2.3215H17.2685V2.31442Z" fill="#383E41"/>
<path d="M26.3662 4.11133C27.3708 4.11133 28.1632 4.38016 28.7432 4.91781C29.3234 5.45547 29.6134 6.1912 29.6134 7.12509V11.5821H28.3187V10.5775H28.2622C27.7033 11.4052 26.9534 11.8156 26.0195 11.8156C25.2201 11.8156 24.5551 11.5821 24.0174 11.1081C23.4798 10.6341 23.2109 10.0469 23.2109 9.33946C23.2109 8.58956 23.4939 7.99532 24.0599 7.55666C24.6259 7.111 25.3829 6.89168 26.3238 6.89168C27.1303 6.89168 27.7953 7.04025 28.3117 7.33734V7.02609C28.3117 6.5521 28.1278 6.15594 27.7528 5.82345C27.3778 5.49095 26.9393 5.32821 26.4369 5.32821C25.68 5.32821 25.0786 5.64654 24.64 6.29035L23.4444 5.54045C24.1023 4.58532 25.0786 4.11133 26.3662 4.11133ZM24.6117 9.36063C24.6117 9.71437 24.7603 10.0115 25.0645 10.2449C25.3616 10.4784 25.7154 10.5987 26.1186 10.5987C26.6917 10.5987 27.201 10.3864 27.6467 9.96195C28.0925 9.53746 28.3188 9.04223 28.3188 8.46923C27.8943 8.13674 27.3072 7.96692 26.5502 7.96692C25.9984 7.96692 25.5385 8.10133 25.1706 8.36308C24.7956 8.63899 24.6117 8.97155 24.6117 9.36063Z" fill="#383E41"/>
<path d="M36.9998 4.34473L32.472 14.7585H31.0713L32.755 11.1151L29.7695 4.34473H31.2481L33.3988 9.53745H33.4271L35.5212 4.34473H36.9998Z" fill="#383E41"/>
<path d="M11.7522 5.16406H6.05859V7.49868L9.33765 7.4994C9.20468 8.27618 8.77665 8.93835 8.12084 9.37982V9.38026C8.12105 9.38011 8.12134 9.37997 8.12156 9.37982L8.06252 10.7752L10.0735 10.8938C10.0732 10.894 10.0729 10.8943 10.0727 10.8945H10.0727C11.2124 9.83972 11.8654 8.28044 11.8654 6.43825C11.8654 5.99533 11.8258 5.57157 11.7522 5.16406Z" fill="#0085F7"/>
<path d="M8.122 9.38023C8.12178 9.38037 8.12149 9.38052 8.12128 9.38066C7.57806 9.74683 6.8786 9.96103 6.06048 9.96103C4.47931 9.96103 3.13798 8.89561 2.65763 7.45948H2.65742C2.65749 7.4597 2.65756 7.45998 2.65763 7.4602L0.978832 7.19434L0.644531 9.02201C1.64216 11.0012 3.69219 12.3593 6.06055 12.3593C7.69715 12.3593 9.07215 11.8212 10.0732 10.8948C10.0735 10.8946 10.0738 10.8944 10.074 10.8941L8.122 9.38023Z" fill="#00A94B"/>
<path d="M2.4683 6.3007C2.4683 5.89746 2.53551 5.50765 2.65793 5.1412L2.13371 3.5791H0.644465C0.232045 4.39765 0 5.32157 0 6.3007C0 7.27982 0.232768 8.20374 0.644465 9.02229L0.644754 9.02208L2.65793 7.4602C2.65786 7.45998 2.65779 7.45977 2.65771 7.45948C2.53544 7.09331 2.4683 6.70372 2.4683 6.3007Z" fill="#FFBB00"/>
<path d="M6.06084 0.241211C3.69298 0.241211 1.64209 1.59952 0.644531 3.57902L2.65792 5.14111C3.13827 3.70497 4.4796 2.63956 6.06077 2.63956C6.95426 2.63956 7.75446 2.94734 8.3862 3.54866L10.116 1.82036C9.06543 0.841811 7.69578 0.241211 6.06084 0.241211Z" fill="#FF4031"/>
</svg>
