<svg width="14" height="14" viewBox="0 0 14 14" fill="none" xmlns="http://www.w3.org/2000/svg">
<path d="M7 14C10.866 14 14 10.866 14 7C14 3.13401 10.866 0 7 0C3.13401 0 0 3.13401 0 7C0 10.866 3.13401 14 7 14Z" fill="#585858"/>
<path d="M5.28443 9.39026L3.20344 7.12413C2.91854 6.81388 2.93489 6.32303 3.23982 6.03316C3.54474 5.74329 4.02718 5.75998 4.31208 6.07018L5.91726 7.81815L8.45806 5.40278C8.48091 5.38103 8.50479 5.36111 8.52948 5.34279L9.72432 4.20697C10.0292 3.91709 10.5117 3.93378 10.7966 4.24402C11.0815 4.55423 11.0651 5.04512 10.7602 5.33499L7.11085 8.80419L7.10695 8.79995L5.84459 10L5.28443 9.38999V9.39026Z" fill="white"/>
</svg>
