<svg width="25" height="13" viewBox="0 0 25 13" fill="none" xmlns="http://www.w3.org/2000/svg">
<path fill-rule="evenodd" clip-rule="evenodd" d="M23.5713 0.381836H1.42832C0.640772 0.381836 0 1.02295 0 1.81113V11.1893C0 11.9774 0.640772 12.6186 1.42832 12.6186H23.5713C24.3591 12.6186 25 11.9774 25 11.1893V1.81113C25 1.02295 24.3591 0.381836 23.5713 0.381836ZM23.5713 0.634864C24.2217 0.634864 24.7471 1.16084 24.7471 1.81113V11.1893C24.7471 11.8399 24.2217 12.3656 23.5713 12.3656H1.42832C0.778369 12.3656 0.252783 11.8399 0.252783 11.1893V1.81113C0.252783 1.16084 0.778418 0.634864 1.42832 0.634864H23.5713Z" fill="black"/>
<path d="M5.44946 2.97314H3.59961V10.1101H5.44946V2.97314Z" fill="black"/>
<path fill-rule="evenodd" clip-rule="evenodd" d="M9.39795 2.97314L8.96929 6.3082L8.7064 4.49546C8.62695 3.9144 8.55439 3.40566 8.48169 2.97314H6.08203V10.1101H7.70376L7.71064 5.39849L8.39185 10.1101H9.54673L10.1967 5.29478L10.2002 10.1101H11.8182V2.97314H9.39795Z" fill="black"/>
<path fill-rule="evenodd" clip-rule="evenodd" d="M14.7128 4.26021C14.7852 4.30186 14.8338 4.36763 14.8547 4.46084C14.8753 4.55078 14.8858 4.7582 14.8858 5.08008V7.84385C14.8858 8.32153 14.8547 8.61211 14.7923 8.71953C14.7301 8.82656 14.5677 8.87832 14.3013 8.87832V4.19463C14.5019 4.19468 14.6399 4.21523 14.7128 4.26021ZM14.6954 10.1101C15.138 10.1101 15.47 10.0858 15.6914 10.0374C15.9088 9.98911 16.0959 9.9061 16.2445 9.78145C16.3931 9.66011 16.5004 9.49087 16.5592 9.27642C16.6213 9.06182 16.6558 8.63316 16.6558 7.99297V5.48828C16.6558 4.81362 16.6281 4.36064 16.5903 4.12881C16.5488 3.90044 16.4451 3.68931 16.279 3.50293C16.1165 3.31572 15.8745 3.18096 15.5597 3.09814C15.245 3.01499 14.7264 2.97314 13.831 2.97314H12.4512V10.1101L14.6954 10.1101Z" fill="black"/>
<path fill-rule="evenodd" clip-rule="evenodd" d="M19.6955 8.38052C19.6955 8.72295 19.6779 8.94434 19.6434 9.03413C19.609 9.12441 19.4601 9.1689 19.3459 9.1689C19.2356 9.1689 19.1626 9.12773 19.1248 9.03794C19.0904 8.95137 19.0695 8.75068 19.0695 8.43584V6.55054C19.0695 6.2251 19.0866 6.02441 19.118 5.94141C19.1525 5.86196 19.225 5.82046 19.3321 5.82046C19.4463 5.82046 19.5982 5.86909 19.6368 5.95894C19.6746 6.0522 19.6955 6.24951 19.6955 6.55059V8.38052ZM17.2852 2.97319V10.1102H18.952L19.0695 9.65684C19.2181 9.84023 19.3841 9.975 19.5672 10.0687C19.7508 10.1584 20.0204 10.2034 20.231 10.2034C20.5217 10.2034 20.7773 10.1274 20.9883 9.97168C21.2028 9.81968 21.3379 9.63613 21.3932 9.42847C21.452 9.21758 21.4797 8.89937 21.4797 8.47368V6.47109C21.4797 6.03877 21.4726 5.75825 21.452 5.62695C21.4006 5.29932 21.1718 5.02783 20.8708 4.90015C20.6875 4.82412 20.4768 4.78594 20.2309 4.78594C20.0203 4.78594 19.747 4.82793 19.5637 4.9144C19.384 4.99717 19.2179 5.1252 19.0694 5.29478V2.97314H17.2852V2.97319Z" fill="black"/>
</svg>
