<svg width="8" height="8" viewBox="0 0 8 8" fill="none" xmlns="http://www.w3.org/2000/svg">
<path d="M5.74885 0H2.17115C0.973974 0 0 0.973974 0 2.17116V5.74885C0 6.94604 0.973974 7.92 2.17115 7.92H5.74885C6.94604 7.92 7.92 6.94603 7.92 5.74885V2.17116C7.92 0.973974 6.94604 0 5.74885 0ZM3.96 6.13231C2.76218 6.13231 1.78771 5.15782 1.78771 3.96C1.78771 2.76218 2.76219 1.78772 3.96 1.78772C5.15781 1.78772 6.13231 2.76219 6.13231 3.96C6.13231 5.15781 5.15781 6.13231 3.96 6.13231ZM6.26223 2.31778C5.89831 2.31778 5.60224 2.0217 5.60224 1.65779C5.60224 1.29387 5.89831 0.997781 6.26223 0.997781C6.62615 0.997781 6.92222 1.29385 6.92222 1.65777C6.92222 2.02169 6.62615 2.31778 6.26223 2.31778Z" fill="white"/>
</svg>
