<svg width="14" height="15" viewBox="0 0 14 15" fill="none" xmlns="http://www.w3.org/2000/svg">
<path d="M10.104 0.120117H3.81596C1.71183 0.120117 0 1.83195 0 3.9361V10.2242C0 12.3283 1.71183 14.0401 3.81596 14.0401H10.104C12.2082 14.0401 13.92 12.3283 13.92 10.2242V3.9361C13.92 1.83195 12.2082 0.120117 10.104 0.120117ZM6.96 10.8981C4.85474 10.8981 3.14203 9.18538 3.14203 7.08012C3.14203 4.97485 4.85476 3.26218 6.96 3.26218C9.06524 3.26218 10.778 4.97488 10.778 7.08012C10.778 9.18535 9.06524 10.8981 6.96 10.8981ZM11.0063 4.19378C10.3667 4.19378 9.84636 3.67341 9.84636 3.0338C9.84636 2.39419 10.3667 1.87379 11.0063 1.87379C11.646 1.87379 12.1663 2.39416 12.1663 3.03377C12.1663 3.67339 11.646 4.19378 11.0063 4.19378Z" fill="#36A7E9"/>
</svg>
