<svg width="14" height="16" viewBox="0 0 14 16" fill="none" xmlns="http://www.w3.org/2000/svg">
<path d="M10.3546 15.25C10.3546 15.4489 10.2756 15.6397 10.1349 15.7803C9.99426 15.921 9.8035 16 9.60458 16H2.53418C1.87137 15.9993 1.23591 15.7356 0.767235 15.2669C0.298555 14.7983 0.0349241 14.1628 0.0341797 13.5V2.5C0.0349241 1.83719 0.298555 1.20173 0.767235 0.733055C1.23591 0.264376 1.87137 0.000744409 2.53418 0L9.60458 0C9.8035 0 9.99426 0.0790176 10.1349 0.21967C10.2756 0.360322 10.3546 0.551088 10.3546 0.75C10.3546 0.948912 10.2756 1.13968 10.1349 1.28033C9.99426 1.42098 9.8035 1.5 9.60458 1.5H2.53418C2.26905 1.50029 2.01487 1.60574 1.82739 1.79321C1.63992 1.98069 1.53447 2.23487 1.53418 2.5V13.5C1.53446 13.7651 1.63991 14.0193 1.82738 14.2068C2.01486 14.3943 2.26905 14.4997 2.53418 14.5H9.60458C9.8035 14.5 9.99426 14.579 10.1349 14.7197C10.2756 14.8603 10.3546 15.0511 10.3546 15.25ZM13.7469 7.46969L10.1828 3.90556C10.1134 3.83464 10.0307 3.77819 9.93935 3.73946C9.84802 3.70074 9.74992 3.68052 9.65072 3.67997C9.55153 3.67942 9.45321 3.69855 9.36146 3.73626C9.26971 3.77397 9.18635 3.82951 9.11621 3.89966C9.04607 3.9698 8.99054 4.05317 8.95284 4.14492C8.91514 4.23668 8.89602 4.335 8.89658 4.4342C8.89714 4.53339 8.91738 4.63149 8.95611 4.72282C8.99485 4.81414 9.05131 4.89687 9.12224 4.96622L11.4059 7.25H5.50165C5.30274 7.25 5.11197 7.32902 4.97132 7.46967C4.83067 7.61032 4.75165 7.80109 4.75165 8C4.75165 8.19891 4.83067 8.38968 4.97132 8.53033C5.11197 8.67098 5.30274 8.75 5.50165 8.75H11.4059L9.12212 11.0337C9.05216 11.1033 8.99662 11.186 8.95868 11.2771C8.92074 11.3682 8.90114 11.4658 8.901 11.5645C8.90087 11.6632 8.9202 11.7609 8.9579 11.8521C8.99559 11.9432 9.05091 12.0261 9.12067 12.0958C9.19044 12.1656 9.27328 12.2209 9.36446 12.2586C9.45564 12.2963 9.55336 12.3157 9.65202 12.3155C9.75068 12.3154 9.84835 12.2958 9.93943 12.2578C10.0305 12.2199 10.1132 12.1644 10.1828 12.0944L13.7469 8.53034C13.8875 8.38969 13.9665 8.19893 13.9665 8.00002C13.9665 7.8011 13.8875 7.61034 13.7469 7.46969Z" fill="#C10077"/>
</svg>
