<svg width="69" height="20" viewBox="0 0 69 20" fill="none" xmlns="http://www.w3.org/2000/svg">
<g clip-path="url(#clip0_3011_24669)">
<path d="M13.0478 7.18021C14.3322 8.09781 15.9056 8.63781 17.605 8.63781V5.36941C17.2833 5.36943 16.9626 5.33592 16.6479 5.26941V7.84208C14.9487 7.84208 13.3755 7.30208 12.0907 6.38448V13.0545C12.0907 16.3911 9.38457 19.0958 6.04644 19.0958C4.80097 19.0958 3.64324 18.7194 2.68164 18.0739C3.77911 19.1957 5.30991 19.8915 7.00324 19.8915C10.3416 19.8915 13.0479 17.1869 13.0479 13.8502V7.18008L13.0478 7.18021ZM14.2284 3.88288C13.5532 3.14732 13.1383 2.21022 13.0478 1.21581V0.79541H12.1408C12.3691 2.09701 13.1478 3.20888 14.2284 3.88288ZM4.79297 15.5134C4.42626 15.0328 4.22805 14.4449 4.22897 13.8403C4.22897 12.3143 5.46671 11.077 6.99391 11.077C7.27844 11.077 7.56137 11.1205 7.83257 11.2065V7.86514C7.51563 7.82168 7.19575 7.80323 6.87591 7.80994V10.4109C6.60454 10.3248 6.32152 10.2812 6.03684 10.2814C4.50964 10.2814 3.27191 11.5186 3.27191 13.0449C3.27191 14.1239 3.89057 15.0582 4.79297 15.5134Z" fill="#FF004F"/>
<path d="M12.0909 6.38448C13.3757 7.30208 14.9489 7.84194 16.6482 7.84194V5.26928C15.717 5.07022 14.8712 4.58556 14.2286 3.88288C13.1479 3.20888 12.3693 2.09688 12.141 0.79541H9.75885V13.8498C9.75352 15.3717 8.51765 16.6039 6.99392 16.6039C6.09592 16.6039 5.29805 16.1761 4.79285 15.5134C3.89072 15.0582 3.27192 14.1239 3.27192 13.0449C3.27192 11.5187 4.50965 10.2814 6.03685 10.2814C6.32938 10.2814 6.61152 10.327 6.87592 10.4109V7.81008C3.59645 7.87781 0.958984 10.5561 0.958984 13.8499C0.958984 15.4942 1.61578 16.9847 2.68178 18.0739C3.67668 18.742 4.84836 19.0977 6.04672 19.0957C9.38485 19.0957 12.091 16.3909 12.091 13.0543V6.38448H12.0909Z" fill="black"/>
<path d="M16.648 5.26933V4.57373C15.7926 4.57504 14.9542 4.33565 14.2285 3.88293C14.8709 4.58586 15.7167 5.0706 16.648 5.26947V5.26933ZM12.1409 0.795733C12.1191 0.671397 12.1024 0.546227 12.0908 0.420533V0H8.80155V13.0545C8.79622 14.5761 7.56075 15.8084 6.03675 15.8084C5.60472 15.8091 5.17858 15.7081 4.79275 15.5137C5.29809 16.1764 6.09582 16.6041 6.99382 16.6041C8.51742 16.6041 9.75342 15.372 9.75875 13.8501V0.7956H12.1409V0.795733ZM6.87595 7.8104V7.06987C6.60111 7.03229 6.32402 7.01349 6.04662 7.0136C2.70822 7.01333 0.00195312 9.71813 0.00195312 13.0545C0.00195312 15.1461 1.06555 16.9896 2.68182 18.074C1.61582 16.9849 0.95902 15.4943 0.95902 13.85C0.95902 10.5563 3.59635 7.878 6.87595 7.81027V7.8104Z" fill="#00F2EA"/>
<path d="M54.7603 16.3608C57.1488 16.3608 59.0852 14.4401 59.0852 12.0709C59.0852 9.70183 57.1488 7.78076 54.7603 7.78076H54.1084C56.4971 7.78076 58.4335 9.70183 58.4335 12.0709C58.4335 14.4401 56.4971 16.3608 54.1084 16.3608H54.7601H54.7603Z" fill="#FF004F"/>
<path d="M54.0492 7.78076H53.3976C51.0091 7.78076 49.0723 9.70183 49.0723 12.0709C49.0723 14.4401 51.0091 16.3608 53.3976 16.3608H54.0492C51.6603 16.3608 49.7239 14.4401 49.7239 12.0709C49.7239 9.70183 51.6603 7.78076 54.0492 7.78076Z" fill="#00F2EA"/>
<path d="M35.5652 5.84193V10.7189L38.0531 8.25086H41.0744L37.9344 11.3069L41.43 16.3607H38.7643L36.3355 12.8933L35.5652 13.599V16.3021H33.0768V5.84193H35.5652ZM62.4031 5.84193V10.7189L64.8915 8.25086H67.9128L64.7728 11.3069L68.2686 16.361H65.6024L63.1731 12.8935L62.4031 13.5993V16.3023H59.9143V5.84193H62.4031ZM54.1084 7.78086C56.4971 7.78086 58.4338 9.70193 58.4338 12.071C58.4338 14.4402 56.4971 16.3609 54.1084 16.3609H54.0495C51.6608 16.3609 49.7244 14.4402 49.7244 12.071C49.7244 9.70193 51.6608 7.78086 54.0495 7.78086H54.1084ZM29.0485 5.84193L28.3375 8.07513H26.2641V16.3022H23.716V8.01646H21.1689V5.8418H29.0484L29.0485 5.84193ZM49.9025 5.84193L49.1917 8.07513H47.1184V16.3022H44.5703V8.01646H42.0232V5.8418H49.9025V5.84193ZM32.0101 9.19166V16.3023H29.5227V9.19166H32.0101ZM54.0795 9.98513C52.9179 9.98513 51.9757 10.9186 51.9757 12.071C51.9757 13.2234 52.9179 14.1573 54.0795 14.1575C55.2404 14.1575 56.1824 13.2234 56.1824 12.071C56.1824 10.9186 55.2404 9.98513 54.0795 9.98513ZM30.7659 5.84193C31.4535 5.84193 32.0101 6.3946 32.0101 7.07593C32.0101 7.75726 31.4539 8.30993 30.7659 8.30993C30.0788 8.30966 29.5227 7.7574 29.5227 7.07593C29.5227 6.3946 30.0788 5.84193 30.7659 5.84193Z" fill="black"/>
</g>
<defs>
<clipPath id="clip0_3011_24669">
<rect width="68.27" height="20" fill="white"/>
</clipPath>
</defs>
</svg>
