<svg width="71" height="20" viewBox="0 0 71 20" fill="none" xmlns="http://www.w3.org/2000/svg">
<g clip-path="url(#clip0_3011_24667)">
<path d="M3.71748 0.123701C2.28639 0.723153 0.713375 2.41452 0.216526 4.53918C-0.412789 7.23028 2.20557 8.36863 2.4205 7.99589C2.67324 7.5574 1.95132 7.40918 1.80269 6.01274C1.61064 4.20918 2.44913 2.19397 3.50447 1.30973C3.70036 1.14534 3.69118 1.37411 3.69118 1.79699C3.69118 2.55329 3.6494 9.34288 3.6494 10.7599C3.6494 12.6771 3.57022 13.2826 3.4279 13.881C3.28392 14.4871 3.05214 14.8969 3.22762 15.0547C3.42379 15.2311 4.26132 14.8112 4.74612 14.1347C5.32749 13.3232 5.53105 12.3484 5.56762 11.2901C5.61173 10.0142 5.60981 7.98959 5.61173 6.8348C5.61338 5.77576 5.62954 2.67452 5.5931 0.810139C5.5842 0.352605 4.31598 -0.127121 3.71748 0.123701ZM54.5316 9.09671C54.4854 10.0936 54.2647 10.8726 53.9909 11.4222C53.4608 12.4862 52.3608 12.8164 51.8936 11.2871C51.6391 10.4534 51.6272 9.0611 51.8101 7.89767C51.9964 6.7126 52.5167 5.81754 53.3779 5.89822C54.2275 5.97808 54.6252 7.07274 54.5316 9.09685V9.09671ZM40.2097 15.2811C40.1982 16.9373 39.9375 18.3893 39.3786 18.8112C38.5857 19.4093 37.5201 18.9606 37.7408 17.7521C37.936 16.6826 38.8594 15.5904 40.212 14.2559C40.212 14.2559 40.2147 14.5603 40.2097 15.2811ZM39.9932 9.08699C39.9447 9.99493 39.7094 10.9069 39.4526 11.4222C38.9224 12.4862 37.8145 12.8188 37.3553 11.2871C37.0413 10.2406 37.1165 8.8863 37.2717 8.03288C37.4734 6.92562 37.9621 5.89836 38.8395 5.89836C39.6927 5.89836 40.1135 6.83439 39.9932 9.08699ZM31.6967 9.07329C31.6446 10.0347 31.4571 10.8384 31.1561 11.4222C30.6115 12.4789 29.5339 12.814 29.0589 11.2871C28.7163 10.1862 28.8328 8.68507 28.9753 7.87411C29.1868 6.67069 29.7164 5.81754 30.5431 5.89836C31.3923 5.98137 31.805 7.07274 31.6967 9.07329ZM69.7176 10.1963C69.5101 10.1963 69.4153 10.4103 69.3368 10.7703C69.0652 12.0229 68.7793 12.3055 68.4109 12.3055C67.9993 12.3055 67.6294 11.6855 67.5342 10.4441C67.4595 9.46795 67.4716 7.67096 67.5671 5.88343C67.5867 5.51617 67.4853 5.15274 66.5002 4.79493C66.0764 4.64096 65.4602 4.41425 65.1534 5.1548C64.2867 7.24713 63.9475 8.90822 63.8676 9.58274C63.8635 9.61767 63.8206 9.62493 63.8132 9.54329C63.7623 9.00288 63.6487 8.02069 63.6345 5.9574C63.6317 5.5548 63.5465 5.21219 63.1021 4.93165C62.8138 4.74945 61.9383 4.42754 61.6231 4.81069C61.3499 5.12384 61.0335 5.96685 60.7049 6.9663C60.4378 7.77863 60.2517 8.32795 60.2517 8.32795C60.2517 8.32795 60.2553 6.13644 60.2584 5.30507C60.2598 4.99151 60.0447 4.88699 59.9798 4.86808C59.688 4.78343 59.1127 4.64192 58.8686 4.64192C58.5672 4.64192 58.4935 4.81014 58.4935 5.05562C58.4935 5.08781 58.446 7.94096 58.446 9.93603C58.446 10.0227 58.446 10.1173 58.4464 10.2178C58.2798 11.1348 57.7394 12.3795 57.1517 12.3795C56.5632 12.3795 56.2857 11.8592 56.2857 9.48069C56.2857 8.09315 56.3273 7.48973 56.3478 6.48617C56.3597 5.90808 56.3827 5.46425 56.3813 5.36356C56.3769 5.05466 55.843 4.89891 55.5943 4.84137C55.3446 4.78343 55.1276 4.76082 54.9582 4.77055C54.7183 4.78425 54.5486 4.94137 54.5486 5.15781C54.5486 5.27397 54.5499 5.49452 54.5499 5.49452C54.241 5.00904 53.7442 4.67124 53.4136 4.57329C52.5232 4.30891 51.5942 4.54315 50.8934 5.52384C50.3364 6.30288 50.0006 7.18548 49.8684 8.45329C49.7719 9.38028 49.8034 10.3201 49.9752 11.1151C49.7676 12.0121 49.3826 12.3795 48.9608 12.3795C48.3484 12.3795 47.9046 11.3803 47.9561 9.65178C47.9901 8.51493 48.2176 7.71713 48.4663 6.56288C48.5723 6.07082 48.4861 5.81329 48.2701 5.56644C48.0719 5.34 47.6495 5.22425 47.0427 5.36644C46.6104 5.46795 45.9921 5.57713 45.4265 5.66096C45.4265 5.66096 45.4608 5.52466 45.4887 5.28466C45.6358 4.02576 44.2678 4.12781 43.8312 4.52987C43.5708 4.77 43.3934 5.05315 43.3261 5.56219C43.2193 6.37014 43.8782 6.75124 43.8782 6.75124C43.6621 7.74082 43.1321 9.03343 42.585 9.96808C42.292 10.4688 42.0679 10.8399 41.7784 11.2342C41.769 9.65153 41.7793 8.06876 41.8094 6.4863C41.8213 5.90822 41.8445 5.47617 41.8432 5.37534C41.84 5.14959 41.708 5.06411 41.4336 4.95617C41.1909 4.86055 40.9041 4.79452 40.6064 4.77123C40.2308 4.74219 40.0045 4.94124 40.0105 5.17685C40.0116 5.22137 40.0116 5.49452 40.0116 5.49452C39.7027 5.00904 39.2058 4.67124 38.8753 4.57329C37.9849 4.30891 37.0558 4.54315 36.355 5.52384C35.7982 6.30288 35.4335 7.3963 35.3301 8.4437C35.2339 9.41973 35.2516 10.2492 35.3828 10.9481C35.2413 11.6478 34.8342 12.3796 34.3741 12.3796C33.7856 12.3796 33.4508 11.8592 33.4508 9.48069C33.4508 8.09315 33.4924 7.48973 33.513 6.48617C33.5249 5.90822 33.5478 5.46425 33.5465 5.36356C33.5421 5.05466 33.008 4.89904 32.7594 4.84137C32.4994 4.7811 32.2749 4.75918 32.1024 4.77192C31.875 4.78877 31.715 4.99247 31.715 5.14439V5.49452C31.4061 5.00904 30.9093 4.67124 30.5787 4.57329C29.6883 4.30891 28.7645 4.54699 28.0584 5.52384C27.5982 6.16069 27.2254 6.86671 27.0336 8.42973C26.9782 8.88137 26.9536 9.30452 26.9569 9.69973C26.7734 10.8225 25.9624 12.1164 25.2993 12.1164C24.9112 12.1164 24.5415 11.3636 24.5415 9.75932C24.5415 7.62233 24.6738 4.57959 24.6963 4.28644C24.6963 4.28644 25.5342 4.27219 25.6964 4.27028C26.1145 4.26562 26.493 4.27562 27.0498 4.24699C27.329 4.23288 27.598 3.23055 27.3098 3.10658C27.1791 3.05041 26.256 3.00137 25.8899 2.99356C25.5823 2.98671 24.7256 2.92315 24.7256 2.92315C24.7256 2.92315 24.8024 0.903564 24.8204 0.690276C24.8354 0.512331 24.6053 0.420824 24.4735 0.365345C24.1527 0.229728 23.8657 0.16466 23.5256 0.0945228C23.0554 -0.0024635 22.8423 0.092468 22.8006 0.489043C22.7379 1.0911 22.7054 2.85452 22.7054 2.85452C22.3605 2.85452 21.1821 2.78713 20.8372 2.78713C20.5167 2.78713 20.1706 4.16576 20.6139 4.18274C21.1238 4.20247 22.0124 4.21973 22.6015 4.23726C22.6015 4.23726 22.5752 7.33014 22.5752 8.28521C22.5752 8.38658 22.5757 8.48452 22.5763 8.57945C22.252 10.2692 21.1101 11.1821 21.1101 11.1821C21.3553 10.0641 20.8543 9.22452 19.952 8.51384C19.6195 8.25206 18.9632 7.7563 18.229 7.21302C18.229 7.21302 18.6542 6.79384 19.0315 5.95055C19.2986 5.35302 19.3102 4.66959 18.6542 4.51877C17.5704 4.26945 16.6768 5.06548 16.4102 5.91534C16.2036 6.5737 16.3138 7.06206 16.7184 7.56945C16.7479 7.60658 16.7801 7.64452 16.813 7.68261C16.5684 8.15411 16.2323 8.78904 15.9476 9.28137C15.1575 10.6485 14.5606 11.7296 14.1095 11.7296C13.749 11.7296 13.7538 10.6318 13.7538 9.60398C13.7538 8.71795 13.8193 7.38576 13.8716 6.00671C13.8889 5.55055 13.6606 5.29069 13.2784 5.05535C13.0461 4.91233 12.5504 4.63124 12.2632 4.63124C11.8334 4.63124 10.5934 4.68973 9.42187 8.07877C9.2742 8.50589 8.98406 9.28425 8.98406 9.28425L9.00913 5.20877C9.00913 5.11315 8.95817 5.02082 8.84159 4.95767C8.6442 4.85041 8.11694 4.63124 7.64803 4.63124C7.42475 4.63124 7.3131 4.73507 7.3131 4.94219L7.27228 11.3184C7.27228 11.8029 7.28488 12.3681 7.33283 12.6152C7.3805 12.8626 7.4579 13.064 7.55351 13.1837C7.64927 13.3033 7.75981 13.3947 7.94214 13.4322C8.11187 13.4671 9.04118 13.5864 9.08954 13.2314C9.14735 12.8056 9.14968 12.3453 9.63762 10.6284C10.3973 7.95521 11.3878 6.6511 11.8535 6.18781C11.935 6.10699 12.0279 6.10206 12.0234 6.23452C12.0036 6.82055 11.9337 8.28521 11.8867 9.52904C11.7605 12.8585 12.3661 13.4756 13.2317 13.4756C13.8939 13.4756 14.8273 12.8177 15.8279 11.1522C16.3854 10.2241 16.9403 9.29437 17.4927 8.36315C17.7958 8.64384 18.1363 8.94589 18.4763 9.26863C19.2667 10.0188 19.5261 10.7316 19.3539 11.4078C19.2224 11.9247 18.7264 12.4574 17.8438 11.9397C17.5865 11.7886 17.4767 11.6718 17.218 11.5015C17.0791 11.4101 16.8669 11.3827 16.7397 11.4786C16.4093 11.7277 16.2202 12.0447 16.1123 12.437C16.0073 12.8188 16.3897 13.0205 16.7861 13.1971C17.1273 13.349 17.8609 13.4867 18.3286 13.5023C20.1512 13.5633 21.6113 12.6223 22.6278 10.1951C22.8097 12.2914 23.5839 13.4775 24.9293 13.4775C25.8287 13.4775 26.7305 12.3149 27.1249 11.1712C27.238 11.6374 27.4057 12.0429 27.6221 12.3858C28.6587 14.0282 30.6697 13.6748 31.6798 12.28C31.9921 11.849 32.0397 11.6942 32.0397 11.6942C32.1871 13.0111 33.2476 13.4712 33.8547 13.4712C34.5349 13.4712 35.2369 13.1497 35.7291 12.0418C35.7868 12.1621 35.8498 12.277 35.9186 12.3858C36.9552 14.0282 38.9662 13.6748 39.9764 12.28C40.0241 12.2145 40.0654 12.1553 40.1015 12.1019L40.131 12.967L39.201 13.82C37.6421 15.2488 36.458 16.3323 36.3709 17.5944C36.2599 19.2036 37.5643 19.8016 38.5526 19.88C39.6001 19.9632 40.4989 19.384 41.0504 18.5734C41.5358 17.8599 41.8536 16.3242 41.8302 14.8077C41.821 14.2003 41.8056 13.4281 41.7936 12.6003C42.3409 11.9648 42.9575 11.1615 43.5252 10.2215C44.1438 9.19699 44.8068 7.8211 45.1463 6.75028C45.1463 6.75028 45.7223 6.75534 46.3371 6.71507C46.5336 6.70219 46.5902 6.74247 46.5538 6.88644C46.5099 7.06069 45.7771 9.88713 46.446 11.77C46.9036 13.059 47.9356 13.4736 48.5473 13.4736C49.2636 13.4736 49.9487 12.9327 50.3158 12.1297C50.3602 12.2192 50.4064 12.3058 50.4569 12.3859C51.4935 14.0284 53.4975 13.6726 54.5147 12.28C54.7443 11.9658 54.8746 11.6942 54.8746 11.6942C55.0928 13.0573 56.1528 13.4782 56.7599 13.4782C57.3923 13.4782 57.9926 13.2189 58.4794 12.0667C58.5 12.5741 58.5319 12.9889 58.5824 13.1196C58.6132 13.1997 58.793 13.3 58.9236 13.3485C59.5023 13.563 60.0921 13.4616 60.3105 13.4175C60.4617 13.3869 60.5797 13.2655 60.5958 12.9523C60.6383 12.1297 60.6123 10.7477 60.8616 9.72041C61.2801 7.99671 61.6706 7.32808 61.8558 6.99713C61.9595 6.81151 62.0764 6.78096 62.0806 6.97726C62.0894 7.37452 62.1091 8.54069 62.2713 10.1078C62.3905 11.2601 62.5494 11.9414 62.6717 12.1571C63.0208 12.7736 63.4516 12.8027 63.8025 12.8027C64.0258 12.8027 64.4927 12.7411 64.4509 12.3488C64.4305 12.1575 64.4661 10.9756 64.8789 9.2774C65.1483 8.16836 65.5976 7.16644 65.7597 6.8C65.8195 6.66493 65.8473 6.77137 65.8462 6.79219C65.8121 7.55589 65.7356 10.054 66.0467 11.4203C66.4686 13.2711 67.6886 13.4782 68.1138 13.4782C69.0215 13.4782 69.7638 12.7878 70.0138 10.9711C70.0741 10.5338 69.9849 10.1963 69.7176 10.1963Z" fill="#343433"/>
</g>
<defs>
<clipPath id="clip0_3011_24667">
<rect width="70.14" height="20" fill="white"/>
</clipPath>
</defs>
</svg>
