<svg width="21" height="21" viewBox="0 0 21 21" fill="none" xmlns="http://www.w3.org/2000/svg">
<path d="M8.80662 12.8091C8.64916 12.8091 8.4917 12.749 8.37161 12.6289C8.13134 12.3886 8.13134 11.9991 8.37161 11.7588L14.5827 5.5476C14.823 5.30737 15.2125 5.30737 15.4528 5.5476C15.6931 5.78783 15.6931 6.1774 15.4528 6.41767L9.24163 12.6289C9.12154 12.749 8.96408 12.8091 8.80662 12.8091Z" fill="#FFB454"/>
<path d="M8.37112 12.6289C8.49126 12.749 8.64872 12.8091 8.80614 12.8091C8.96355 12.8091 9.12105 12.749 9.24115 12.6289L15.4523 6.41767C15.6925 6.17744 15.6925 5.78788 15.4523 5.54761L8.37112 12.6289C8.37108 12.6289 8.37108 12.6289 8.37112 12.6289Z" fill="#FF8659"/>
<path d="M15.8672 9.33271C15.8353 9.33271 15.8031 9.33021 15.7709 9.32512C15.5396 9.28845 15.3491 9.12369 15.2796 8.90008L14.5256 6.47417L12.0996 5.72009C11.876 5.65057 11.7112 5.46014 11.6746 5.22881C11.638 4.99748 11.7358 4.76546 11.927 4.63023L14.0012 3.16339L13.9687 0.623123C13.9657 0.388965 14.0959 0.173387 14.3045 0.0670746C14.5132 -0.0393199 14.7642 -0.0178277 14.9518 0.1222L16.9878 1.64154L19.3936 0.8257C19.6155 0.750395 19.8607 0.807694 20.0263 0.973315C20.1919 1.13889 20.2491 1.38417 20.1739 1.60594L19.358 4.01179L20.8774 6.04777C21.0174 6.23546 21.0388 6.48639 20.9325 6.69504C20.8262 6.90372 20.6106 7.03432 20.3765 7.03091L17.8362 6.99847L16.3694 9.07259C16.253 9.23731 16.0649 9.33271 15.8672 9.33271Z" fill="#FFDD54"/>
<path d="M0.360404 20.6397C-0.120135 20.1591 -0.120135 19.38 0.360404 18.8995L7.75601 11.5039C7.99628 11.2637 8.38581 11.2637 8.62608 11.5039L9.49614 12.374C9.73641 12.6143 9.73641 13.0038 9.49614 13.2441L2.10053 20.6397C1.61999 21.1202 0.840943 21.1202 0.360404 20.6397Z" fill="#6B61B1"/>
<path d="M20.3848 13.125H19.7695V12.5098C19.7695 12.17 19.4941 11.8945 19.1543 11.8945C18.8145 11.8945 18.5391 12.17 18.5391 12.5098V13.125H17.9238C17.5841 13.125 17.3086 13.4005 17.3086 13.7402C17.3086 14.08 17.5841 14.3555 17.9238 14.3555H18.5391V14.9707C18.5391 15.3105 18.8145 15.5859 19.1543 15.5859C19.4941 15.5859 19.7695 15.3105 19.7695 14.9707V14.3555H20.3848C20.7245 14.3555 21 14.08 21 13.7402C21 13.4005 20.7245 13.125 20.3848 13.125Z" fill="#FFB454"/>
<path d="M14.2324 13.7402C14.5722 13.7402 14.8477 13.4648 14.8477 13.125C14.8477 12.7852 14.5722 12.5098 14.2324 12.5098C13.8926 12.5098 13.6172 12.7852 13.6172 13.125C13.6172 13.4648 13.8926 13.7402 14.2324 13.7402Z" fill="#FFB454"/>
<path d="M19.1543 10.459C19.4941 10.459 19.7695 10.1835 19.7695 9.84375C19.7695 9.50397 19.4941 9.22852 19.1543 9.22852C18.8145 9.22852 18.5391 9.50397 18.5391 9.84375C18.5391 10.1835 18.8145 10.459 19.1543 10.459Z" fill="#FFB454"/>
<path d="M8.44922 6.97266H7.83398V6.35742C7.83398 6.01765 7.55852 5.74219 7.21875 5.74219C6.87898 5.74219 6.60352 6.01765 6.60352 6.35742V6.97266H5.98828C5.64851 6.97266 5.37305 7.24812 5.37305 7.58789C5.37305 7.92766 5.64851 8.20312 5.98828 8.20312H6.60352V8.81836C6.60352 9.15813 6.87898 9.43359 7.21875 9.43359C7.55852 9.43359 7.83398 9.15813 7.83398 8.81836V8.20312H8.44922C8.78899 8.20312 9.06445 7.92766 9.06445 7.58789C9.06445 7.24812 8.78899 6.97266 8.44922 6.97266Z" fill="#FFDD54"/>
<path d="M11.3203 1.23047H10.7051V0.615234C10.7051 0.275461 10.4296 0 10.0898 0C9.75007 0 9.47461 0.275461 9.47461 0.615234V1.23047H8.85938C8.5196 1.23047 8.24414 1.50593 8.24414 1.8457C8.24414 2.18548 8.5196 2.46094 8.85938 2.46094H9.47461V3.07617C9.47461 3.41595 9.75007 3.69141 10.0898 3.69141C10.4296 3.69141 10.7051 3.41595 10.7051 3.07617V2.46094H11.3203C11.6601 2.46094 11.9355 2.18548 11.9355 1.8457C11.9355 1.50593 11.6601 1.23047 11.3203 1.23047Z" fill="#FFDD54"/>
<path d="M5.7832 4.30664C6.12299 4.30664 6.39844 4.03119 6.39844 3.69141C6.39844 3.35162 6.12299 3.07617 5.7832 3.07617C5.44342 3.07617 5.16797 3.35162 5.16797 3.69141C5.16797 4.03119 5.44342 4.30664 5.7832 4.30664Z" fill="#FFDD54"/>
<path d="M14.5254 6.47412L15.2795 8.90003C15.3489 9.12364 15.5394 9.28845 15.7707 9.32507C15.8029 9.33016 15.8351 9.33266 15.8671 9.33266C16.0647 9.33266 16.2529 9.23726 16.3693 9.07266L17.8361 6.99854L20.3764 7.03099C20.6105 7.03439 20.8261 6.90376 20.9324 6.69511C21.0388 6.48646 21.0174 6.23553 20.8773 6.04784L19.3579 4.01187L20.1738 1.60601C20.249 1.38424 20.1918 1.13897 20.0262 0.973389L14.5254 6.47412Z" fill="#FFB454"/>
<path d="M0.360352 20.6397C0.840891 21.1202 1.61998 21.1202 2.10048 20.6397L9.49609 13.2441C9.73636 13.0038 9.73636 12.6143 9.49609 12.374L9.06104 11.939L0.360352 20.6397Z" fill="#453D81"/>
</svg>
