<svg width="40" height="25" viewBox="0 0 40 25" fill="none" xmlns="http://www.w3.org/2000/svg">
<path d="M14 2.00195V22.002L20 21.502L26 22.002V2.00195L20 2.50195L14 2.00195Z" fill="#FF5F00"/>
<path d="M15.292 12.0015C15.2994 10.1731 15.7279 8.37109 16.5444 6.73517C17.3609 5.09925 18.5433 3.67347 20 2.56849C17.8083 0.897531 15.127 -0.00465528 12.371 0.00148716C10.7706 -0.0235212 9.18097 0.267099 7.69295 0.856739C6.20492 1.44638 4.84768 2.32348 3.6988 3.43791C2.54992 4.55234 1.63191 5.88225 0.997251 7.35163C0.36259 8.82102 0.0237175 10.4011 0 12.0015C0.0237175 13.6019 0.36259 15.182 0.997251 16.6513C1.63191 18.1207 2.54992 19.4506 3.6988 20.5651C4.84768 21.6795 6.20492 22.5566 7.69295 23.1462C9.18097 23.7359 10.7706 24.0265 12.371 24.0015C15.127 24.0076 17.8083 23.1054 20 21.4345C18.5408 20.3318 17.3566 18.9065 16.5398 17.2701C15.7231 15.6336 15.296 13.8304 15.292 12.0015Z" fill="#EB001B"/>
<path d="M40 12.0012C39.9763 13.6016 39.6374 15.1817 39.0027 16.6511C38.3681 18.1205 37.4501 19.4504 36.3012 20.5648C35.1523 21.6792 33.7951 22.5563 32.3071 23.146C30.819 23.7356 29.2294 24.0262 27.629 24.0012C24.873 24.0074 22.1917 23.1052 20 21.4342C21.462 20.3342 22.6484 18.9095 23.4654 17.2724C24.2825 15.6354 24.7078 13.8308 24.708 12.0012C24.7006 10.1729 24.2721 8.37083 23.4556 6.73491C22.6391 5.09899 21.4567 3.67321 20 2.56822C22.1917 0.897267 24.873 -0.00491959 27.629 0.00122285C30.8598 -0.0444946 33.9768 1.19329 36.296 3.44299C38.6153 5.69269 39.9474 8.77054 40 12.0012Z" fill="#F79E1B"/>
</svg>
