<svg width="12" height="11" viewBox="0 0 12 11" fill="none" xmlns="http://www.w3.org/2000/svg">
<g clip-path="url(#clip0_4469_1591)">
<path d="M11.6484 0.5H0.351562C0.157379 0.5 0 0.657379 0 0.851562V10.1667C0 10.3609 0.157379 10.5182 0.351562 10.5182H11.6484C11.8426 10.5182 12 10.3609 12 10.1667V0.851562C12 0.657379 11.8426 0.5 11.6484 0.5ZM4.51273 6.68933V4.32892C4.51273 4.1601 4.60904 4.0062 4.76404 3.92728C4.92151 3.84717 5.11313 3.85788 5.25888 3.95328L7.27048 5.12753C7.28073 5.13348 7.29062 5.13998 7.30023 5.14694C7.41916 5.23355 7.48737 5.36557 7.48737 5.50912C7.48737 5.65268 7.41916 5.7847 7.30023 5.87131C7.29062 5.87827 7.28073 5.88477 7.27048 5.89072L5.25888 7.06497C5.17831 7.11761 5.08392 7.14444 4.98889 7.14444C4.9119 7.14444 4.83453 7.12677 4.76404 7.09088C4.60895 7.01205 4.51273 6.85815 4.51273 6.68933ZM8.2554 1.81525V1.20312H9.43506V1.81525H8.2554ZM7.55228 1.81525H6.37253V1.20312H7.55228V1.81525ZM5.6694 1.81525H4.48975V1.20312H5.6694V1.81525ZM3.78662 1.81525H2.60696V1.20312H3.78662V1.81525ZM3.78662 9.203V9.81512H2.60696V9.203H3.78662ZM4.48975 9.203H5.6694V9.81512H4.48975V9.203ZM6.37253 9.203H7.55228V9.81512H6.37253V9.203ZM8.2554 9.203H9.43506V9.81512H8.2554V9.203ZM11.2969 1.81525H10.1382V1.20312H11.2969V1.81525ZM1.90384 1.20312V1.81525H0.703125V1.20312H1.90384ZM0.703125 9.203H1.90384V9.81512H0.703125V9.203ZM10.1382 9.81512V9.203H11.2969V9.81512H10.1382Z" fill="black"/>
</g>
<defs>
<clipPath id="clip0_4469_1591">
<rect width="12" height="10" fill="white" transform="translate(0 0.5)"/>
</clipPath>
</defs>
</svg>
