<svg width="25" height="25" viewBox="0 0 25 25" fill="none" xmlns="http://www.w3.org/2000/svg">
<g clip-path="url(#clip0_2955_25439)">
<path d="M25 5.22322V17.6744C25 19.2901 23.3579 20.6041 21.3379 20.6041C20.3789 20.6041 19.5044 20.3077 18.8516 19.8238C18.1289 19.2882 17.6758 18.523 17.6758 17.6744C17.6758 16.8258 18.1289 16.0606 18.8516 15.525C19.5044 15.0411 20.3789 14.7447 21.3379 14.7447C22.1655 14.7447 22.9214 14.9737 23.5352 15.3453V9.26375L18.8516 11.2711L14.7461 13.0304V22.0689C14.7461 23.6847 13.104 24.9986 11.084 24.9986C9.06396 24.9986 7.42188 23.6847 7.42188 22.0689C7.42188 20.4532 9.06396 19.1392 11.084 19.1392C11.9116 19.1392 12.6675 19.3682 13.2812 19.7398V9.61776C13.2812 9.3243 13.4556 9.05965 13.7246 8.9449L23.9785 4.55037C24.2061 4.45125 24.4663 4.47664 24.6709 4.6119C24.877 4.74764 25 4.97713 25 5.22322Z" fill="#FF8FB8"/>
<path d="M11.7188 8.05526C11.7188 9.76908 10.21 11.3365 10.0342 11.4976C9.75586 11.7906 9.28721 11.7906 9.00884 11.4976C8.71587 11.2193 8.71587 10.7505 9.00884 10.4722C9.3457 10.1206 10.2539 9.00736 10.2539 8.05526C10.2539 6.48787 8.64263 4.20272 7.32422 2.63533V13.1822C7.32422 13.2993 7.30957 13.4459 7.29487 13.5923C7.14844 14.3834 6.62109 15.0718 5.85938 15.5259C5.25884 15.8921 4.48242 16.1119 3.66211 16.1119C1.64062 16.1119 0 14.7935 0 13.1822C0 11.5708 1.64062 10.2525 3.66211 10.2525C4.49707 10.2525 5.24419 10.4868 5.85938 10.8531V0.731036C5.85938 0.438068 6.03516 0.174396 6.31348 0.0571595C6.5918 -0.0600768 6.91401 0.0132631 7.10444 0.218292C7.58794 0.687042 11.7188 4.92049 11.7188 8.05526Z" fill="#979FEF"/>
<path d="M11.7188 8.05526C11.7188 9.76907 10.21 11.3365 10.0342 11.4976C9.75586 11.7906 9.28721 11.7906 9.00884 11.4976C8.71587 11.2193 8.71587 10.7505 9.00884 10.4722C9.3457 10.1206 10.2539 9.00736 10.2539 8.05526C10.2539 6.48787 8.64263 4.20272 7.32422 2.63533V13.1822C7.32422 13.2993 7.30957 13.4459 7.29487 13.5923C7.14844 14.3834 6.62109 15.0718 5.85938 15.5259V0.731036C5.85938 0.438068 6.03516 0.174396 6.31348 0.0571595C6.5918 -0.0600768 6.91401 0.0132631 7.10444 0.218292C7.58794 0.687042 11.7188 4.92049 11.7188 8.05526Z" fill="#6B77E8"/>
<path d="M24.6709 4.6119C24.4663 4.47664 24.2061 4.45125 23.9785 4.55037L18.8516 6.74764V11.2711L23.5352 9.26375V15.3453C22.9214 14.9737 22.1655 14.7447 21.3379 14.7447C20.3789 14.7447 19.5044 15.0411 18.8516 15.525C18.1289 16.0606 17.6758 16.8258 17.6758 17.6744C17.6758 18.523 18.1289 19.2882 18.8516 19.8238C19.5044 20.3077 20.3789 20.6041 21.3379 20.6041C23.3579 20.6041 25 19.2901 25 17.6744V5.22322C25 4.97713 24.877 4.74764 24.6709 4.6119Z" fill="#FF5F96"/>
</g>
<defs>
<clipPath id="clip0_2955_25439">
<rect width="25" height="25" fill="white"/>
</clipPath>
</defs>
</svg>
