<svg width="15" height="15" viewBox="0 0 15 15" fill="none" xmlns="http://www.w3.org/2000/svg">
<path d="M14.3737 13.4081L14.3765 13.435L14.3816 13.4616C14.3939 13.525 14.4 13.5823 14.4 13.6364C14.4 14.1086 14.0612 14.4 13.75 14.4H7.5H1.25C0.938821 14.4 0.6 14.1086 0.6 13.6364C0.6 13.5822 0.606089 13.525 0.618389 13.4616L0.623544 13.435L0.626287 13.4081L1.84691 1.42444L1.85 1.39411V1.36364C1.85 0.891387 2.18882 0.6 2.5 0.6H7.5H12.5C12.8112 0.6 13.15 0.891387 13.15 1.36364V1.39411L13.1531 1.42444L14.3737 13.4081ZM11.225 4.09091V3.68887C11.6119 3.38861 11.85 2.90875 11.85 2.38636C11.85 1.54066 11.2094 0.763636 10.3125 0.763636C9.41555 0.763636 8.775 1.54066 8.775 2.38636V4.09091C8.775 4.93748 8.1543 5.53636 7.5 5.53636C6.8457 5.53636 6.225 4.93748 6.225 4.09091V2.38636C6.225 1.54066 5.58445 0.763636 4.6875 0.763636C3.79055 0.763636 3.15 1.54066 3.15 2.38636C3.15 2.90875 3.38809 3.38861 3.775 3.68887V4.09091C3.775 6.25184 5.39743 8.1 7.5 8.1C9.60257 8.1 11.225 6.25184 11.225 4.09091Z" fill="#BBBBBB" stroke="#BBBBBB" stroke-width="1.2"/>
</svg>
