<svg width="19" height="19" viewBox="0 0 19 19" fill="none" xmlns="http://www.w3.org/2000/svg">
<path fill-rule="evenodd" clip-rule="evenodd" d="M14.25 19H4.75C3.49024 18.9999 2.28209 18.4995 1.3913 17.6087C0.500518 16.7179 5.51109e-05 15.5098 0 14.25L0 4.75C5.51109e-05 3.49024 0.500518 2.28209 1.3913 1.3913C2.28209 0.500518 3.49024 5.51109e-05 4.75 0L14.25 0C15.5098 0 16.718 0.500445 17.6088 1.39124C18.4996 2.28204 19 3.49022 19 4.75V14.25C19 15.5098 18.4996 16.718 17.6088 17.6088C16.718 18.4996 15.5098 19 14.25 19Z" fill="#2D2D2D"/>
<path fill-rule="evenodd" clip-rule="evenodd" d="M8.90625 5.34375H14.25C14.935 5.34371 15.5938 5.08062 16.0903 4.60881C16.5869 4.137 16.8833 3.49251 16.9184 2.80844C16.9534 2.12437 16.7244 1.45295 16.2787 0.93286C15.833 0.412766 15.2045 0.0837134 14.5231 0.0136563C14.4323 0.00860937 14.3423 0 14.25 0H4.75C3.49024 5.51109e-05 2.28209 0.500518 1.3913 1.3913C0.500518 2.28209 5.51109e-05 3.49024 0 4.75L0 14.25C5.5113e-05 11.8879 0.938407 9.62262 2.60864 7.95239C4.27887 6.28216 6.54418 5.34381 8.90625 5.34375Z" fill="#464646"/>
<path fill-rule="evenodd" clip-rule="evenodd" d="M14.25 9.5C13.3105 9.5 12.3922 9.77858 11.611 10.3005C10.8299 10.8225 10.2211 11.5643 9.86157 12.4323C9.50206 13.3002 9.40799 14.2553 9.59127 15.1767C9.77455 16.0981 10.2269 16.9445 10.8912 17.6088C11.5555 18.2731 12.4019 18.7255 13.3233 18.9087C14.2447 19.092 15.1998 18.9979 16.0677 18.6384C16.9357 18.2789 17.6775 17.6701 18.1995 16.889C18.7214 16.1078 19 15.1895 19 14.25V4.75C19 6.00978 18.4996 7.21796 17.6088 8.10876C16.718 8.99956 15.5098 9.5 14.25 9.5Z" fill="#141414"/>
<path fill-rule="evenodd" clip-rule="evenodd" d="M8.01562 3.5625C8.09436 3.5625 8.16987 3.59378 8.22555 3.64945C8.28122 3.70513 8.3125 3.78064 8.3125 3.85938V15.5368C8.31249 15.6126 8.28345 15.6856 8.23133 15.7407C8.17922 15.7958 8.10798 15.8289 8.03225 15.8331C7.47828 15.863 7.08255 15.8961 6.59686 15.9512C6.51388 15.9604 6.4299 15.952 6.35039 15.9265C6.27088 15.9011 6.19763 15.8591 6.13541 15.8035C6.07319 15.7478 6.02341 15.6797 5.98931 15.6035C5.95521 15.5273 5.93756 15.4447 5.9375 15.3612V3.85938C5.9375 3.78064 5.96878 3.70513 6.02445 3.64945C6.08013 3.59378 6.15564 3.5625 6.23438 3.5625H8.01562Z" fill="#D20014"/>
<path fill-rule="evenodd" clip-rule="evenodd" d="M13.0625 3.85938C13.0625 3.7019 12.9999 3.55088 12.8886 3.43953C12.7772 3.32818 12.6262 3.26562 12.4688 3.26562H11.2812C11.1238 3.26562 10.9728 3.32818 10.8614 3.43953C10.7501 3.55088 10.6875 3.7019 10.6875 3.85938V15.4375C10.6875 15.5162 10.7188 15.5917 10.7745 15.6474C10.8301 15.7031 10.9056 15.7344 10.9844 15.7344H12.7656C12.8444 15.7344 12.9199 15.7031 12.9755 15.6474C13.0312 15.5917 13.0625 15.5162 13.0625 15.4375V3.85938Z" fill="#D20014"/>
<path d="M8.62273 3.65884C8.58135 3.54373 8.50546 3.4442 8.40541 3.37382C8.30536 3.30345 8.18604 3.26567 8.06372 3.26563H6.53066C6.45276 3.26561 6.37562 3.28095 6.30365 3.31075C6.23168 3.34056 6.16629 3.38425 6.11121 3.43933C6.05612 3.49441 6.01243 3.55981 5.98263 3.63178C5.95282 3.70375 5.93749 3.78088 5.9375 3.85878V3.85768C5.9375 3.83341 5.94607 3.80992 5.9617 3.79134C5.97732 3.77277 5.999 3.76031 6.02292 3.75615C6.04683 3.75199 6.07144 3.7564 6.09242 3.76861C6.1134 3.78082 6.1294 3.80004 6.13759 3.82289C6.9065 5.96567 9.6618 13.6441 10.3066 15.4409C10.3465 15.552 10.4187 15.6486 10.5138 15.7186C10.6089 15.7885 10.7227 15.8284 10.8407 15.8334C11.4552 15.8619 12.0552 15.9175 12.4765 15.9626C12.5502 15.9706 12.6249 15.963 12.6955 15.9403C12.7662 15.9176 12.8312 15.8803 12.8865 15.8307C12.9417 15.7812 12.9859 15.7206 13.0162 15.6528C13.0465 15.5851 13.0622 15.5117 13.0622 15.4375H13.0625V15.4391C13.0625 15.4634 13.0539 15.4869 13.0383 15.5055C13.0227 15.524 13.001 15.5365 12.9771 15.5407C12.9532 15.5448 12.9286 15.5404 12.9076 15.5282C12.8866 15.516 12.8706 15.4968 12.8624 15.4739C12.0864 13.3115 9.28506 5.50475 8.62273 3.65884Z" fill="#FF0A1E"/>
</svg>
