<svg width="56" height="61" viewBox="0 0 56 61" fill="none" xmlns="http://www.w3.org/2000/svg">
<path d="M25.3048 60.7227C29.8857 60.7227 33.7189 57.4584 34.5991 53.1323H16.0068C16.8908 57.4584 20.7239 60.7227 25.3048 60.7227Z" fill="#2B388F"/>
<path d="M43.047 30.3613C43.0349 30.3613 43.0275 30.3613 43.0164 30.3613C33.2514 30.3613 25.3043 22.4179 25.3043 12.6492C25.3043 9.96592 25.9233 7.42716 26.9972 5.14227C26.4394 5.08946 25.877 5.05518 25.3043 5.05518C15.5245 5.05518 7.59229 12.9828 7.59229 22.7672V29.822C7.59229 34.8282 5.3982 39.5536 1.55021 42.8096C0.26786 43.9066 -0.301972 45.6522 0.1576 47.3525C0.700562 49.3372 2.65467 50.601 4.71162 50.601H45.8896C48.0448 50.601 50.0795 49.2047 50.5159 47.094C50.8532 45.4623 50.2732 43.8269 49.0047 42.7642C45.3235 39.675 43.1989 35.1432 43.047 30.3613Z" fill="#2B388F"/>
<path d="M55.6659 12.6493C55.6659 19.6356 50.0028 25.2987 43.0165 25.2987C36.0303 25.2987 30.3672 19.6356 30.3672 12.6493C30.3672 5.66311 36.0303 0 43.0165 0C50.0028 0 55.6659 5.66311 55.6659 12.6493Z" fill="#C10077"/>
</svg>
