<svg width="13" height="14" viewBox="0 0 13 14" fill="none" xmlns="http://www.w3.org/2000/svg">
<path d="M5.83417 14.0003C6.89034 14.0003 7.77411 13.2477 7.97705 12.2502H3.69043C3.89423 13.2477 4.778 14.0003 5.83417 14.0003Z" fill="#2B388F"/>
<path d="M9.92488 7.00008C9.9221 7.00008 9.92039 7.00008 9.91783 7.00008C7.66642 7.00008 5.83415 5.16867 5.83415 2.91641C5.83415 2.29775 5.97685 1.71241 6.22445 1.18561C6.09584 1.17343 5.96617 1.16553 5.83415 1.16553C3.57933 1.16553 1.75047 2.99331 1.75047 5.2492V6.87575C1.75047 8.02998 1.24461 9.11947 0.357416 9.87015C0.0617576 10.1231 -0.0696225 10.5256 0.0363361 10.9176C0.161521 11.3751 0.612059 11.6665 1.08631 11.6665H10.5803C11.0772 11.6665 11.5463 11.3446 11.6469 10.858C11.7247 10.4818 11.5909 10.1047 11.2985 9.85968C10.4498 9.14745 9.95991 8.10261 9.92488 7.00008Z" fill="#2B388F"/>
<path d="M12.8338 2.91642C12.8338 4.52717 11.5281 5.83285 9.9174 5.83285C8.30666 5.83285 7.00098 4.52717 7.00098 2.91642C7.00098 1.30568 8.30666 0 9.9174 0C11.5281 0 12.8338 1.30568 12.8338 2.91642Z" fill="#C10077"/>
</svg>
