<svg width="16" height="18" viewBox="0 0 16 18" fill="none" xmlns="http://www.w3.org/2000/svg">
<path d="M15.0343 12.6848C13.9002 11.7263 13.25 10.3253 13.25 8.841V6.75C13.25 4.11075 11.2895 1.926 8.75 1.56V0.75C8.75 0.33525 8.414 0 8 0C7.586 0 7.25 0.33525 7.25 0.75V1.56C4.70975 1.926 2.75 4.11075 2.75 6.75V8.841C2.75 10.3253 2.09975 11.7263 0.959 12.6908C0.66725 12.9405 0.5 13.3035 0.5 13.6875C0.5 14.4113 1.08875 15 1.8125 15H14.1875C14.9113 15 15.5 14.4113 15.5 13.6875C15.5 13.3035 15.3327 12.9405 15.0343 12.6848Z" fill="white"/>
<path d="M7.99964 18C9.35789 18 10.4941 17.0317 10.7551 15.75H5.24414C5.50514 17.0317 6.64139 18 7.99964 18Z" fill="white"/>
</svg>
