<svg width="21" height="21" viewBox="0 0 21 21" fill="none" xmlns="http://www.w3.org/2000/svg">
<g clip-path="url(#clip0_569_4888)">
<path d="M19.6045 10.7721C19.52 10.5992 19.52 10.4009 19.6045 10.2281L20.3878 8.62582C20.8238 7.73369 20.4783 6.67037 19.6012 6.20497L18.0258 5.36907C17.8558 5.27892 17.7393 5.11847 17.706 4.92902L17.3979 3.17237C17.2263 2.19432 16.3216 1.53709 15.3386 1.67617L13.5728 1.92595C13.3822 1.95286 13.1937 1.89158 13.0554 1.75783L11.7737 0.517855C11.06 -0.172598 9.94188 -0.172639 9.22822 0.517855L7.9464 1.75796C7.8081 1.89175 7.61963 1.9529 7.42908 1.92608L5.66324 1.67629C4.6799 1.53713 3.77551 2.19444 3.60394 3.17249L3.29583 4.92906C3.26257 5.11855 3.14604 5.27896 2.97612 5.36916L1.40072 6.20505C0.523562 6.67041 0.178049 7.73382 0.614124 8.62594L1.39731 10.2282C1.4818 10.401 1.4818 10.5993 1.39731 10.7722L0.614083 12.3744C0.178008 13.2665 0.523521 14.3298 1.40068 14.7952L2.97608 15.6311C3.14604 15.7213 3.26257 15.8817 3.29583 16.0712L3.60394 17.8278C3.76013 18.7182 4.52359 19.3426 5.40103 19.3425C5.48745 19.3425 5.57514 19.3365 5.66328 19.324L7.42912 19.0742C7.61955 19.0472 7.80814 19.1086 7.94644 19.2423L9.22822 20.4823C9.58513 20.8276 10.0429 21.0002 10.5009 21.0001C10.9588 21.0001 11.4169 20.8275 11.7736 20.4823L13.0554 19.2423C13.1937 19.1086 13.3823 19.0475 13.5728 19.0742L15.3386 19.324C16.3221 19.4631 17.2263 18.8058 17.3979 17.8278L17.7061 16.0712C17.7393 15.8817 17.8558 15.7213 18.0258 15.6311L19.6012 14.7952C20.4783 14.3299 20.8238 13.2665 20.3878 12.3743L19.6045 10.7721ZM8.07851 5.04973C9.30291 5.04973 10.299 6.04587 10.299 7.27026C10.299 8.49465 9.30291 9.49079 8.07851 9.49079C6.85412 9.49079 5.85798 8.49465 5.85798 7.27026C5.85798 6.04587 6.85412 5.04973 8.07851 5.04973ZM6.93238 14.925C6.81413 15.0432 6.65914 15.1024 6.50418 15.1024C6.34922 15.1024 6.19419 15.0433 6.07598 14.925C5.83948 14.6885 5.83948 14.3051 6.07598 14.0686L14.0694 6.07511C14.3059 5.83862 14.6894 5.83862 14.9259 6.07511C15.1624 6.31161 15.1624 6.69506 14.9259 6.93155L6.93238 14.925ZM12.9233 15.9505C11.6989 15.9505 10.7027 14.9543 10.7027 13.7299C10.7027 12.5055 11.6989 11.5094 12.9233 11.5094C14.1476 11.5094 15.1438 12.5055 15.1438 13.7299C15.1438 14.9543 14.1476 15.9505 12.9233 15.9505Z" fill="#C10077"/>
<path d="M12.9234 12.7207C12.3669 12.7207 11.9141 13.1735 11.9141 13.73C11.9141 14.2866 12.3668 14.7393 12.9234 14.7393C13.48 14.7393 13.9327 14.2866 13.9327 13.73C13.9327 13.1735 13.48 12.7207 12.9234 12.7207Z" fill="#C10077"/>
<path d="M8.07767 6.26099C7.52113 6.26099 7.06836 6.71376 7.06836 7.2703C7.06836 7.82684 7.52113 8.27965 8.07767 8.27965C8.63421 8.27965 9.08703 7.82688 9.08703 7.2703C9.08698 6.7138 8.63421 6.26099 8.07767 6.26099Z" fill="#C10077"/>
</g>
<defs>
<clipPath id="clip0_569_4888">
<rect width="21" height="21" fill="white"/>
</clipPath>
</defs>
</svg>
