<svg width="21" height="21" viewBox="0 0 21 21" fill="none" xmlns="http://www.w3.org/2000/svg">
<path d="M19.6875 15.0938V5.90625L10.5 10.5V19.6875L19.6875 15.0938Z" fill="#B5806B"/>
<path d="M1.3125 5.90625V15.0938L10.5 19.6875V10.5L1.3125 5.90625Z" fill="#D4977C"/>
<path d="M19.6875 5.90625L10.5 10.5L1.3125 5.90625L10.5 1.3125L19.6875 5.90625Z" fill="#B5806B"/>
<path d="M19.6875 5.90625L10.5 10.5V1.3125L19.6875 5.90625Z" fill="#9B6856"/>
<path d="M5.90625 11.1562L7.21875 12.4688V8.85938L4.59375 7.54688V11.1562H5.90625Z" fill="#F3F9FF"/>
<path d="M16.1273 4.12769L7.21875 8.85925L4.59375 7.54675L13.5023 2.81519L16.1273 4.12769Z" fill="#F3F9FF"/>
<path d="M16.1273 4.12769L10.5 7.1169V4.40987L13.5023 2.81519L16.1273 4.12769Z" fill="#D8E2EF"/>
<path d="M19.8342 5.61249L10.6467 1.01874C10.6011 0.995979 10.5509 0.984131 10.5 0.984131C10.4491 0.984131 10.3989 0.995979 10.3533 1.01874L1.16583 5.61249C1.11129 5.63974 1.06542 5.68166 1.03337 5.73353C1.00131 5.78541 0.984351 5.84518 0.98438 5.90616V15.0937C0.984046 15.1549 1.00086 15.215 1.03293 15.2672C1.065 15.3194 1.11104 15.3616 1.16583 15.389L10.3533 19.9827C10.3989 20.0055 10.4491 20.0173 10.5 20.0173C10.5509 20.0173 10.6011 20.0055 10.6467 19.9827L19.8342 15.389C19.889 15.3616 19.935 15.3194 19.9671 15.2672C19.9991 15.215 20.016 15.1549 20.0156 15.0937V5.90616C20.0157 5.84518 19.9987 5.78541 19.9666 5.73353C19.9346 5.68166 19.8887 5.63974 19.8342 5.61249ZM10.5 10.1331L7.93505 8.85042L16.1336 4.49522L18.9555 5.90616L10.5 10.1331ZM5.31005 7.53792L13.5086 3.18272L15.4117 4.13428L7.21416 8.49014L5.31005 7.53792ZM4.92188 8.07769L6.89063 9.06207V11.6766L6.13824 10.9242C6.07672 10.8626 5.99327 10.8281 5.90625 10.828H4.92188V8.07769ZM10.5 1.67925L12.7877 2.82178L4.58916 7.17764L2.04619 5.90616L10.5 1.67925ZM1.64063 6.43707L4.26563 7.74957V11.1562C4.26563 11.2432 4.3002 11.3266 4.36174 11.3882C4.42327 11.4497 4.50673 11.4843 4.59376 11.4843H5.77041L6.98677 12.7006C7.03266 12.7465 7.09112 12.7778 7.15476 12.7904C7.2184 12.8031 7.28437 12.7966 7.34431 12.7717C7.40426 12.7469 7.4555 12.7049 7.49156 12.6509C7.52761 12.597 7.54687 12.5335 7.54688 12.4687V9.39019L10.1719 10.7027V19.1565L1.64063 14.8909V6.43707ZM10.8281 19.1565V10.7027L19.3594 6.43707V14.8909L10.8281 19.1565Z" fill="black"/>
</svg>
