<svg width="19" height="19" viewBox="0 0 19 19" fill="none" xmlns="http://www.w3.org/2000/svg">
<path d="M4.2526 18.2443C4.04444 18.2443 3.83772 18.1793 3.6613 18.0517C3.33267 17.8136 3.17916 17.4042 3.2686 17.0092L4.49092 11.6248L0.345582 7.98949C0.0408715 7.72348 -0.0755331 7.30222 0.0495693 6.91676C0.174672 6.53203 0.515043 6.25965 0.918038 6.2224L6.40283 5.72445L8.57132 0.649758C8.73121 0.276915 9.09536 0.0361328 9.49995 0.0361328C9.90453 0.0361328 10.2687 0.276915 10.4286 0.648888L12.5971 5.72445L18.081 6.2224C18.4848 6.25878 18.8252 6.53203 18.9503 6.91676C19.0754 7.30149 18.9597 7.72348 18.655 7.98949L14.5097 11.6241L15.732 17.0083C15.8216 17.4042 15.6679 17.8136 15.3395 18.051C15.0117 18.2885 14.5746 18.3067 14.2295 18.0993L9.49995 15.273L4.77041 18.1009C4.61052 18.1958 4.43236 18.2443 4.2526 18.2443V18.2443ZM9.49995 14.0554C9.6797 14.0554 9.85771 14.1037 10.0178 14.1987L14.4813 16.8683L13.3277 11.7863C13.2453 11.4247 13.3681 11.047 13.6476 10.8023L17.5617 7.36963L12.3832 6.89937C12.0104 6.8653 11.6897 6.6309 11.5441 6.28734L9.49995 1.49837L7.45337 6.28806C7.30928 6.6293 6.98862 6.86371 6.61665 6.89777L1.43744 7.36803L5.35142 10.8007C5.63177 11.0462 5.75441 11.4231 5.67135 11.7856L4.51861 16.8674L8.98214 14.1987C9.14203 14.1037 9.32019 14.0554 9.49995 14.0554V14.0554ZM6.36093 5.82259C6.36093 5.82259 6.36093 5.82346 6.36006 5.82418L6.36093 5.82259ZM12.6374 5.82027L12.6382 5.82186C12.6382 5.821 12.6382 5.821 12.6374 5.82027Z" fill="#585858"/>
</svg>
