<svg width="14" height="12" viewBox="0 0 14 12" fill="none" xmlns="http://www.w3.org/2000/svg">
<path d="M8.73808 6.11793L9.53323 5.32278C9.59109 5.53923 9.625 5.76553 9.625 6.00003C9.625 7.4475 8.44747 8.62503 7 8.62503C6.7655 8.62503 6.5392 8.59112 6.32275 8.53326L7.11791 7.73811C7.98733 7.67882 8.6788 6.98736 8.73808 6.11793ZM13.9449 5.78751C13.8911 5.69071 13.1278 4.35339 11.636 3.22004L10.9993 3.85671C12.0871 4.65657 12.7764 5.58943 13.0478 6.00068C12.5292 6.79026 10.4951 9.50003 7 9.50003C6.47587 9.50003 5.9885 9.43298 5.52989 9.32601L4.81097 10.0449C5.47192 10.2476 6.19839 10.375 7 10.375C11.5799 10.375 13.8505 6.3824 13.9449 6.21254C14.0184 6.08031 14.0184 5.91975 13.9449 5.78751ZM12.1218 1.49684L2.49681 11.1218C2.41139 11.2073 2.29939 11.25 2.1875 11.25C2.07561 11.25 1.96361 11.2073 1.87819 11.1218C1.70723 10.9509 1.70723 10.6741 1.87819 10.5032L3.10275 9.27865C1.12306 8.08351 0.117141 6.32421 0.055125 6.21254C-0.018375 6.08031 -0.018375 5.91964 0.055125 5.7874C0.149516 5.61765 2.42014 1.62503 7 1.62503C8.1842 1.62503 9.20992 1.89518 10.0868 2.29462L11.5032 0.878215C11.6741 0.707262 11.951 0.707262 12.1218 0.878215C12.2927 1.04917 12.2928 1.326 12.1218 1.49684ZM3.75517 8.62623L4.86281 7.51859C4.55689 7.0894 4.375 6.56604 4.375 6.00003C4.375 4.55256 5.55253 3.37503 7 3.37503C7.56602 3.37503 8.08938 3.55692 8.51856 3.86273L9.41423 2.96706C8.70658 2.68367 7.90245 2.50003 7 2.50003C3.50492 2.50003 1.47077 5.20979 0.952328 5.99937C1.28155 6.49834 2.22786 7.7614 3.75517 8.62623ZM5.49795 6.88334L7.88331 4.49798C7.62311 4.34431 7.32353 4.25003 7 4.25003C6.03509 4.25003 5.25 5.03512 5.25 6.00003C5.25 6.32356 5.34428 6.62314 5.49795 6.88334Z" fill="#BBBBBB"/>
</svg>
