<svg width="19" height="23" viewBox="0 0 19 23" fill="none" xmlns="http://www.w3.org/2000/svg">
<path d="M16.8682 5.1198C16.7325 5.03988 16.5656 5.03432 16.4249 5.10497C16.2844 5.1758 16.1894 5.31307 16.1726 5.46952C16.1559 5.62166 16.1299 5.77375 16.0974 5.93333C15.1893 10.0546 13.3657 12.0591 10.5208 12.0591H6.3466C6.1265 12.0595 5.93701 12.2145 5.89301 12.4301L4.50163 18.952L4.25305 20.6124C4.11012 21.3675 4.60633 22.0954 5.36133 22.2383C5.44459 22.2541 5.52908 22.2622 5.61382 22.2626H8.40585C9.0458 22.2646 9.60374 21.8278 9.75549 21.2061L10.8834 16.6971H13.3035C16.1596 16.6971 18.1335 14.4199 18.8616 10.2847C19.3423 8.31559 18.5471 6.25539 16.8682 5.1198Z" fill="#03A9F4"/>
<path d="M15.9933 1.653C15.0769 0.613417 13.7616 0.0124258 12.3757 3.37771e-05H4.69531C3.54589 -0.00614049 2.56732 0.834821 2.40048 1.97206L0.0156482 17.8811C-0.0985757 18.6411 0.424802 19.3497 1.18472 19.4639C1.25368 19.4743 1.32338 19.4795 1.39312 19.4794H4.95506C5.17516 19.479 5.36465 19.324 5.40865 19.1084L6.72121 12.9863H10.5243C13.8247 12.9863 16.0055 10.6794 17.0073 6.12212C17.0475 5.94046 17.0785 5.75689 17.1 5.57205C17.3326 4.1661 16.9269 2.72962 15.9933 1.653Z" fill="#283593"/>
</svg>
