<svg width="10" height="10" viewBox="0 0 10 10" fill="none" xmlns="http://www.w3.org/2000/svg">
<path d="M0.497299 6.45967C0.456552 6.50042 0.429138 6.55226 0.417512 6.60815L0.00566994 8.66811C-0.0135301 8.76357 0.0167633 8.86203 0.0854569 8.93136C0.140817 8.98672 0.215377 9.01637 0.291751 9.01637C0.310311 9.01637 0.329618 9.01467 0.348818 9.01061L2.40813 8.59877C2.4652 8.58704 2.51704 8.55973 2.55725 8.51888L7.16634 3.90979L5.10702 1.85059L0.497299 6.45967Z" fill="white"/>
<path d="M8.59011 0.426002C8.02222 -0.142001 7.09827 -0.142001 6.5308 0.426002L5.72461 1.23219L7.78392 3.29151L8.59011 2.48521C8.8651 2.21086 9.01657 1.84499 9.01657 1.45587C9.01657 1.06675 8.8651 0.700883 8.59011 0.426002Z" fill="white"/>
</svg>
