<svg width="13" height="13" viewBox="0 0 13 13" fill="none" xmlns="http://www.w3.org/2000/svg">
<path d="M12.6325 9.54068L10.8183 7.72649C10.1704 7.07857 9.06893 7.33776 8.80976 8.18004C8.61539 8.7632 7.96746 9.08716 7.38433 8.95755C6.08848 8.63359 4.33909 6.94898 4.01513 5.58834C3.82075 5.00519 4.2095 4.35726 4.79263 4.16291C5.63494 3.90374 5.89411 2.80227 5.24618 2.15435L3.43199 0.34016C2.91365 -0.113387 2.13615 -0.113387 1.6826 0.34016L0.451543 1.57122C-0.779513 2.86706 0.581128 6.30106 3.62637 9.3463C6.67161 12.3915 10.1056 13.817 11.4015 12.5211L12.6325 11.2901C13.0861 10.7717 13.0861 9.99423 12.6325 9.54068Z" fill="#585858"/>
</svg>
