<svg width="25" height="25" viewBox="0 0 25 25" fill="none" xmlns="http://www.w3.org/2000/svg">
<path d="M20.7943 0.99242H3.21332C2.3611 0.99242 1.54377 1.33097 0.94116 1.93358C0.338545 2.5362 0 3.35352 0 4.20574V21.7867C0 22.6389 0.338545 23.4562 0.94116 24.0588C1.54377 24.6615 2.3611 25 3.21332 25H20.7943C21.6465 25 22.4638 24.6615 23.0664 24.0588C23.669 23.4562 24.0076 22.6389 24.0076 21.7867V4.20574C24.0076 3.35352 23.669 2.5362 23.0664 1.93358C22.4638 1.33097 21.6465 0.99242 20.7943 0.99242ZM3.21332 23.1533C2.85088 23.1533 2.50328 23.0093 2.247 22.753C1.99072 22.4967 1.84674 22.1491 1.84674 21.7867V4.20574C1.84674 3.8433 1.99072 3.49571 2.247 3.23942C2.50328 2.98314 2.85088 2.83916 3.21332 2.83916H20.7943C21.1567 2.83916 21.5043 2.98314 21.7606 3.23942C22.0169 3.49571 22.1608 3.8433 22.1608 4.20574V21.7867C22.1608 22.1491 22.0169 22.4967 21.7606 22.753C21.5043 23.0093 21.1567 23.1533 20.7943 23.1533H3.21332Z" fill="#BBBBBB"/>
<path d="M0.923041 4.61199C0.790038 4.61241 0.658652 4.64117 0.537642 4.69637C0.416633 4.75156 0.308782 4.83193 0.221281 4.93209C0.142524 5.0249 0.0828946 5.13237 0.0458222 5.2483C0.00874973 5.36424 -0.00503422 5.48637 0.00526355 5.60765C0.0155613 5.72894 0.0497376 5.84699 0.105826 5.95502C0.161915 6.06304 0.238809 6.15892 0.332085 6.23712L6.63561 11.5557C7.10625 11.9529 7.70866 12.1594 8.32401 12.1343C8.93936 12.1092 9.52297 11.8545 9.95974 11.4203L12.9515 8.42858C13.063 8.33321 13.2049 8.2808 13.3516 8.2808C13.4983 8.2808 13.6402 8.33321 13.7517 8.42858L16.6572 10.5339C17.0878 10.8653 17.6159 11.045 18.1593 11.045C18.7026 11.045 19.2307 10.8653 19.6613 10.5339L23.6625 7.34516C23.7579 7.26917 23.8374 7.17514 23.8965 7.06843C23.9555 6.96172 23.993 6.84443 24.0067 6.72325C24.0204 6.60206 24.0101 6.47936 23.9764 6.36215C23.9427 6.24495 23.8863 6.13553 23.8103 6.04013C23.7343 5.94475 23.6402 5.86526 23.5335 5.80621C23.4268 5.74716 23.3095 5.7097 23.1884 5.69599C23.0672 5.68227 22.9445 5.69255 22.8273 5.72625C22.7101 5.75995 22.6006 5.81641 22.5052 5.8924L18.5163 9.09341C18.4086 9.17627 18.2766 9.2212 18.1408 9.2212C18.0049 9.2212 17.8729 9.17627 17.7653 9.09341L14.8597 6.84039C14.3868 6.48526 13.8019 6.31223 13.2118 6.35292C12.6218 6.39361 12.0661 6.64531 11.6464 7.062L8.65471 10.1153C8.5416 10.2174 8.39464 10.2739 8.24227 10.2739C8.0899 10.2739 7.94295 10.2174 7.82984 10.1153L1.514 4.82129C1.34908 4.68187 1.13894 4.60744 0.923041 4.61199Z" fill="#BBBBBB"/>
<path d="M15.6982 13.3039C15.0286 13.3039 14.374 13.5025 13.8172 13.8745C13.2604 14.2466 12.8265 14.7753 12.5702 15.394C12.314 16.0126 12.2469 16.6934 12.3776 17.3501C12.5082 18.0069 12.8306 18.6102 13.3041 19.0837C13.7776 19.5572 14.3809 19.8796 15.0377 20.0103C15.6944 20.1409 16.3752 20.0739 16.9938 19.8176C17.6125 19.5613 18.1413 19.1274 18.5133 18.5706C18.8853 18.0138 19.0839 17.3593 19.0839 16.6896C19.0839 15.7917 18.7272 14.9305 18.0922 14.2956C17.4573 13.6607 16.5961 13.3039 15.6982 13.3039ZM15.6982 18.2286C15.3938 18.2286 15.0963 18.1383 14.8432 17.9692C14.5901 17.8001 14.3929 17.5598 14.2764 17.2786C14.1599 16.9974 14.1294 16.6879 14.1888 16.3894C14.2482 16.0909 14.3948 15.8167 14.61 15.6014C14.8252 15.3862 15.0994 15.2396 15.398 15.1803C15.6965 15.1209 16.0059 15.1514 16.2871 15.2678C16.5683 15.3843 16.8087 15.5816 16.9778 15.8346C17.1469 16.0877 17.2371 16.3853 17.2371 16.6896C17.2371 17.0978 17.075 17.4892 16.7864 17.7778C16.4978 18.0664 16.1063 18.2286 15.6982 18.2286Z" fill="#BBBBBB"/>
</svg>
