<svg width="70" height="70" viewBox="0 0 70 70" fill="none" xmlns="http://www.w3.org/2000/svg">
<path d="M29.5671 0.825693C28.97 3.1694 27.5242 4.89638 25.8545 5.54019C24.9196 5.90066 24.9246 7.22114 25.8586 7.58235C27.5281 8.22793 28.9704 9.9603 29.5628 12.3054C29.8422 13.4115 31.4061 13.4113 31.6862 12.3054C32.2798 9.9608 33.7218 8.23222 35.3925 7.5909C36.3279 7.23182 36.3334 5.91111 35.4008 5.54873C33.7323 4.90044 32.2819 3.16983 31.6858 0.825693C31.5649 0.35015 31.1577 -2.89347e-05 30.6265 1.79321e-09C30.0953 2.89383e-05 29.6825 0.372816 29.5671 0.825693ZM63.4663 5.46756C62.8691 7.81127 61.4233 9.53824 59.7536 10.1821C58.8187 10.5425 58.8238 11.8631 59.7577 12.2242C61.4272 12.8698 62.8695 14.6022 63.4619 16.9473C63.7413 18.0534 65.3052 18.0532 65.5852 16.9473C66.1789 14.6027 67.6208 12.8741 69.2915 12.2328C70.227 11.8737 70.2343 10.5534 69.2998 10.1906C67.6312 9.54278 66.1809 7.81173 65.585 5.46756C65.4639 4.99139 65.0558 4.64087 64.5257 4.64087C63.9955 4.64087 63.5818 5.01407 63.4663 5.46756ZM4.41144 18.3144C3.81435 20.6581 2.36848 22.3851 0.698763 23.0289C-0.236094 23.3894 -0.231114 24.7099 0.702897 25.0711C2.37234 25.7167 3.81472 27.449 4.40705 29.7941C4.68645 30.9002 6.25039 30.9 6.53041 29.7941C7.12406 27.4495 8.56606 25.7209 10.2367 25.0796C11.1722 24.7205 11.1796 23.4003 10.245 23.0374C8.5765 22.3896 7.12611 20.6586 6.53016 18.3144C6.40911 17.8382 6.00096 17.4877 5.4708 17.4877C4.94064 17.4877 4.52697 17.8609 4.41144 18.3144ZM32.2652 20.7795C30.1444 20.7795 28.4371 22.4868 28.4371 24.6075C28.4371 26.7282 30.1444 28.4355 32.2652 28.4355H63.9832C66.104 28.4355 67.8113 26.7282 67.8113 24.6075C67.8113 22.4868 66.104 20.7795 63.9832 20.7795H32.2652ZM20.7832 28.4334C9.3196 28.4334 0.000236472 37.7522 0.000236472 49.216C0.000236472 60.6798 9.3196 69.9987 20.7832 69.9987C32.2468 69.9987 41.564 60.6798 41.564 49.216C41.564 37.7522 32.2468 28.4334 20.7832 28.4334ZM34.2027 30.6229C36.9858 32.6395 39.3175 35.2449 40.9701 38.2789H57.4209C59.5416 38.2789 61.2489 36.5716 61.2489 34.4509C61.2489 32.3302 59.5416 30.6229 57.4209 30.6229H34.2027ZM20.7768 33.3593C29.546 33.3593 36.6422 40.4707 36.6422 49.216C36.6422 57.9614 29.5279 65.0727 20.7768 65.0727C12.0256 65.0727 4.922 57.9614 4.922 49.216C4.922 40.4707 12.0075 33.3593 20.7768 33.3593ZM20.7768 35.5468C13.2352 35.5468 7.10947 41.6528 7.10947 49.216C7.10947 56.7793 13.238 62.8853 20.7768 62.8853C28.3156 62.8853 34.4548 56.7793 34.4548 49.216C34.4548 41.6528 28.3184 35.5468 20.7768 35.5468ZM42.0121 40.4663C42.9988 42.8464 43.5977 45.4236 43.7254 48.1223H66.1724C68.2932 48.1223 70.0005 46.415 70.0005 44.2943C70.0005 42.1736 68.2932 40.4663 66.1724 40.4663H42.0121ZM43.7254 50.3097C43.5977 53.0085 42.9988 55.5856 42.0121 57.9657H66.1724C68.2932 57.9657 70.0005 56.2584 70.0005 54.1377C70.0005 52.017 68.2932 50.3097 66.1724 50.3097H43.7254ZM40.9718 60.1532C39.3251 63.1763 37.0042 65.7741 34.2343 67.7878C34.3087 67.7919 34.379 67.8084 34.4542 67.8084H66.1723C68.293 67.8084 70.0003 66.1012 70.0003 63.9804C70.0003 61.8597 68.293 60.1524 66.1723 60.1525L40.9718 60.1532Z" fill="url(#paint0_linear_2993_22837)"/>
<path d="M17.4719 56.6238C14.8938 54.8502 11.6683 51.1572 11.6683 46.3974C11.6683 44.0654 13.3577 42.777 15.826 42.777C17.9699 42.777 19.5291 43.5012 20.4172 45.2022C19.5435 46.6297 19.0873 48.255 19.0962 49.9083C19.0962 51.5737 19.5508 52.6056 20.5685 52.6056C21.4783 52.6056 22.0414 51.5737 22.0414 49.9083C22.0414 48.1192 21.3942 46.558 20.4172 45.2022C21.2401 43.4992 22.8644 42.777 24.4473 42.777C27.5438 42.777 29.168 44.0622 29.168 46.3974C29.168 51.1572 25.6257 54.9091 23.5368 56.6238C22.6961 57.2832 21.6662 58.308 20.6485 58.332C19.8547 58.354 18.0697 57.0992 17.4719 56.6238Z" fill="white"/>
<defs>
<linearGradient id="paint0_linear_2993_22837" x1="-1.15741e-07" y1="35.6597" x2="70.0167" y2="35.1175" gradientUnits="userSpaceOnUse">
<stop stop-color="#C10077"/>
<stop offset="1" stop-color="#2B388F"/>
</linearGradient>
</defs>
</svg>
