<svg width="183" height="191" viewBox="0 0 183 191" fill="none" xmlns="http://www.w3.org/2000/svg">
<g clip-path="url(#clip0_1708_11506)">
<path d="M169.151 37.8953C170.167 37.4448 171.028 36.7053 171.629 35.7683C172.23 34.8313 172.544 33.738 172.532 32.6238C172.532 29.4756 170.173 26.9149 167.232 26.8977C164.291 26.8806 161.898 29.4284 161.885 32.5724C161.863 33.6968 162.174 34.8025 162.778 35.7499C163.382 36.6972 164.252 37.4438 165.279 37.8953C157.085 39.1349 157.457 48.0694 157.457 48.0694L176.832 48.1594C176.832 48.1594 177.272 39.1263 169.151 37.8953Z" fill="#F5F5F5"/>
<path d="M54.6636 4.49511L41.9989 0L29.4581 4.43506C27.8595 5.18139 26.466 5.62746 26.466 7.10296V14.4375C26.4451 19.5993 27.8779 24.6621 30.5993 29.0424C33.3323 33.5021 37.3593 37.0164 42.1399 39.1135C47.2691 37.4664 51.0903 33.0785 53.4326 29.3297C56.1459 24.9539 57.5768 19.9 57.5616 14.7464V8.14953C57.5445 6.02636 56.4204 5.00124 54.6636 4.49511Z" fill="#F5F5F5"/>
<path d="M46.2052 16.3377C46.2034 15.6838 46.0201 15.0434 45.6758 14.4883C45.3314 13.9333 44.8397 13.4855 44.2558 13.1953C43.672 12.9051 43.019 12.784 42.3704 12.8455C41.7217 12.907 41.1029 13.1488 40.5836 13.5437C40.0643 13.9385 39.6649 14.4708 39.4303 15.0808C39.1958 15.6908 39.1353 16.3544 39.2557 16.997C39.3761 17.6395 39.6726 18.2357 40.1119 18.7186C40.5512 19.2014 41.116 19.5518 41.7428 19.7305V24.9676H43.6577V19.7305C44.3932 19.5216 45.0404 19.0769 45.5004 18.4643C45.9604 17.8516 46.2079 17.1047 46.2052 16.3377Z" fill="#EBEBEB"/>
<path d="M162.342 72.5094L164.5 73.6847L163.53 75.3146L161.35 74.0278L161.388 76.4341H159.529V74.0106L157.349 75.3231L156.4 73.6932L158.559 72.518L156.439 71.317L157.388 69.6871L159.568 70.9996V68.5719H161.427L161.388 70.9996L163.568 69.6871L164.539 71.317L162.342 72.5094Z" fill="#E0E0E0"/>
<path d="M171.335 72.5094L173.472 73.6847L172.502 75.3146L170.322 74.0278L170.364 76.4341H168.501V74.0106L166.325 75.3231L165.372 73.6932L167.531 72.518L165.415 71.317L166.368 69.6871L168.544 70.9996V68.5719H170.407L170.364 70.9996L172.544 69.6871L173.515 71.317L171.335 72.5094Z" fill="#E0E0E0"/>
<path d="M180.328 72.5094L182.49 73.6847L181.52 75.3146L179.34 74.0278L179.379 76.4341H177.515L177.537 74.0106L175.357 75.3231L174.403 73.6932L176.566 72.518L174.391 71.317L175.344 69.6871L177.524 70.9996L177.502 68.5719H179.366L179.327 70.9996L181.507 69.6871L182.478 71.317L180.328 72.5094Z" fill="#E0E0E0"/>
<path d="M88.8193 175.176V188.499H108.237H129.652V175.176H88.8193Z" fill="#F5F5F5"/>
<path d="M87.1094 171.453V175.176H131.079V171.453H108.237H87.1094Z" fill="#EBEBEB"/>
<path d="M109.092 188.499H129.652V175.176H131.079V171.453H108.237V174.833L109.092 188.499Z" fill="#EBEBEB"/>
<path d="M102.81 177.325H94.5303V179.333H102.81V177.325Z" fill="#E0E0E0"/>
<path d="M104.1 181.838H93.4658V186.071H104.1V181.838Z" fill="white"/>
<path d="M95.1025 158.148V171.47H114.521H135.935V158.148H95.1025Z" fill="#F5F5F5"/>
<path d="M93.3887 154.421V158.148H137.363V154.421H114.521H93.3887Z" fill="#EBEBEB"/>
<path d="M115.375 171.47H135.935V158.148H137.362V154.421H114.521V157.801L115.375 171.47Z" fill="#EBEBEB"/>
<path d="M109.093 160.297H100.813V162.304H109.093V160.297Z" fill="#E0E0E0"/>
<path d="M110.383 164.809H99.749V169.043H110.383V164.809Z" fill="white"/>
<path d="M183 188.602C183 188.666 142.031 188.713 91.5043 188.713C40.9777 188.713 0 188.666 0 188.602C0 188.537 40.9606 188.49 91.5043 188.49C142.048 188.49 183 188.541 183 188.602Z" fill="#263238"/>
<path d="M145.232 8.08093H68.8762C67.3276 8.08093 66.0723 9.34068 66.0723 10.8947V81.3881C66.0723 82.9421 67.3276 84.2018 68.8762 84.2018H145.232C146.781 84.2018 148.036 82.9421 148.036 81.3881V10.8947C148.036 9.34068 146.781 8.08093 145.232 8.08093Z" fill="white"/>
<path d="M145.232 84.2018H145.433C145.631 84.1832 145.827 84.1459 146.019 84.0903C146.325 83.9957 146.614 83.8508 146.873 83.6614C147.24 83.3906 147.534 83.0324 147.728 82.6191C147.958 82.0876 148.05 81.5059 147.993 80.9291C147.993 80.2857 147.993 79.5866 147.993 78.8274C147.993 77.309 147.993 75.5547 147.993 73.5817C147.993 65.6895 147.972 54.2802 147.955 40.16C147.955 33.1043 147.955 25.3751 147.955 17.0797C147.955 15.0094 147.955 12.902 147.955 10.7574C147.923 10.2342 147.74 9.73154 147.429 9.31048C147.118 8.88941 146.692 8.56806 146.202 8.38545C145.693 8.22451 145.157 8.16477 144.625 8.20959H129.37H68.8844C68.2338 8.20605 67.6032 8.43573 67.1063 8.85726C66.6135 9.27946 66.2925 9.8687 66.2045 10.5129C66.175 10.8409 66.165 11.1703 66.1745 11.4994V37.9039C66.1745 48.0565 66.1745 57.8531 66.1745 67.1822C66.1745 71.846 66.1745 76.3897 66.1745 80.8133C66.1745 81.0878 66.1745 81.3709 66.1745 81.6326C66.1987 81.8974 66.2606 82.1574 66.3583 82.4046C66.5574 82.8964 66.8945 83.3196 67.3286 83.6228C67.7603 83.9227 68.2698 84.0896 68.7947 84.1032H76.7064H99.7064L133.012 84.1375H142.065H144.42H145.224H144.42H142.065H133.012L99.7064 84.1761H76.7064H68.8161C68.2514 84.1618 67.7032 83.982 67.2391 83.6589C66.775 83.3357 66.4154 82.8833 66.2045 82.3574C66.0991 82.0923 66.0314 81.8137 66.0036 81.5296C66.0036 81.2422 66.0036 80.972 66.0036 80.6718C66.0036 76.2539 66.0036 71.7102 66.0036 67.0406C66.0036 57.7116 66.0036 47.915 66.0036 37.7624C66.0036 32.6868 66.0036 27.5254 66.0036 22.2783V11.4994C65.9917 11.1602 66.0031 10.8205 66.0378 10.4829C66.1323 9.78426 66.4791 9.14475 67.0123 8.6857C67.5443 8.22422 68.2239 7.97 68.9272 7.96939H129.413H142.997H144.642C145.197 7.92198 145.757 7.98465 146.288 8.15383C146.807 8.36003 147.256 8.71201 147.581 9.16765C147.907 9.62329 148.094 10.1633 148.121 10.7231C148.121 12.8677 148.121 14.978 148.121 17.054C148.121 25.3493 148.121 33.0785 148.121 40.1343C148.121 54.2416 148.096 65.6638 148.087 73.556C148.087 75.529 148.087 77.2833 148.087 78.8017C148.087 79.5609 148.087 80.26 148.087 80.9034C148.144 81.4902 148.047 82.0816 147.805 82.6191C147.611 83.0361 147.318 83.3986 146.95 83.6742C146.682 83.8667 146.383 84.0118 146.066 84.1032C145.872 84.1575 145.672 84.1906 145.471 84.2018H145.232Z" fill="#263238"/>
<path d="M72.2571 13.3567C72.2579 13.6387 72.1753 13.9146 72.0197 14.1494C71.8641 14.3843 71.6425 14.5675 71.383 14.6758C71.1236 14.7841 70.8379 14.8127 70.5622 14.7578C70.2865 14.703 70.0333 14.5673 69.8346 14.3679C69.6359 14.1685 69.5006 13.9144 69.446 13.6377C69.3914 13.3611 69.4198 13.0744 69.5278 12.814C69.6357 12.5537 69.8183 12.3313 70.0523 12.1752C70.2863 12.019 70.5613 11.9361 70.8423 11.937C71.2172 11.9381 71.5764 12.088 71.8414 12.354C72.1065 12.62 72.2559 12.9805 72.2571 13.3567Z" fill="#263238"/>
<path d="M74.9792 14.7764C75.7606 14.7764 76.394 14.1408 76.394 13.3567C76.394 12.5726 75.7606 11.937 74.9792 11.937C74.1979 11.937 73.5645 12.5726 73.5645 13.3567C73.5645 14.1408 74.1979 14.7764 74.9792 14.7764Z" fill="#263238"/>
<path d="M79.1169 14.7764C79.8983 14.7764 80.5317 14.1408 80.5317 13.3567C80.5317 12.5726 79.8983 11.937 79.1169 11.937C78.3356 11.937 77.7021 12.5726 77.7021 13.3567C77.7021 14.1408 78.3356 14.7764 79.1169 14.7764Z" fill="#263238"/>
<path d="M148.036 17.3928C148.036 17.4529 129.687 17.5044 107.054 17.5044C84.4218 17.5044 66.0723 17.4529 66.0723 17.3928C66.0723 17.3328 84.4176 17.2813 107.054 17.2813C129.691 17.2813 148.036 17.3285 148.036 17.3928Z" fill="#263238"/>
<path d="M118.633 46.0663L118.727 45.9333L118.782 45.8604C118.804 45.8311 118.823 45.7994 118.838 45.766C118.888 45.6874 118.931 45.6041 118.966 45.5173C118.966 45.4658 119.009 45.4143 119.026 45.3586L119.077 45.1784C119.095 45.1124 119.108 45.0449 119.116 44.9768C119.132 44.9047 119.143 44.8317 119.15 44.7581C119.178 44.4013 119.161 44.0425 119.099 43.6901C118.916 42.7261 118.588 41.7959 118.124 40.9321C117.524 39.7798 116.822 38.6844 116.025 37.6594C115.068 36.4119 114.024 35.2337 112.901 34.1337C111.616 32.866 110.243 31.6907 108.793 30.6165C108.03 30.0446 107.22 29.5013 106.365 28.9866C105.499 28.4572 104.6 27.9844 103.673 27.5711C102.719 27.13 101.714 26.8129 100.681 26.6275C100.153 26.5339 99.6141 26.5195 99.082 26.5846C98.8154 26.6262 98.5553 26.7026 98.3084 26.8119C98.0653 26.9284 97.8463 27.0899 97.663 27.288C97.4861 27.4935 97.3498 27.7307 97.2612 27.9872C97.1808 28.2458 97.1363 28.5142 97.1287 28.785C97.1216 29.322 97.1951 29.857 97.3467 30.372C97.6524 31.3842 98.0831 32.3539 98.629 33.2587C99.1427 34.1377 99.7138 34.9817 100.339 35.785C100.946 36.5742 101.582 37.3163 102.228 38.0197C103.456 39.343 104.775 40.5771 106.177 41.7127C107.394 42.7076 108.68 43.6149 110.024 44.4278C111.129 45.1039 112.292 45.6781 113.499 46.1435C114.409 46.5094 115.369 46.7322 116.346 46.804C116.701 46.8259 117.057 46.8014 117.406 46.7311C117.478 46.7176 117.55 46.699 117.62 46.6754C117.687 46.6611 117.753 46.6395 117.816 46.611L117.987 46.5424C118.043 46.5167 118.09 46.4866 118.137 46.4609C118.218 46.4178 118.295 46.3676 118.368 46.3108L118.457 46.2421L118.526 46.1778L118.646 46.0663L118.53 46.1864L118.462 46.2507L118.376 46.3193C118.303 46.3786 118.224 46.4303 118.141 46.4738L117.996 46.5553L117.821 46.6282C117.757 46.6554 117.691 46.6769 117.624 46.6925C117.554 46.7161 117.483 46.7348 117.41 46.7483C117.059 46.8219 116.7 46.8493 116.342 46.8298C115.364 46.7614 114.402 46.5414 113.491 46.1778C112.277 45.7139 111.108 45.1396 109.999 44.4621C108.654 43.6495 107.368 42.7422 106.152 41.747C104.735 40.6132 103.399 39.3806 102.155 38.0583C101.506 37.3577 100.874 36.6114 100.262 35.8193C99.6375 35.0141 99.0663 34.1687 98.552 33.2887C98.0055 32.3798 97.5747 31.4057 97.2697 30.3892C97.1144 29.8675 97.0394 29.3251 97.0475 28.7807C97.0568 28.5042 97.1028 28.2301 97.1842 27.9657C97.2714 27.6996 97.4125 27.4543 97.5986 27.2454C97.7846 27.0366 98.0118 26.8685 98.2656 26.7519C98.5184 26.6424 98.7842 26.566 99.0564 26.5246C99.5938 26.4557 100.139 26.4687 100.672 26.5632C101.713 26.7527 102.727 27.0711 103.69 27.5111C104.62 27.9272 105.522 28.4028 106.391 28.9351C107.246 29.4541 108.054 30.0031 108.819 30.5693C110.27 31.6453 111.642 32.8236 112.927 34.0951C114.05 35.1978 115.094 36.3789 116.051 37.6294C116.847 38.6584 117.548 39.7581 118.145 40.9149C118.608 41.7833 118.935 42.7178 119.116 43.6858C119.175 44.0399 119.19 44.4003 119.158 44.7581C119.152 44.833 119.14 44.9075 119.124 44.9811C119.117 45.0496 119.103 45.1172 119.081 45.1827L119.03 45.3629C119.03 45.4186 118.987 45.4701 118.966 45.5216C118.933 45.6091 118.89 45.6926 118.838 45.7703L118.782 45.8647L118.727 45.9376L118.633 46.0663Z" fill="url(#paint0_linear_1708_11506)"/>
<path d="M122.51 36.6686V36.5056V36.4113C122.51 36.3813 122.51 36.3427 122.488 36.304C122.471 36.2121 122.447 36.1218 122.416 36.0338C122.416 35.9824 122.381 35.9309 122.36 35.8751L122.275 35.7078C122.245 35.6465 122.211 35.5877 122.172 35.532C122.135 35.4662 122.094 35.4031 122.048 35.3433C121.833 35.0585 121.583 34.802 121.304 34.5798C120.525 33.984 119.66 33.5097 118.74 33.1729C117.52 32.7134 116.261 32.3659 114.978 32.1349C113.436 31.8446 111.874 31.6626 110.307 31.5902C108.506 31.5015 106.702 31.5417 104.908 31.7103C103.963 31.8004 102.997 31.929 102.019 32.1135C101.02 32.2985 100.033 32.5463 99.0651 32.8555C98.0613 33.1644 97.0994 33.5966 96.2013 34.1423C95.7455 34.4248 95.3348 34.7747 94.9831 35.1803C94.8097 35.3881 94.6658 35.619 94.5557 35.8665C94.4444 36.1139 94.3869 36.3822 94.3869 36.6536C94.3869 36.925 94.4444 37.1933 94.5557 37.4407C94.6674 37.6874 94.8111 37.9181 94.9831 38.127C95.3352 38.5338 95.7475 38.8839 96.2056 39.165C97.1015 39.7148 98.0639 40.1473 99.0694 40.4517C100.037 40.7643 101.023 41.0136 102.023 41.1981C102.997 41.3782 103.968 41.5112 104.912 41.6012C106.707 41.7677 108.511 41.8078 110.311 41.7213C111.877 41.6573 113.436 41.4838 114.978 41.2023C116.252 40.9685 117.503 40.6197 118.714 40.1601C119.636 39.8268 120.501 39.3522 121.279 38.7532C121.559 38.5332 121.81 38.2764 122.022 37.9897C122.068 37.9313 122.109 37.8697 122.146 37.8053C122.185 37.7496 122.22 37.6907 122.249 37.6294L122.334 37.4621C122.334 37.4064 122.373 37.3506 122.39 37.3034C122.421 37.2155 122.446 37.1251 122.463 37.0332C122.463 36.9946 122.463 36.956 122.484 36.9217V36.8316V36.6686C122.484 36.6686 122.484 36.7244 122.484 36.8316V36.926C122.484 36.9603 122.484 36.9946 122.484 37.0332C122.471 37.1269 122.448 37.2189 122.416 37.3077C122.416 37.3549 122.381 37.4107 122.36 37.4664L122.279 37.6337C122.249 37.6961 122.215 37.7563 122.176 37.8139C122.133 37.8739 122.104 37.9425 122.052 38.0026C121.838 38.2902 121.588 38.5496 121.309 38.7746C120.532 39.3786 119.667 39.8576 118.744 40.1944C117.532 40.659 116.28 41.0108 115.004 41.2452C113.459 41.541 111.895 41.7259 110.324 41.7985C108.522 41.888 106.717 41.8507 104.921 41.687C103.972 41.597 103.002 41.464 102.023 41.2581C101.02 41.0772 100.031 40.8293 99.0608 40.5161C98.0526 40.2081 97.0864 39.7759 96.1842 39.2293C95.7201 38.9427 95.3021 38.5869 94.9447 38.1742C94.7704 37.9622 94.6265 37.7269 94.5172 37.475C94.4016 37.2197 94.3418 36.9426 94.3418 36.6622C94.3418 36.3818 94.4016 36.1047 94.5172 35.8494C94.6265 35.5975 94.7704 35.3622 94.9447 35.1502C95.2985 34.7412 95.7121 34.3883 96.1714 34.1037C97.0718 33.5538 98.0385 33.1213 99.048 32.8169C100.018 32.5048 101.008 32.2556 102.01 32.0706C102.989 31.8904 103.959 31.7575 104.908 31.6674C106.704 31.5037 108.509 31.4664 110.311 31.5559C111.882 31.6293 113.446 31.8127 114.991 32.1049C116.267 32.3433 117.519 32.6964 118.731 33.16C119.654 33.4978 120.519 33.9767 121.296 34.5798C121.576 34.8038 121.826 35.0633 122.039 35.3518C122.091 35.4119 122.121 35.4805 122.163 35.5406C122.201 35.5973 122.235 35.656 122.266 35.7164L122.347 35.888C122.369 35.9438 122.386 35.9952 122.403 36.0467C122.436 36.1354 122.458 36.2275 122.471 36.3212C122.471 36.3598 122.471 36.3941 122.471 36.4284V36.5185C122.51 36.6129 122.51 36.6686 122.51 36.6686Z" fill="url(#paint1_linear_1708_11506)"/>
<path d="M117.372 24.9676L117.231 24.8775L117.154 24.8304L117.056 24.7789C116.973 24.736 116.888 24.7001 116.799 24.6717L116.641 24.6202L116.457 24.5859C116.39 24.569 116.321 24.5589 116.252 24.5558C116.178 24.5512 116.104 24.5512 116.03 24.5558C115.674 24.5495 115.319 24.5899 114.974 24.6759C114.028 24.9254 113.126 25.3189 112.299 25.8426C111.195 26.5221 110.155 27.3002 109.191 28.1674C108.016 29.2136 106.917 30.3416 105.9 31.543C104.728 32.9144 103.656 34.3678 102.69 35.8923C102.181 36.6986 101.69 37.5479 101.237 38.4358C100.77 39.3359 100.363 40.2658 100.018 41.2195C99.6478 42.207 99.4023 43.2374 99.2875 44.2863C99.2304 44.8216 99.2549 45.3625 99.3602 45.8905C99.4186 46.1529 99.5105 46.4066 99.6337 46.6454C99.7678 46.882 99.9447 47.0914 100.155 47.263C100.371 47.423 100.614 47.5409 100.873 47.6104C101.135 47.674 101.404 47.7014 101.673 47.6919C102.209 47.662 102.738 47.5506 103.241 47.3617C104.218 46.9887 105.146 46.496 106.002 45.8948C106.84 45.3186 107.64 44.6882 108.396 44.0075C109.14 43.3427 109.836 42.6564 110.486 41.9615C111.723 40.6414 112.866 39.2353 113.906 37.7538C114.811 36.4676 115.626 35.1189 116.342 33.7176C116.939 32.5636 117.432 31.3577 117.812 30.1147C118.111 29.1802 118.266 28.2052 118.27 27.2237C118.267 26.8672 118.218 26.5126 118.124 26.1686C118.124 26.0914 118.077 26.0228 118.056 25.9541C118.034 25.8896 118.009 25.8266 117.979 25.7654L117.898 25.5981C117.868 25.5467 117.834 25.4995 117.808 25.4523C117.756 25.3743 117.699 25.2998 117.637 25.2293L117.569 25.1478L117.5 25.0834L117.381 24.9719L117.505 25.0791L117.573 25.1392L117.646 25.225C117.709 25.2938 117.767 25.3685 117.817 25.448L117.911 25.5896C117.936 25.641 117.962 25.7011 117.992 25.7568C118.023 25.819 118.048 25.8835 118.069 25.9498C118.098 26.0183 118.122 26.0885 118.141 26.16C118.24 26.5061 118.292 26.8639 118.295 27.2237C118.293 28.2089 118.141 29.1879 117.847 30.1276C117.467 31.3719 116.977 32.5793 116.38 33.7348C115.668 35.1417 114.856 36.4949 113.948 37.7838C112.918 39.2693 111.782 40.6784 110.55 42.0001C109.896 42.6993 109.204 43.3856 108.456 44.0504C107.699 44.7349 106.898 45.3683 106.058 45.9462C105.191 46.5556 104.252 47.0541 103.263 47.4303C102.755 47.6201 102.222 47.7315 101.681 47.7606C101.405 47.772 101.129 47.7446 100.86 47.6791C100.592 47.6067 100.34 47.4844 100.117 47.3188C99.8996 47.1437 99.7181 46.9281 99.5824 46.684C99.452 46.4396 99.3557 46.1783 99.2961 45.9076C99.1924 45.3737 99.1694 44.8271 99.2277 44.2863C99.3434 43.2315 99.5904 42.1955 99.9629 41.2023C100.31 40.2413 100.72 39.3042 101.19 38.3972C101.647 37.5093 102.138 36.66 102.647 35.8537C103.618 34.3285 104.695 32.8738 105.87 31.5001C106.888 30.2974 107.991 29.1693 109.17 28.1245C110.139 27.2596 111.183 26.483 112.29 25.804C113.121 25.2795 114.028 24.8861 114.978 24.6373C115.327 24.5541 115.685 24.5152 116.043 24.5215C116.12 24.5215 116.192 24.5215 116.265 24.5215C116.334 24.5267 116.403 24.5367 116.47 24.5516L116.65 24.5902L116.812 24.6416C116.901 24.6714 116.986 24.7087 117.069 24.7532L117.167 24.8046L117.244 24.8561L117.372 24.9676Z" fill="url(#paint2_linear_1708_11506)"/>
<path d="M94.2139 42.4977C94.2626 42.5463 94.3013 42.6041 94.3277 42.6678C94.354 42.7315 94.3676 42.7997 94.3676 42.8687C94.3676 42.9377 94.354 43.0059 94.3277 43.0696C94.3013 43.1333 94.2626 43.1911 94.2139 43.2397C94.1149 43.3364 93.9823 43.3905 93.8442 43.3905C93.706 43.3905 93.5734 43.3364 93.4744 43.2397C93.4259 43.191 93.3874 43.1331 93.3611 43.0695C93.3348 43.0058 93.3213 42.9376 93.3213 42.8687C93.3213 42.7998 93.3348 42.7316 93.3611 42.6679C93.3874 42.6042 93.4259 42.5464 93.4744 42.4977C93.523 42.449 93.5806 42.4103 93.6441 42.3839C93.7075 42.3576 93.7755 42.344 93.8442 42.344C93.9128 42.344 93.9808 42.3576 94.0443 42.3839C94.1077 42.4103 94.1653 42.449 94.2139 42.4977Z" fill="url(#paint3_linear_1708_11506)"/>
<path d="M123.703 26.2458C123.706 26.3508 123.678 26.4544 123.622 26.5434C123.567 26.6324 123.486 26.7027 123.39 26.7452C123.294 26.7878 123.188 26.8007 123.085 26.7824C122.982 26.764 122.887 26.7151 122.812 26.6421C122.736 26.569 122.685 26.4751 122.663 26.3723C122.641 26.2695 122.65 26.1626 122.69 26.0652C122.729 25.9678 122.796 25.8844 122.883 25.8256C122.97 25.7668 123.072 25.7354 123.177 25.7354C123.313 25.7353 123.445 25.7885 123.543 25.8838C123.641 25.979 123.698 26.1088 123.703 26.2458Z" fill="url(#paint4_linear_1708_11506)"/>
<path d="M97.514 44.222C97.514 44.2483 97.5063 44.274 97.4917 44.2958C97.4771 44.3177 97.4564 44.3347 97.4322 44.3448C97.408 44.3549 97.3814 44.3575 97.3557 44.3524C97.33 44.3472 97.3064 44.3346 97.2878 44.316C97.2693 44.2974 97.2567 44.2737 97.2516 44.2479C97.2465 44.2221 97.2491 44.1954 97.2591 44.1711C97.2691 44.1468 97.2861 44.126 97.3079 44.1114C97.3297 44.0968 97.3553 44.089 97.3815 44.089C97.4167 44.089 97.4504 44.103 97.4752 44.1279C97.5001 44.1529 97.514 44.1867 97.514 44.222Z" fill="url(#paint5_linear_1708_11506)"/>
<path d="M100.348 29.527C100.347 29.5531 100.339 29.5784 100.324 29.5997C100.309 29.621 100.288 29.6374 100.263 29.6468C100.239 29.6562 100.212 29.6582 100.187 29.6526C100.162 29.647 100.138 29.634 100.12 29.6153C100.102 29.5965 100.09 29.5728 100.085 29.5471C100.08 29.5215 100.083 29.495 100.093 29.4709C100.104 29.4469 100.121 29.4263 100.142 29.4119C100.164 29.3975 100.189 29.3898 100.215 29.3898C100.233 29.3898 100.251 29.3933 100.267 29.4003C100.284 29.4072 100.298 29.4174 100.311 29.4302C100.323 29.443 100.333 29.4582 100.339 29.4748C100.346 29.4915 100.349 29.5092 100.348 29.527Z" fill="url(#paint6_linear_1708_11506)"/>
<path d="M121.074 36.6686C121.074 36.6949 121.066 36.7206 121.051 36.7425C121.037 36.7643 121.016 36.7814 120.992 36.7915C120.968 36.8015 120.941 36.8042 120.915 36.799C120.89 36.7939 120.866 36.7812 120.847 36.7626C120.829 36.744 120.816 36.7203 120.811 36.6945C120.806 36.6688 120.809 36.642 120.819 36.6177C120.829 36.5934 120.846 36.5727 120.867 36.5581C120.889 36.5434 120.915 36.5356 120.941 36.5356C120.976 36.5356 121.01 36.5497 121.035 36.5746C121.06 36.5995 121.074 36.6333 121.074 36.6686Z" fill="url(#paint7_linear_1708_11506)"/>
<path d="M122.92 30.4535C122.92 30.4798 122.913 30.5055 122.898 30.5274C122.883 30.5493 122.863 30.5663 122.838 30.5764C122.814 30.5864 122.788 30.5891 122.762 30.5839C122.736 30.5788 122.713 30.5661 122.694 30.5475C122.676 30.5289 122.663 30.5053 122.658 30.4795C122.653 30.4537 122.655 30.4269 122.665 30.4026C122.675 30.3783 122.692 30.3576 122.714 30.343C122.736 30.3284 122.762 30.3206 122.788 30.3206C122.823 30.3206 122.857 30.3346 122.881 30.3595C122.906 30.3844 122.92 30.4183 122.92 30.4535Z" fill="url(#paint8_linear_1708_11506)"/>
<path d="M113.97 39.5982H112.329V30.6294C112.329 29.6135 111.927 28.6393 111.211 27.921C110.495 27.2026 109.524 26.7991 108.512 26.7991C107.5 26.7991 106.529 27.2026 105.813 27.921C105.097 28.6393 104.695 29.6135 104.695 30.6294V39.5982H103.054V30.6294C103.054 29.1767 103.629 27.7835 104.652 26.7563C105.676 25.7291 107.064 25.152 108.512 25.152C109.96 25.152 111.348 25.7291 112.372 26.7563C113.395 27.7835 113.97 29.1767 113.97 30.6294V39.5982Z" fill="url(#paint9_linear_1708_11506)"/>
<g opacity="0.3">
<path d="M113.97 39.5982H112.329V30.6294C112.329 29.6135 111.927 28.6393 111.211 27.921C110.495 27.2026 109.524 26.7991 108.512 26.7991C107.5 26.7991 106.529 27.2026 105.813 27.921C105.097 28.6393 104.695 29.6135 104.695 30.6294V39.5982H103.054V30.6294C103.054 29.1767 103.629 27.7835 104.652 26.7563C105.676 25.7291 107.064 25.152 108.512 25.152C109.96 25.152 111.348 25.7291 112.372 26.7563C113.395 27.7835 113.97 29.1767 113.97 30.6294V39.5982Z" fill="black"/>
</g>
<path d="M114.906 35.6092H102.117C101.586 35.6092 101.155 36.0413 101.155 36.5743V44.1147C101.155 44.6477 101.586 45.0798 102.117 45.0798H114.906C115.437 45.0798 115.867 44.6477 115.867 44.1147V36.5743C115.867 36.0413 115.437 35.6092 114.906 35.6092Z" fill="url(#paint10_linear_1708_11506)"/>
<g opacity="0.3">
<path d="M109.742 39.1091C109.743 38.8792 109.68 38.6537 109.56 38.4579C109.44 38.2621 109.268 38.1037 109.063 38.0007C108.858 37.8977 108.629 37.8541 108.401 37.8748C108.172 37.8954 107.954 37.9796 107.771 38.1178C107.588 38.256 107.447 38.4427 107.364 38.6569C107.281 38.8711 107.259 39.1044 107.301 39.3304C107.343 39.5565 107.447 39.7663 107.601 39.9363C107.755 40.1064 107.953 40.2299 108.174 40.293V42.1373H108.845V40.293C109.102 40.2203 109.329 40.0654 109.491 39.8518C109.653 39.6382 109.741 39.3775 109.742 39.1091Z" fill="black"/>
</g>
<path d="M101.938 44.1791C101.908 44.1791 101.878 42.5963 101.878 40.649C101.878 38.7017 101.908 37.1233 101.938 37.1233C101.968 37.1233 102.002 38.7017 102.002 40.649C102.002 42.5963 101.972 44.1791 101.938 44.1791Z" fill="#FAFAFA"/>
<path d="M107.55 40.6919C107.496 40.6764 107.446 40.6485 107.404 40.6104C107.284 40.517 107.178 40.4073 107.088 40.2844C106.936 40.0827 106.831 39.8497 106.779 39.6023C106.728 39.3549 106.731 39.0991 106.79 38.8532C106.848 38.6073 106.96 38.3774 107.117 38.1799C107.274 37.9825 107.473 37.8223 107.699 37.7109C107.834 37.6412 107.978 37.5921 108.127 37.5651C108.234 37.5651 108.293 37.5651 108.293 37.5651C108.104 37.627 107.919 37.7045 107.742 37.7967C107.533 37.9122 107.351 38.0702 107.207 38.2605C107.063 38.4508 106.96 38.6693 106.905 38.902C106.849 39.1346 106.843 39.3762 106.887 39.6113C106.93 39.8465 107.022 40.0699 107.157 40.2673C107.276 40.4189 107.408 40.5609 107.55 40.6919Z" fill="#FAFAFA"/>
<path d="M130.354 53.1949H85.0588C82.8587 53.1949 81.0752 54.9847 81.0752 57.1925V57.6815C81.0752 59.8893 82.8587 61.679 85.0588 61.679H130.354C132.554 61.679 134.337 59.8893 134.337 57.6815V57.1925C134.337 54.9847 132.554 53.1949 130.354 53.1949Z" fill="#F5F5F5"/>
<path d="M130.742 64.8317H85.4475C83.2474 64.8317 81.4639 66.6214 81.4639 68.8292V69.3182C81.4639 71.526 83.2474 73.3158 85.4475 73.3158H130.742C132.942 73.3158 134.726 71.526 134.726 69.3182V68.8292C134.726 66.6214 132.942 64.8317 130.742 64.8317Z" fill="#F5F5F5"/>
<path d="M89.4904 57.3727V56.1417H89.9991V57.3556C89.9991 57.7845 90.1786 57.9432 90.4821 57.9432C90.7855 57.9432 90.9736 57.7716 90.9736 57.3556V56.1417H91.4694V57.3727C91.4783 57.5086 91.4593 57.6449 91.4136 57.7731C91.3679 57.9013 91.2965 58.0188 91.2038 58.1182C91.111 58.2176 90.9989 58.2968 90.8744 58.351C90.7499 58.4052 90.6156 58.4331 90.4799 58.4331C90.3442 58.4331 90.21 58.4052 90.0855 58.351C89.9609 58.2968 89.8488 58.2176 89.7561 58.1182C89.6633 58.0188 89.5919 57.9013 89.5462 57.7731C89.5005 57.6449 89.4815 57.5086 89.4904 57.3727Z" fill="#263238"/>
<path d="M91.7734 58.1834L91.9359 57.8317C92.1136 57.9362 92.3154 57.9924 92.5214 57.9947C92.748 57.9947 92.8292 57.9346 92.8292 57.8403C92.8292 57.5658 91.8162 57.8403 91.8162 57.1712C91.8162 56.8538 92.1026 56.6264 92.5941 56.6264C92.8179 56.6215 93.0395 56.6716 93.2395 56.7723L93.0771 57.124C92.9301 57.0393 92.7636 56.9949 92.5941 56.9953C92.3761 56.9953 92.2821 57.0639 92.2821 57.154C92.2821 57.4414 93.2951 57.154 93.2951 57.8274C93.2951 58.1405 93.0044 58.3636 92.5043 58.3636C92.2492 58.3686 91.9972 58.3065 91.7734 58.1834Z" fill="#263238"/>
<path d="M95.236 57.6344H93.9537C93.9799 57.7398 94.0432 57.8322 94.132 57.8945C94.2208 57.9568 94.329 57.9847 94.4367 57.9732C94.5153 57.9767 94.5937 57.9641 94.6672 57.936C94.7407 57.908 94.8077 57.8652 94.8641 57.8102L95.1249 58.089C94.9928 58.2153 94.8284 58.3022 94.6499 58.34C94.4715 58.3778 94.2861 58.3651 94.1144 58.3032C93.9428 58.2414 93.7917 58.1328 93.678 57.9897C93.5643 57.8466 93.4925 57.6745 93.4707 57.4928C93.4706 57.3765 93.494 57.2613 93.5396 57.1543C93.5852 57.0474 93.652 56.9508 93.736 56.8706C93.82 56.7903 93.9193 56.7281 94.028 56.6876C94.1367 56.6471 94.2525 56.6292 94.3683 56.635C94.4824 56.6321 94.5958 56.6522 94.702 56.694C94.8082 56.7359 94.905 56.7986 94.9867 56.8785C95.0683 56.9585 95.1332 57.054 95.1775 57.1595C95.2218 57.265 95.2446 57.3783 95.2445 57.4928C95.2445 57.54 95.236 57.5915 95.236 57.6344ZM93.9537 57.347H94.7786C94.754 57.2561 94.7003 57.1759 94.6258 57.1187C94.5512 57.0615 94.46 57.0306 94.3662 57.0306C94.2723 57.0306 94.1811 57.0615 94.1066 57.1187C94.032 57.1759 93.9783 57.2561 93.9537 57.347Z" fill="#263238"/>
<path d="M96.5991 56.6179V57.0468H96.4879C96.4284 57.0465 96.3695 57.0588 96.315 57.0827C96.2604 57.1066 96.2115 57.1417 96.1712 57.1857C96.131 57.2297 96.1004 57.2817 96.0813 57.3383C96.0622 57.3949 96.0552 57.4548 96.0605 57.5143V58.3335H95.5732V56.6479H96.0391V56.8709C96.1057 56.7871 96.1912 56.7204 96.2886 56.6763C96.386 56.6323 96.4924 56.6123 96.5991 56.6179Z" fill="#263238"/>
<path d="M98.6206 57.3728V58.3335H98.1333V57.4457C98.1333 57.1712 98.0094 57.0468 97.7914 57.0468C97.5734 57.0468 97.3896 57.1883 97.3896 57.5014V58.3335H96.9023V56.6479H97.3682V56.8452C97.4396 56.7703 97.5261 56.7117 97.622 56.6732C97.7178 56.6347 97.8208 56.6173 97.9239 56.6221C98.0216 56.6154 98.1196 56.6307 98.2107 56.6668C98.3017 56.703 98.3836 56.759 98.4504 56.8309C98.5171 56.9029 98.5671 56.9888 98.5965 57.0825C98.626 57.1763 98.6342 57.2754 98.6206 57.3728Z" fill="#263238"/>
<path d="M100.549 57.377V58.3335H100.091V58.1233C100.035 58.2053 99.9576 58.2705 99.8673 58.3121C99.777 58.3536 99.6773 58.3699 99.5785 58.3592C99.1853 58.3592 98.9502 58.1405 98.9502 57.8488C98.9502 57.5571 99.1596 57.3427 99.6726 57.3427H100.062C100.062 57.1325 99.9376 57.0124 99.6726 57.0124C99.4993 57.0108 99.33 57.0649 99.1896 57.1668L99.0143 56.828C99.2304 56.6877 99.4836 56.616 99.7409 56.6221C100.25 56.6178 100.549 56.8666 100.549 57.377ZM100.062 57.8059V57.6343H99.7281C99.4973 57.6343 99.4246 57.7158 99.4246 57.8316C99.4246 57.9474 99.5315 58.0332 99.7025 58.0332C99.7787 58.0392 99.8549 58.0204 99.9196 57.9794C99.9843 57.9384 100.034 57.8776 100.062 57.8059Z" fill="#263238"/>
<path d="M103.827 57.3727V58.3335H103.34V57.4456C103.34 57.1711 103.22 57.0467 103.024 57.0467C102.827 57.0467 102.652 57.1883 102.652 57.4757V58.3335H102.156V57.4456C102.156 57.1711 102.04 57.0467 101.835 57.0467C101.63 57.0467 101.468 57.1883 101.468 57.4757V58.3335H100.98V56.6478H101.446V56.8408C101.513 56.7686 101.595 56.7117 101.685 56.674C101.776 56.6362 101.874 56.6185 101.972 56.6221C102.08 56.6162 102.188 56.6384 102.286 56.6864C102.383 56.7345 102.466 56.8069 102.528 56.8966C102.601 56.8072 102.694 56.7359 102.799 56.6883C102.905 56.6407 103.019 56.618 103.135 56.6221C103.232 56.6144 103.331 56.6291 103.422 56.665C103.513 56.7008 103.595 56.757 103.662 56.8292C103.729 56.9014 103.778 56.9878 103.807 57.0819C103.835 57.1761 103.842 57.2755 103.827 57.3727Z" fill="#263238"/>
<path d="M105.921 57.6344H104.639C104.66 57.7414 104.722 57.8361 104.811 57.899C104.9 57.962 105.01 57.9885 105.117 57.9732C105.196 57.9765 105.274 57.9637 105.348 57.9357C105.421 57.9077 105.488 57.865 105.545 57.8102L105.801 58.089C105.67 58.2156 105.506 58.3029 105.327 58.3409C105.149 58.3789 104.964 58.3663 104.792 58.3043C104.621 58.2423 104.47 58.1335 104.357 57.9901C104.243 57.8468 104.172 57.6745 104.151 57.4928C104.151 57.3765 104.175 57.2613 104.22 57.1543C104.266 57.0474 104.333 56.9508 104.417 56.8706C104.501 56.7903 104.6 56.7281 104.709 56.6876C104.817 56.6471 104.933 56.6292 105.049 56.635C105.276 56.635 105.493 56.7254 105.653 56.8862C105.814 57.0471 105.904 57.2653 105.904 57.4928C105.929 57.54 105.925 57.5915 105.921 57.6344ZM104.639 57.347H105.468C105.445 57.2543 105.391 57.1719 105.316 57.1131C105.241 57.0543 105.149 57.0223 105.053 57.0223C104.958 57.0223 104.865 57.0543 104.79 57.1131C104.715 57.1719 104.662 57.2543 104.639 57.347Z" fill="#263238"/>
<path d="M109.144 57.4757C109.144 58.0376 108.888 58.355 108.503 58.355C108.412 58.3614 108.322 58.3386 108.245 58.29C108.168 58.2414 108.109 58.1696 108.076 58.0848C108.019 58.1735 107.939 58.2454 107.845 58.2929C107.751 58.3404 107.646 58.3619 107.541 58.355C107.342 58.3403 107.156 58.2505 107.02 58.1037C106.884 57.9569 106.809 57.764 106.809 57.5636C106.809 57.3633 106.884 57.1703 107.02 57.0236C107.156 56.8768 107.342 56.787 107.541 56.7723C107.631 56.7682 107.721 56.7846 107.804 56.8202C107.887 56.8559 107.961 56.9099 108.02 56.9782V56.7937H108.447V57.8103C108.447 57.9604 108.512 58.0119 108.597 58.0119C108.683 58.0119 108.828 57.8446 108.828 57.48C108.829 57.3307 108.799 57.1828 108.74 57.0458C108.681 56.9088 108.593 56.7858 108.484 56.6848C108.374 56.5838 108.245 56.5069 108.104 56.4592C107.963 56.4114 107.813 56.3939 107.665 56.4077C107.365 56.4077 107.077 56.5274 106.864 56.7406C106.652 56.9538 106.533 57.2429 106.533 57.5443C106.533 57.8458 106.652 58.1349 106.864 58.3481C107.077 58.5612 107.365 58.681 107.665 58.681C107.879 58.6814 108.089 58.633 108.281 58.5394L108.379 58.8311C108.155 58.9321 107.911 58.9833 107.665 58.9812C107.286 58.9812 106.921 58.8298 106.653 58.5604C106.384 58.2909 106.233 57.9254 106.233 57.5443C106.233 57.1632 106.384 56.7978 106.653 56.5283C106.921 56.2588 107.286 56.1074 107.665 56.1074C107.854 56.092 108.043 56.116 108.222 56.1777C108.401 56.2395 108.565 56.3378 108.704 56.4663C108.843 56.5949 108.953 56.751 109.029 56.9247C109.105 57.0984 109.144 57.286 109.144 57.4757ZM108.029 57.5615C108.035 57.5066 108.029 57.451 108.012 57.3985C107.995 57.346 107.967 57.2977 107.929 57.2571C107.892 57.2164 107.847 57.1843 107.796 57.1628C107.745 57.1413 107.69 57.131 107.635 57.1326C107.581 57.1315 107.527 57.1423 107.477 57.1641C107.427 57.1859 107.382 57.2182 107.345 57.2589C107.309 57.2996 107.282 57.3476 107.265 57.3998C107.249 57.4521 107.244 57.5072 107.251 57.5615C107.251 57.665 107.292 57.7643 107.365 57.8375C107.438 57.9107 107.536 57.9518 107.64 57.9518C107.743 57.9518 107.842 57.9107 107.915 57.8375C107.988 57.7643 108.029 57.665 108.029 57.5615Z" fill="#263238"/>
<path d="M112.328 57.3727V58.3335H111.841V57.4457C111.841 57.1712 111.721 57.0468 111.521 57.0468C111.32 57.0468 111.153 57.1883 111.153 57.4757V58.3335H110.661V57.4457C110.661 57.1712 110.546 57.0468 110.345 57.0468C110.144 57.0468 109.977 57.1883 109.977 57.4757V58.3335H109.49V56.6479H109.956V56.8409C110.023 56.7687 110.105 56.7118 110.195 56.674C110.286 56.6363 110.384 56.6186 110.482 56.6221C110.59 56.6157 110.697 56.6377 110.794 56.6858C110.891 56.734 110.973 56.8067 111.033 56.8966C111.107 56.808 111.2 56.7372 111.305 56.6897C111.411 56.6421 111.525 56.619 111.64 56.6221C111.738 56.6152 111.835 56.6303 111.926 56.6665C112.017 56.7027 112.098 56.7589 112.165 56.831C112.231 56.9032 112.28 56.9893 112.308 57.0831C112.336 57.1769 112.343 57.2759 112.328 57.3727Z" fill="#263238"/>
<path d="M114.252 57.377V58.3335H113.798V58.1233C113.742 58.205 113.664 58.27 113.574 58.3115C113.484 58.353 113.384 58.3694 113.286 58.3592C112.892 58.3592 112.657 58.1405 112.657 57.8488C112.657 57.5571 112.867 57.3427 113.38 57.3427H113.764C113.764 57.1325 113.64 57.0124 113.38 57.0124C113.205 57.0128 113.035 57.0667 112.892 57.1668L112.721 56.828C112.936 56.6886 113.188 56.6168 113.444 56.6221C113.957 56.6178 114.252 56.8666 114.252 57.377ZM113.764 57.8059V57.6344H113.431C113.204 57.6344 113.132 57.7159 113.132 57.8317C113.132 57.9475 113.234 58.0333 113.405 58.0333C113.482 58.0393 113.558 58.0204 113.622 57.9794C113.687 57.9385 113.737 57.8776 113.764 57.8059Z" fill="#263238"/>
<path d="M114.637 56.1416C114.638 56.1039 114.646 56.0667 114.662 56.0324C114.678 55.9981 114.701 55.9674 114.729 55.9422C114.757 55.9169 114.789 55.8976 114.825 55.8854C114.861 55.8733 114.898 55.8685 114.936 55.8714C114.973 55.8673 115.011 55.8709 115.047 55.882C115.083 55.8931 115.116 55.9115 115.144 55.936C115.173 55.9606 115.196 55.9907 115.212 56.0246C115.229 56.0585 115.238 56.0954 115.239 56.1331C115.24 56.1723 115.233 56.2113 115.217 56.2474C115.202 56.2835 115.179 56.316 115.151 56.3427C115.122 56.3695 115.088 56.3898 115.051 56.4025C115.014 56.4151 114.975 56.4198 114.936 56.4162C114.898 56.4191 114.86 56.4142 114.824 56.4018C114.788 56.3894 114.755 56.3697 114.727 56.3439C114.699 56.3182 114.677 56.287 114.661 56.2522C114.645 56.2174 114.637 56.1798 114.637 56.1416ZM114.692 56.6521H115.18V58.3334H114.692V56.6521Z" fill="#263238"/>
<path d="M115.633 56.0131H116.12V58.3335H115.633V56.0131Z" fill="#263238"/>
<path d="M116.457 58.0547C116.466 57.9807 116.502 57.9125 116.557 57.8631C116.613 57.8136 116.684 57.7863 116.759 57.7863C116.833 57.7863 116.905 57.8136 116.96 57.8631C117.016 57.9125 117.051 57.9807 117.06 58.0547C117.065 58.0975 117.061 58.1408 117.048 58.1818C117.035 58.2229 117.014 58.2608 116.986 58.293C116.957 58.3252 116.922 58.3509 116.883 58.3686C116.844 58.3862 116.801 58.3953 116.759 58.3953C116.716 58.3953 116.673 58.3862 116.634 58.3686C116.595 58.3509 116.56 58.3252 116.532 58.293C116.503 58.2608 116.482 58.2229 116.469 58.1818C116.456 58.1408 116.452 58.0975 116.457 58.0547Z" fill="#263238"/>
<path d="M117.249 57.4756C117.248 57.3558 117.273 57.2371 117.32 57.1274C117.368 57.0176 117.439 56.9191 117.527 56.8383C117.615 56.7575 117.719 56.6961 117.833 56.6581C117.946 56.6201 118.066 56.6064 118.185 56.6178C118.338 56.6065 118.492 56.6412 118.626 56.7176C118.76 56.794 118.868 56.9085 118.937 57.0467L118.561 57.2526C118.525 57.1826 118.47 57.124 118.403 57.0832C118.336 57.0423 118.259 57.0208 118.18 57.021C118.065 57.0321 117.958 57.0859 117.88 57.172C117.802 57.258 117.759 57.3701 117.759 57.4863C117.759 57.6026 117.802 57.7147 117.88 57.8007C117.958 57.8868 118.065 57.9406 118.18 57.9517C118.259 57.9519 118.336 57.9304 118.403 57.8895C118.47 57.8486 118.525 57.79 118.561 57.7201L118.937 57.9303C118.867 58.0677 118.759 58.1816 118.625 58.2579C118.491 58.3341 118.338 58.3693 118.185 58.3592C118.064 58.3709 117.941 58.3565 117.826 58.317C117.711 58.2775 117.606 58.2138 117.517 58.1301C117.429 58.0465 117.359 57.9448 117.312 57.832C117.266 57.7191 117.244 57.5976 117.249 57.4756Z" fill="#263238"/>
<path d="M119.069 57.4757C119.055 57.2903 119.097 57.1051 119.19 56.9441C119.283 56.7831 119.421 56.6538 119.588 56.5729C119.755 56.492 119.942 56.4633 120.125 56.4906C120.308 56.5179 120.479 56.5998 120.615 56.7258C120.752 56.8518 120.847 57.0159 120.889 57.197C120.931 57.378 120.918 57.5675 120.851 57.7409C120.784 57.9143 120.667 58.0635 120.515 58.1692C120.362 58.2749 120.182 58.3321 119.996 58.3335C119.878 58.3436 119.759 58.329 119.647 58.2904C119.535 58.2518 119.432 58.1903 119.344 58.1096C119.257 58.0289 119.188 57.9308 119.14 57.8217C119.093 57.7126 119.069 57.5947 119.069 57.4757ZM120.424 57.4757C120.416 57.3929 120.385 57.3141 120.334 57.2488C120.283 57.1835 120.214 57.1346 120.135 57.108C120.057 57.0813 119.972 57.0782 119.892 57.0988C119.812 57.1195 119.739 57.1631 119.683 57.2243C119.627 57.2856 119.59 57.3618 119.577 57.4438C119.563 57.5258 119.573 57.61 119.607 57.6861C119.64 57.7623 119.694 57.8271 119.763 57.8727C119.833 57.9184 119.914 57.9429 119.996 57.9432C120.056 57.9434 120.115 57.9312 120.169 57.9073C120.224 57.8833 120.273 57.8483 120.313 57.8042C120.353 57.7602 120.384 57.7083 120.403 57.6517C120.422 57.5951 120.429 57.5352 120.424 57.4757Z" fill="#263238"/>
<path d="M124.083 57.3727V58.3335H123.595V57.4456C123.595 57.1711 123.471 57.0468 123.275 57.0468C123.078 57.0468 122.903 57.1883 122.903 57.4757V58.3335H122.416V57.4456C122.416 57.1711 122.3 57.0468 122.099 57.0468C121.898 57.0468 121.728 57.1883 121.728 57.4757V58.3335H121.24V56.6479H121.706V56.8409C121.775 56.7669 121.858 56.7086 121.951 56.6701C122.044 56.6316 122.144 56.6138 122.245 56.6178C122.352 56.6119 122.46 56.634 122.556 56.6821C122.653 56.7302 122.736 56.8027 122.796 56.8923C122.87 56.8037 122.963 56.7329 123.068 56.6854C123.173 56.6378 123.288 56.6147 123.403 56.6178C123.5 56.6121 123.597 56.6283 123.687 56.6653C123.778 56.7023 123.858 56.7591 123.923 56.8316C123.989 56.9041 124.037 56.9903 124.064 57.084C124.092 57.1776 124.098 57.2763 124.083 57.3727Z" fill="#263238"/>
<path d="M96.0173 69.1208L96.8081 69.5498L96.4533 70.146L95.654 69.6742V70.5535H94.9701V69.6656L94.1708 70.146L93.8203 69.5498L94.6153 69.1208L93.8203 68.6919L94.1708 68.0957L94.9701 68.5761V67.684H95.654V68.5761L96.4533 68.0957L96.8081 68.6919L96.0173 69.1208Z" fill="#263238"/>
<path d="M99.3134 69.1208L100.104 69.5498L99.7494 70.146L98.9501 69.6742V70.5535H98.2705V69.6656L97.4755 70.146L97.125 69.5498L97.9157 69.1208L97.125 68.6919L97.4755 68.0957L98.2705 68.5761V67.684H98.9501V68.5761L99.7494 68.0957L100.104 68.6919L99.3134 69.1208Z" fill="#263238"/>
<path d="M102.609 69.1208L103.399 69.5498L103.04 70.146L102.245 69.6742V70.5535H101.562V69.6656L100.762 70.146L100.416 69.5498L101.207 69.1208L100.416 68.6919L100.762 68.0957L101.562 68.5761V67.684H102.245V68.5761L103.04 68.0957L103.399 68.6919L102.609 69.1208Z" fill="#263238"/>
<path d="M105.9 69.1208L106.691 69.5498L106.336 70.146L105.537 69.6742V70.5535H104.853V69.6656L104.054 70.146L103.703 69.5498L104.498 69.1208L103.703 68.6919L104.054 68.0957L104.853 68.5761V67.684H105.575V68.5761L106.375 68.0957L106.729 68.6919L105.9 69.1208Z" fill="#263238"/>
<path d="M109.195 69.1208L109.986 69.5498L109.631 70.146L108.832 69.6742V70.5535H108.152V69.6656L107.357 70.146L107.007 69.5498L107.798 69.1208L107.007 68.6919L107.357 68.0957L108.152 68.5761V67.684H108.832V68.5761L109.631 68.0957L109.986 68.6919L109.195 69.1208Z" fill="#263238"/>
<path d="M112.491 69.1208L113.281 69.5498L112.922 70.146L112.127 69.6742V70.5535H111.443V69.6656L110.644 70.146L110.298 69.5498L111.089 69.1208L110.298 68.6919L110.644 68.0957L111.443 68.5761V67.684H112.127V68.5761L112.922 68.0957L113.281 68.6919L112.491 69.1208Z" fill="#263238"/>
<path d="M115.782 69.1208L116.573 69.5498L116.218 70.146L115.419 69.6742V70.5535H114.735V69.6656L113.935 70.146L113.585 69.5498L114.38 69.1208L113.585 68.6919L113.935 68.0957L114.735 68.5761V67.684H115.419V68.5761L116.218 68.0957L116.573 68.6919L115.782 69.1208Z" fill="#263238"/>
<path d="M119.077 69.1208L119.868 69.5498L119.513 70.146L118.714 69.6742V70.5535H118.034V69.6656L117.239 70.146L116.889 69.5498L117.679 69.1208L116.889 68.6919L117.239 68.0957L118.034 68.5761V67.684H118.714V68.5761L119.513 68.0957L119.868 68.6919L119.077 69.1208Z" fill="#263238"/>
<path d="M155.097 92.7675H91.4018C89.8957 92.7675 88.6748 93.9926 88.6748 95.504V128.591C88.6748 130.102 89.8957 131.328 91.4018 131.328H155.097C156.604 131.328 157.824 130.102 157.824 128.591V95.504C157.824 93.9926 156.604 92.7675 155.097 92.7675Z" fill="white"/>
<path d="M155.097 131.328C155.097 131.328 155.285 131.328 155.636 131.259C156.086 131.167 156.505 130.961 156.854 130.661C157.202 130.36 157.469 129.976 157.628 129.543C157.703 129.333 157.754 129.114 157.777 128.891C157.79 128.646 157.79 128.399 157.777 128.154C157.777 127.124 157.777 125.936 157.777 124.602C157.777 119.253 157.756 111.52 157.743 101.968C157.743 100.775 157.743 99.553 157.743 98.3005V96.4047C157.743 95.7656 157.807 95.1179 157.546 94.526C157.365 94.0788 157.066 93.6896 156.682 93.4001C156.297 93.1107 155.841 92.932 155.362 92.8832C155.042 92.8575 154.695 92.8832 154.362 92.8832H150.237H132.362H91.4058C90.9692 92.8887 90.5401 92.9974 90.1534 93.2006C89.7731 93.4139 89.4493 93.7154 89.2088 94.0799C88.9678 94.4441 88.8209 94.8627 88.7813 95.2981C88.7813 95.727 88.7813 96.1945 88.7813 96.6406V112.511C88.7813 115.942 88.7813 119.315 88.7813 122.629C88.7813 124.285 88.7813 125.92 88.7813 127.536C88.7813 127.939 88.7813 128.351 88.7813 128.741C88.7983 129.128 88.9005 129.506 89.0805 129.848C89.2616 130.186 89.5135 130.481 89.819 130.712C90.1245 130.943 90.4763 131.105 90.8501 131.186C91.2303 131.245 91.6156 131.265 91.9999 131.246H108.7H124.275L146.826 131.285H152.956H154.55H155.093C155.093 131.285 154.909 131.285 154.55 131.285H152.956H146.826L124.275 131.319H108.7H100.023H92.0042C91.6055 131.34 91.2058 131.318 90.8116 131.255C90.4088 131.167 90.0296 130.993 89.7004 130.745C89.3712 130.496 89.0999 130.178 88.9053 129.813C88.7089 129.445 88.5965 129.038 88.5762 128.621C88.5762 128.192 88.5762 127.81 88.5762 127.403C88.5762 125.784 88.5762 124.149 88.5762 122.496C88.5762 119.188 88.5762 115.815 88.5762 112.378V96.5076C88.5762 96.0573 88.5762 95.6155 88.5762 95.1479C88.608 94.679 88.7548 94.2251 89.0036 93.8269C89.2633 93.4293 89.6153 93.1011 90.0294 92.8704C90.4491 92.6496 90.9149 92.532 91.3887 92.5272H132.345H150.22H154.345C154.687 92.5272 155.012 92.5272 155.362 92.5272C155.898 92.5866 156.405 92.7994 156.823 93.1401C157.242 93.4808 157.553 93.9351 157.722 94.4488C157.849 94.7592 157.917 95.091 157.922 95.4267C157.922 95.7527 157.922 96.0744 157.922 96.3918C157.922 97.0309 157.922 97.6786 157.922 98.2876V101.955C157.922 111.507 157.893 119.241 157.884 124.589C157.884 125.923 157.884 127.111 157.884 128.141C157.884 128.394 157.884 128.643 157.884 128.883C157.856 129.111 157.801 129.336 157.722 129.552C157.584 129.925 157.366 130.263 157.085 130.543C156.7 130.922 156.212 131.18 155.683 131.285C155.549 131.309 155.413 131.322 155.277 131.323L155.097 131.328Z" fill="#263238"/>
<path d="M112.768 106.394V106.875H110.764V104.301H112.717V104.786H111.362V105.348H112.559V105.815H111.362V106.416L112.768 106.394Z" fill="#263238"/>
<path d="M115.616 104.28V106.853H115.124L113.842 105.279V106.853H113.252V104.28H113.748L115.03 105.854V104.28H115.616Z" fill="#263238"/>
<path d="M116.76 104.769H115.936V104.28H118.188V104.769H117.359V106.875H116.76V104.769Z" fill="#263238"/>
<path d="M120.509 106.394V106.875H118.509V104.301H120.462V104.786H119.103V105.348H120.304V105.815H119.103V106.416L120.509 106.394Z" fill="#263238"/>
<path d="M122.634 106.875L122.134 106.15H121.587V106.875H120.988V104.301H122.104C122.796 104.301 123.228 104.661 123.228 105.245C123.233 105.419 123.185 105.591 123.091 105.737C122.996 105.884 122.859 105.998 122.698 106.064L123.275 106.896L122.634 106.875ZM122.074 104.769H121.587V105.674H122.074C122.437 105.674 122.621 105.502 122.621 105.223C122.621 104.945 122.437 104.769 122.074 104.769Z" fill="#263238"/>
<path d="M124.583 105.579C124.6 105.3 124.698 105.031 124.865 104.808C125.033 104.584 125.262 104.414 125.525 104.32C125.788 104.226 126.073 104.211 126.344 104.278C126.615 104.345 126.86 104.49 127.049 104.696L126.665 105.052C126.586 104.955 126.487 104.877 126.375 104.825C126.262 104.772 126.139 104.745 126.015 104.747C125.806 104.762 125.61 104.856 125.467 105.01C125.325 105.164 125.245 105.367 125.245 105.577C125.245 105.788 125.325 105.99 125.467 106.144C125.61 106.298 125.806 106.392 126.015 106.407C126.14 106.409 126.263 106.382 126.376 106.329C126.488 106.275 126.587 106.196 126.665 106.098L127.049 106.454C126.862 106.661 126.619 106.808 126.35 106.877C126.08 106.946 125.797 106.934 125.534 106.843C125.271 106.751 125.041 106.584 124.872 106.363C124.703 106.141 124.602 105.875 124.583 105.597V105.579Z" fill="#263238"/>
<path d="M127.233 105.579C127.216 105.294 127.284 105.011 127.43 104.766C127.575 104.52 127.791 104.325 128.048 104.204C128.306 104.083 128.594 104.042 128.874 104.087C129.155 104.133 129.416 104.261 129.623 104.457C129.83 104.653 129.973 104.907 130.035 105.185C130.097 105.464 130.073 105.755 129.968 106.02C129.863 106.285 129.681 106.512 129.446 106.672C129.21 106.832 128.932 106.918 128.648 106.918C128.466 106.928 128.284 106.901 128.113 106.839C127.942 106.776 127.786 106.679 127.653 106.554C127.521 106.429 127.415 106.278 127.343 106.11C127.271 105.943 127.233 105.762 127.233 105.579ZM129.456 105.579C129.452 105.42 129.402 105.265 129.311 105.134C129.221 105.003 129.093 104.901 128.945 104.843C128.797 104.784 128.636 104.77 128.48 104.803C128.324 104.837 128.182 104.915 128.071 105.029C127.96 105.143 127.884 105.288 127.854 105.444C127.825 105.601 127.842 105.763 127.903 105.91C127.965 106.058 128.068 106.183 128.201 106.272C128.333 106.36 128.489 106.407 128.648 106.407C128.756 106.41 128.864 106.39 128.964 106.349C129.064 106.308 129.155 106.247 129.231 106.169C129.306 106.091 129.365 105.999 129.404 105.898C129.443 105.796 129.46 105.688 129.456 105.579Z" fill="#263238"/>
<path d="M130.516 104.28H131.687C132.027 104.28 132.353 104.415 132.594 104.657C132.834 104.898 132.969 105.225 132.969 105.566C132.969 105.908 132.834 106.235 132.594 106.476C132.353 106.718 132.027 106.853 131.687 106.853H130.516V104.28ZM131.648 106.373C131.758 106.381 131.869 106.366 131.973 106.329C132.078 106.293 132.173 106.235 132.254 106.159C132.335 106.084 132.399 105.992 132.444 105.891C132.488 105.789 132.51 105.679 132.51 105.569C132.51 105.458 132.488 105.348 132.444 105.246C132.399 105.145 132.335 105.053 132.254 104.978C132.173 104.903 132.078 104.845 131.973 104.808C131.869 104.771 131.758 104.756 131.648 104.764H131.101V106.373H131.648Z" fill="#263238"/>
<path d="M135.564 106.394V106.875H133.563V104.301H135.517V104.786H134.158V105.348H135.359V105.815H134.158V106.416L135.564 106.394Z" fill="#263238"/>
<path d="M102.963 111.014H96.6844C95.752 111.014 94.9961 111.772 94.9961 112.708V122.518C94.9961 123.453 95.752 124.212 96.6844 124.212H102.963C103.896 124.212 104.652 123.453 104.652 122.518V112.708C104.652 111.772 103.896 111.014 102.963 111.014Z" fill="#EBEBEB"/>
<path d="M115.021 111.014H108.742C107.81 111.014 107.054 111.772 107.054 112.708V122.518C107.054 123.453 107.81 124.212 108.742 124.212H115.021C115.953 124.212 116.709 123.453 116.709 122.518V112.708C116.709 111.772 115.953 111.014 115.021 111.014Z" fill="#EBEBEB"/>
<path d="M127.079 111.014H120.8C119.867 111.014 119.111 111.772 119.111 112.708V122.518C119.111 123.453 119.867 124.212 120.8 124.212H127.079C128.011 124.212 128.767 123.453 128.767 122.518V112.708C128.767 111.772 128.011 111.014 127.079 111.014Z" fill="#EBEBEB"/>
<path d="M139.132 111.014H132.853C131.921 111.014 131.165 111.772 131.165 112.708V122.518C131.165 123.453 131.921 124.212 132.853 124.212H139.132C140.065 124.212 140.821 123.453 140.821 122.518V112.708C140.821 111.772 140.065 111.014 139.132 111.014Z" fill="#EBEBEB"/>
<path d="M151.19 111.014H144.911C143.979 111.014 143.223 111.772 143.223 112.708V122.518C143.223 123.453 143.979 124.212 144.911 124.212H151.19C152.122 124.212 152.878 123.453 152.878 122.518V112.708C152.878 111.772 152.122 111.014 151.19 111.014Z" fill="#EBEBEB"/>
<path d="M101.929 118.631C101.929 119.575 101.203 120.188 100.22 120.188C98.8691 120.188 98.1553 119.215 98.1553 117.615C98.1553 115.869 99.0828 114.973 100.438 114.973C100.843 114.954 101.247 115.046 101.605 115.239L101.451 115.539C101.141 115.368 100.791 115.287 100.438 115.303C99.288 115.303 98.5314 116.062 98.5314 117.555C98.5313 117.763 98.5456 117.971 98.5742 118.177C98.6937 117.844 98.9185 117.56 99.2141 117.368C99.5098 117.176 99.86 117.086 100.211 117.113C101.237 117.096 101.929 117.705 101.929 118.631ZM101.553 118.631C101.553 117.898 101.023 117.418 100.16 117.418C99.2965 117.418 98.7366 117.954 98.7366 118.657C98.7366 119.258 99.2409 119.862 100.203 119.862C100.373 119.881 100.546 119.864 100.71 119.811C100.873 119.758 101.024 119.671 101.151 119.555C101.279 119.44 101.38 119.298 101.45 119.141C101.519 118.983 101.554 118.812 101.553 118.64V118.631Z" fill="url(#paint11_linear_1708_11506)"/>
<path d="M113.855 118.722H112.778V120.15H112.414V118.722H109.486V118.447L112.273 115.016H112.701L109.965 118.413H112.414V117.152H112.773V118.383H113.85L113.855 118.722Z" fill="url(#paint12_linear_1708_11506)"/>
<path d="M126.289 120.883C124.801 121.032 123.302 121.032 121.813 120.883C123.302 120.735 124.801 120.735 126.289 120.883Z" fill="url(#paint13_linear_1708_11506)"/>
<path d="M93.0638 97.6657C93.6422 97.6657 94.111 97.1952 94.111 96.6148C94.111 96.0344 93.6422 95.564 93.0638 95.564C92.4854 95.564 92.0166 96.0344 92.0166 96.6148C92.0166 97.1952 92.4854 97.6657 93.0638 97.6657Z" fill="#263238"/>
<path d="M97.1286 96.6148C97.1286 96.8227 97.0672 97.0258 96.9521 97.1987C96.837 97.3715 96.6735 97.5062 96.4821 97.5857C96.2908 97.6652 96.0802 97.686 95.8771 97.6455C95.6739 97.6049 95.4874 97.5049 95.3409 97.3579C95.1944 97.2109 95.0947 97.0237 95.0543 96.8198C95.0139 96.616 95.0346 96.4047 95.1139 96.2127C95.1932 96.0207 95.3274 95.8565 95.4996 95.7411C95.6718 95.6256 95.8743 95.564 96.0814 95.564C96.3591 95.564 96.6255 95.6747 96.8219 95.8718C97.0183 96.0688 97.1286 96.3361 97.1286 96.6148Z" fill="#263238"/>
<path d="M99.0443 98.1017C99.6226 98.1017 100.091 97.6312 100.091 97.0509C100.091 96.4705 99.6226 96 99.0443 96C98.4659 96 97.9971 96.4705 97.9971 97.0509C97.9971 97.6312 98.4659 98.1017 99.0443 98.1017Z" fill="#263238"/>
<path d="M157.926 99.5744C157.926 99.6387 142.445 99.6859 123.352 99.6859C104.258 99.6859 88.7725 99.6387 88.7725 99.5744C88.7725 99.5101 104.25 99.4629 123.352 99.4629C142.453 99.4629 157.926 99.5101 157.926 99.5744Z" fill="#263238"/>
<path d="M163.906 166.452C169.501 164.071 175.981 159.379 178.866 153.631C172.658 156.216 167.422 160.703 163.906 166.452Z" fill="#263238"/>
<path d="M165.1 157.53C170.695 155.146 177.17 150.458 180.06 144.71C173.849 147.291 168.612 151.779 165.1 157.53Z" fill="#263238"/>
<path d="M166.697 148.836C172.297 146.451 178.772 141.763 181.657 136.011C175.448 138.597 170.213 143.086 166.697 148.836Z" fill="#263238"/>
<path d="M168.745 139.769C174.024 136.625 179.91 131.074 182.102 124.979C176.235 128.407 171.569 133.573 168.745 139.769Z" fill="#263238"/>
<path d="M170.916 132.816C174.763 127.767 178.349 120.253 178.302 113.742C174.025 119.233 171.456 125.868 170.916 132.816Z" fill="#263238"/>
<path d="M169.84 136.119C169.062 129.294 166.42 120.707 161.924 115.59C162.683 123.021 165.417 130.111 169.84 136.119Z" fill="#263238"/>
<path d="M168.031 143.586C166.659 136.548 163.201 127.845 158.098 122.908C159.494 130.572 162.926 137.716 168.031 143.586Z" fill="#263238"/>
<path d="M165.954 152.696C164.582 145.658 161.141 136.951 156.012 132.014C157.411 139.68 160.846 146.825 165.954 152.696Z" fill="#263238"/>
<path d="M164.287 163.874C162.915 156.836 159.453 148.133 154.354 143.196C155.75 150.86 159.181 158.004 164.287 163.874Z" fill="#263238"/>
<path d="M171.177 131.478C171.156 131.509 171.14 131.544 171.13 131.581C171.104 131.666 171.07 131.769 171.027 131.898C170.933 132.194 170.801 132.597 170.639 133.116C170.301 134.171 169.848 135.715 169.313 137.624C168.779 139.533 168.189 141.828 167.582 144.38C166.975 146.932 166.373 149.758 165.813 152.735C165.253 155.712 164.804 158.564 164.436 161.168C164.069 163.771 163.8 166.113 163.607 168.091C163.415 170.068 163.278 171.668 163.21 172.774C163.176 173.315 163.15 173.744 163.129 174.061C163.129 174.194 163.129 174.306 163.129 174.391C163.124 174.43 163.124 174.469 163.129 174.507C163.139 174.471 163.146 174.433 163.15 174.396C163.15 174.306 163.171 174.198 163.184 174.065C163.214 173.757 163.257 173.332 163.308 172.779C163.402 171.672 163.56 170.076 163.774 168.103C163.988 166.13 164.283 163.788 164.65 161.189C165.018 158.59 165.505 155.746 166.039 152.769C166.574 149.793 167.202 146.979 167.788 144.423C168.373 141.866 168.959 139.576 169.497 137.663C170.036 135.75 170.442 134.201 170.754 133.138C170.904 132.614 171.019 132.203 171.104 131.907C171.139 131.774 171.164 131.671 171.19 131.585C171.187 131.549 171.183 131.513 171.177 131.478Z" fill="#263238"/>
<path d="M161.179 170.171C163.551 165.182 165.278 158.161 164.116 152.701C161.463 158.113 160.442 164.185 161.179 170.171Z" fill="#455A64"/>
<path d="M157.235 163.716C159.607 158.727 161.334 151.706 160.167 146.241C157.514 151.655 156.494 157.728 157.235 163.716Z" fill="#455A64"/>
<path d="M153.696 157.149C156.068 152.16 157.795 145.139 156.628 139.674C153.975 145.088 152.955 151.162 153.696 157.149Z" fill="#455A64"/>
<path d="M150.208 150.067C151.969 144.787 152.858 137.594 151.063 132.327C149.071 138.032 148.774 144.195 150.208 150.067Z" fill="#455A64"/>
<path d="M147.937 144.268C147.762 138.654 146.117 131.619 142.642 127.472C142.719 133.472 144.562 139.315 147.937 144.268Z" fill="#455A64"/>
<path d="M148.985 147.052C144.869 143.153 138.611 139.284 132.986 138.778C137.386 143.064 142.954 145.943 148.985 147.052Z" fill="#455A64"/>
<path d="M151.763 152.958C147.147 149.291 140.295 145.847 134.371 145.834C139.335 149.888 145.39 152.368 151.763 152.958Z" fill="#455A64"/>
<path d="M155.23 160.083C150.618 156.415 143.766 152.971 137.838 152.958C142.802 157.012 148.857 159.492 155.23 160.083Z" fill="#455A64"/>
<path d="M160.064 168.283C155.452 164.616 148.596 161.172 142.672 161.159C147.636 165.214 153.69 167.694 160.064 168.283Z" fill="#455A64"/>
<path d="M147.399 143.26C147.399 143.26 147.399 143.294 147.425 143.354L147.519 143.62L147.904 144.628C148.241 145.486 148.759 146.773 149.413 148.304C150.729 151.393 152.682 155.596 155.106 160.117C156.32 162.373 157.534 164.488 158.675 166.392C159.816 168.296 160.893 169.982 161.821 171.376C162.748 172.77 163.531 173.898 164.061 174.657C164.326 175.026 164.535 175.322 164.693 175.537L164.86 175.76C164.877 175.787 164.899 175.812 164.924 175.833C164.911 175.802 164.896 175.774 164.877 175.747L164.727 175.511C164.578 175.292 164.381 174.992 164.129 174.61C163.599 173.838 162.847 172.706 161.945 171.295C161.043 169.883 159.979 168.193 158.842 166.293C157.705 164.393 156.504 162.27 155.29 160.018C152.866 155.51 150.9 151.315 149.549 148.249C148.874 146.713 148.34 145.465 147.981 144.598L147.553 143.603C147.506 143.5 147.472 143.415 147.438 143.346L147.399 143.26Z" fill="#263238"/>
<path d="M149.878 170.771H173.455V175.335H171.031L168.993 188.34H154.417L152.319 175.335H149.878V170.771Z" fill="url(#paint14_linear_1708_11506)"/>
<path d="M149.878 175.236C149.878 175.176 155.118 175.129 161.581 175.129C168.044 175.129 173.284 175.176 173.284 175.236C173.284 175.296 168.048 175.348 161.581 175.348C155.114 175.348 149.878 175.301 149.878 175.236Z" fill="#263238"/>
<path d="M14.8237 188.344H10.9982L9.5791 171.059H14.0842L14.8237 188.344Z" fill="#263238"/>
<path d="M47.9873 188.344H51.8171L53.2362 171.059H48.7268L47.9873 188.344Z" fill="#263238"/>
<path d="M55.8652 173.246L6.60818 174.408L5.12927 142.484C5.09406 141.744 5.20845 141.005 5.46555 140.312C5.72264 139.618 6.11712 138.983 6.62518 138.447C7.13324 137.91 7.74437 137.482 8.42169 137.189C9.09902 136.896 9.82852 136.743 10.5662 136.74H52.5356C53.2848 136.741 54.026 136.896 54.713 137.196C55.4 137.496 56.0182 137.935 56.5292 138.485C57.0403 139.034 57.4332 139.684 57.6837 140.392C57.9342 141.101 58.0369 141.854 57.9853 142.604L55.8652 173.246Z" fill="url(#paint15_linear_1708_11506)"/>
<path d="M58.3915 142.372H58.2547H57.8486L56.2971 142.394H50.5866C45.7652 142.394 39.1058 142.347 31.754 142.518C24.398 142.763 17.73 142.724 12.9129 142.651C10.5022 142.613 8.54884 142.565 7.20244 142.522L5.65087 142.471H5.24908C5.20371 142.477 5.15767 142.477 5.1123 142.471C5.15764 142.464 5.20375 142.464 5.24908 142.471H5.65087H7.20244L12.9129 142.527C17.7343 142.557 24.3937 142.574 31.7455 142.329C39.1058 142.158 45.7652 142.239 50.5866 142.269L56.2971 142.321H57.8486H58.2547L58.3915 142.372Z" fill="#263238"/>
<path d="M23.0814 137.255C21.9741 137.415 20.8967 137.739 19.8842 138.216C18.9036 138.763 18.0079 139.451 17.2256 140.258C17.3814 139.959 17.5883 139.691 17.8368 139.464C18.9675 138.277 20.4588 137.5 22.0769 137.255C22.4091 137.196 22.7492 137.196 23.0814 137.255Z" fill="#263238"/>
<path d="M43.3376 79.1963L49.3558 90.2325L58.178 85.2827L62.4523 86.7024C62.4523 86.7024 51.6468 98.4764 49.8901 99.0811C48.1333 99.6859 44.8079 99.7889 42.9059 97.4041C41.1961 95.2294 36.1396 83.8158 36.1396 83.8158L43.3376 79.1963Z" fill="#FFBE9D"/>
<path d="M68.1238 71.9903C68.0465 71.8952 67.9462 71.8215 67.8324 71.7765C67.7187 71.7314 67.5953 71.7164 67.4741 71.733L63.2596 72.312C63.0779 72.3398 62.904 72.4057 62.7493 72.5055C62.5946 72.6053 62.4627 72.7367 62.362 72.8911L53.6553 86.3249L54.3221 86.7024L58.9853 86.5566L68.2648 72.1533L68.1238 71.9903Z" fill="#263238"/>
<path d="M65.1533 73.7361C65.2109 73.7704 65.2792 73.7819 65.3448 73.7684C65.4104 73.7549 65.4686 73.7174 65.5081 73.6632C65.5577 73.6179 65.5881 73.5553 65.5928 73.4882C65.5976 73.4211 65.5765 73.3547 65.5338 73.3029C65.4774 73.2668 65.4092 73.2542 65.3437 73.2678C65.2783 73.2814 65.2207 73.3202 65.1833 73.3758C65.1321 73.4198 65.1002 73.4823 65.0946 73.5498C65.089 73.6172 65.1101 73.6841 65.1533 73.7361Z" fill="white"/>
<path d="M68.2562 72.1534C67.9899 72.2279 67.7184 72.2824 67.4441 72.3164L65.2214 72.6595L63.687 72.8868C63.5574 72.8986 63.4319 72.9389 63.3196 73.0049C63.2073 73.0709 63.1109 73.1609 63.0373 73.2686L62.5415 74.0406C61.8533 75.1044 61.1053 76.2668 60.3145 77.472C58.733 79.9083 57.2841 82.1087 56.2283 83.6914L54.946 85.5615C54.8017 85.7981 54.6357 86.0207 54.4502 86.2263C54.5751 85.9774 54.718 85.738 54.8776 85.51L56.0744 83.5928C57.0917 81.9843 58.5151 79.771 60.1008 77.3305L62.3406 73.8991L62.8492 73.127C62.9397 72.995 63.0584 72.8849 63.1967 72.8048C63.3349 72.7246 63.4893 72.6765 63.6485 72.6638L65.1915 72.4665L67.427 72.2006C67.7018 72.1641 67.979 72.1483 68.2562 72.1534Z" fill="#455A64"/>
<path d="M63.6019 76.9573C63.6019 76.9573 63.2301 76.8887 63.0249 77.9181C62.8197 78.9475 62.1701 81.8856 62.1701 81.8856L60.2082 80.8433L57.759 81.1607C57.759 81.1607 57.2247 81.6583 57.6179 81.9285C58.0112 82.1987 59.5585 82.4732 59.5585 82.4732L60.6997 84.1203L57.4213 82.5376C57.4213 82.5376 56.3271 82.8207 56.6477 83.4941C56.9682 84.1675 59.178 86.2606 59.178 86.2606L57.5367 86.1319L55.5663 84.9267C55.5663 84.9267 54.9679 84.9524 55.1901 85.4671C55.4124 85.9818 57.4469 87.8305 57.4469 87.8305L59.909 89.0272C59.909 89.0272 61.2554 88.9242 61.3836 88.5253C61.4706 88.2115 61.5251 87.8896 61.546 87.5645C61.546 87.5645 62.2598 87.3715 62.4009 87.0241C62.4794 86.732 62.4954 86.4264 62.4479 86.1277C62.4479 86.1277 63.5678 86.325 63.7302 85.6987C63.828 84.9168 63.7962 84.124 63.6361 83.3525C63.525 82.8721 64.1149 78.3899 64.0636 78.2569C64.0123 78.124 64.3072 76.6613 63.6019 76.9573Z" fill="#FFBE9D"/>
<path d="M61.4776 88.5468C61.2849 88.6687 61.064 88.7382 60.8364 88.7484C59.7442 88.9075 58.6327 88.6421 57.729 88.0064C57.3871 87.7619 57.2246 87.5775 57.246 87.5389C57.2674 87.5003 58.071 88.1522 59.2678 88.4267C60.4646 88.7013 61.4647 88.4696 61.4776 88.5468Z" fill="#EB996E"/>
<path d="M60.8914 87.6632C60.853 87.719 60.417 87.4874 59.9511 87.1056C59.4852 86.7239 59.1774 86.3379 59.2245 86.2864C59.2715 86.2349 59.6519 86.5352 60.1135 86.9083C60.5751 87.2815 60.9342 87.6032 60.8914 87.6632Z" fill="#EB996E"/>
<path d="M62.1909 85.5271C62.1524 85.5872 61.7164 85.3641 61.2804 84.9567C60.8445 84.5492 60.588 84.1374 60.6393 84.0988C60.6906 84.0602 61.0283 84.3862 61.4514 84.7722C61.8746 85.1583 62.2293 85.4714 62.1909 85.5271Z" fill="#EB996E"/>
<path d="M63.5507 83.8115C63.4866 83.8416 63.2387 83.3826 62.8455 82.8722C62.4523 82.3618 62.0761 82.0143 62.1231 81.9457C62.1701 81.8771 62.636 82.1773 63.0464 82.7178C63.3296 83.0169 63.5069 83.4013 63.5507 83.8115Z" fill="#EB996E"/>
<path d="M65.2174 163.359C65.25 163.226 65.25 163.086 65.2174 162.952C65.1507 162.581 65.0049 162.228 64.79 161.918C64.7206 161.809 64.6388 161.708 64.5463 161.618C64.4853 161.561 64.4104 161.522 64.3293 161.504C64.2483 161.486 64.1638 161.49 64.0847 161.515C64.0379 161.532 63.9955 161.559 63.9607 161.595C63.9259 161.631 63.8996 161.674 63.8838 161.721C63.8538 161.81 63.8538 161.906 63.8838 161.995C63.9413 162.145 64.0129 162.289 64.0975 162.424C64.2557 162.695 64.3882 162.961 64.5891 163.282C64.65 163.369 64.7328 163.437 64.829 163.481C64.9251 163.525 65.0312 163.542 65.1362 163.531C65.3281 163.497 65.5088 163.416 65.6619 163.295C65.944 163.087 66.202 162.848 66.4313 162.583C66.5424 162.454 66.645 162.317 66.739 162.184C66.8438 162.048 66.9207 161.892 66.9656 161.725C66.9911 161.628 66.982 161.525 66.9398 161.435C66.8977 161.344 66.8251 161.27 66.7348 161.228C66.6501 161.203 66.5607 161.201 66.4748 161.221C66.3889 161.24 66.3093 161.281 66.2432 161.339C66.0485 161.513 65.8762 161.71 65.7303 161.927C65.5142 162.229 65.3429 162.562 65.2217 162.913C65.165 163.037 65.1358 163.172 65.1362 163.308C65.3366 162.856 65.5814 162.425 65.8671 162.021C66.0105 161.826 66.177 161.649 66.3629 161.494C66.4019 161.459 66.4486 161.434 66.4991 161.42C66.5495 161.407 66.6025 161.406 66.6535 161.416C66.6955 161.443 66.7276 161.482 66.7446 161.529C66.7616 161.576 66.7627 161.626 66.7476 161.674C66.7033 161.808 66.6352 161.933 66.5467 162.043C66.4558 162.173 66.3573 162.297 66.2518 162.416C66.0342 162.667 65.789 162.893 65.5209 163.089C65.397 163.189 65.2499 163.255 65.0934 163.282C65.0297 163.29 64.9649 163.28 64.9067 163.253C64.8485 163.225 64.7992 163.182 64.7643 163.128C64.5933 162.883 64.4352 162.579 64.277 162.326C64.2001 162.206 64.1316 162.082 64.0719 161.953C64.0334 161.837 64.0719 161.764 64.136 161.73C64.3198 161.652 64.4993 161.863 64.6275 162.043C64.9049 162.44 65.105 162.887 65.2174 163.359Z" fill="#263238"/>
<path d="M54.7151 163.72L49.5005 175.06L41.0801 171.162L46.4785 157.123L54.7151 163.72Z" fill="#FFBE9D"/>
<path d="M50.4838 174.306L47.4448 180.148C47.4448 180.148 55.2454 188.237 54.5145 190.047L36.1777 181.224L41.2043 169.519L50.4838 174.306Z" fill="#455A64"/>
<path d="M42.149 176.613C41.9473 176.582 41.7412 176.626 41.5701 176.738C41.3989 176.849 41.2748 177.02 41.2215 177.218C41.1827 177.42 41.2227 177.629 41.3333 177.802C41.4438 177.976 41.6165 178.1 41.8156 178.149C42.0301 178.18 42.2486 178.131 42.4292 178.011C42.6098 177.89 42.7399 177.707 42.7944 177.497C42.8126 177.282 42.747 177.069 42.6115 176.901C42.4759 176.734 42.281 176.626 42.0678 176.6" fill="#E0E0E0"/>
<g opacity="0.6">
<path d="M36.1689 181.216L36.9298 179.749L54.2279 188.756C54.2279 188.756 54.8733 189.507 54.5057 190.043L36.1689 181.216Z" fill="white"/>
</g>
<path d="M47.7781 180.186C47.7353 180.276 47.2651 180.1 46.6881 180.186C46.1111 180.272 45.6922 180.529 45.6281 180.452C45.564 180.375 45.9444 179.92 46.6454 179.843C47.3463 179.766 47.8379 180.113 47.7781 180.186Z" fill="#263238"/>
<path d="M49.3211 181.91C49.3211 182.005 48.8381 181.975 48.3551 182.206C47.8721 182.438 47.5857 182.798 47.5002 182.755C47.4147 182.712 47.5985 182.172 48.2098 181.897C48.821 181.623 49.3596 181.825 49.3211 181.91Z" fill="#263238"/>
<path d="M49.3084 184.746C49.2187 184.724 49.3084 184.218 49.7743 183.836C50.2402 183.454 50.7531 183.459 50.7531 183.553C50.7531 183.648 50.3727 183.785 49.9923 184.102C49.6119 184.42 49.4025 184.78 49.3084 184.746Z" fill="#263238"/>
<path d="M48.6546 177.939C48.5777 178.003 48.2272 177.681 47.7015 177.475C47.1757 177.269 46.7098 177.235 46.7013 177.136C46.6927 177.038 47.2227 176.896 47.834 177.136C48.4452 177.377 48.7273 177.891 48.6546 177.939Z" fill="#263238"/>
<path d="M52.202 172.791L65.9524 138.267C65.9524 138.267 65.6404 132.374 64.559 130.513C63.4776 128.651 30.7279 117.804 30.7279 117.804C30.7279 117.804 22.3845 115.788 16.8236 117.804C11.2627 119.82 7.09101 126.811 7.84756 130.671C8.60412 134.532 11.8782 137.392 11.8782 137.392L35.981 138.113L49.1074 142.921L40.2682 168.339L52.202 172.791Z" fill="#263238"/>
<path d="M64.4312 149.201L64.7432 161.687L55.4723 161.914L54.1387 146.927L64.4312 149.201Z" fill="#FFBE9D"/>
<path d="M65.294 160.572L65.1231 167.155C65.1231 167.155 75.6806 170.96 75.8088 172.907L55.4717 173.113L54.8477 160.387L65.294 160.572Z" fill="#455A64"/>
<path d="M58.8273 166.332C58.6323 166.394 58.4668 166.525 58.3627 166.702C58.2586 166.878 58.2231 167.087 58.2631 167.288C58.3165 167.487 58.4441 167.657 58.6193 167.763C58.7944 167.869 59.0037 167.904 59.2034 167.859C59.4123 167.797 59.5897 167.657 59.6993 167.468C59.809 167.279 59.8426 167.055 59.7933 166.842C59.7106 166.646 59.5579 166.488 59.3651 166.398C59.1723 166.308 58.9531 166.294 58.7504 166.358" fill="#E0E0E0"/>
<g opacity="0.6">
<path d="M55.4844 173.113L55.5271 171.462L75.0094 171.891C75.0094 171.891 75.9155 172.277 75.8215 172.916L55.4844 173.113Z" fill="white"/>
</g>
<path d="M65.4526 167.048C65.4526 167.147 64.9525 167.198 64.4695 167.52C63.9865 167.842 63.7258 168.266 63.6147 168.232C63.5035 168.198 63.666 167.614 64.2601 167.233C64.8542 166.851 65.474 166.954 65.4526 167.048Z" fill="#263238"/>
<path d="M67.5942 167.91C67.6155 168.005 67.1881 168.181 66.8547 168.605C66.5213 169.03 66.4273 169.463 66.3332 169.463C66.2392 169.463 66.1623 168.897 66.5897 168.378C67.0171 167.859 67.5899 167.816 67.5942 167.91Z" fill="#263238"/>
<path d="M68.816 170.458C68.7262 170.458 68.5852 169.986 68.816 169.437C69.0468 168.888 69.5298 168.665 69.5725 168.751C69.6153 168.837 69.3289 169.124 69.1451 169.579C68.9613 170.033 68.9271 170.45 68.816 170.458Z" fill="#263238"/>
<path d="M65.2472 164.642C65.2088 164.736 64.7514 164.603 64.1915 164.642C63.6316 164.681 63.1913 164.869 63.14 164.784C63.0887 164.698 63.5033 164.355 64.1658 164.295C64.8284 164.235 65.2943 164.565 65.2472 164.642Z" fill="#263238"/>
<path d="M59.0199 114.522C59.0199 114.522 64.5765 114.093 65.1877 120.124C65.7989 126.155 66.4144 154.382 66.4144 154.382L53.4291 155.472L51.4202 126.639L30.7197 117.804C30.7197 117.804 55.3098 113.75 59.0199 114.522Z" fill="#263238"/>
<path d="M36.1306 106.373C36.1306 106.373 39.4987 115.856 38.8576 116.911C38.2164 117.967 29.5481 122.316 29.5481 122.316L7.86461 130.671C7.86461 130.671 5.6377 127.116 5.6377 121.664C5.6377 116.212 13.1818 106.373 13.1818 106.373H36.1306Z" fill="#263238"/>
<path d="M29.7021 117.319L29.8047 117.375L30.1125 117.516L31.3136 118.052L35.8229 120.025L51.3814 126.747L51.313 126.648C51.5096 129.496 51.7405 132.571 51.9413 135.754C52.4714 143.192 52.9544 150.054 53.3433 155.485V155.583H53.4416L62.8964 154.751L65.4994 154.507L66.1791 154.434C66.2568 154.429 66.334 154.417 66.4099 154.399H66.1748L65.4952 154.442L62.8878 154.635L53.4288 155.377L53.5357 155.467C53.1638 150.037 52.6808 143.179 52.185 135.737C51.9627 132.554 51.7575 129.479 51.5438 126.631V126.558L51.4797 126.532L35.8785 119.888L31.3435 117.98L30.1296 117.478L29.8133 117.353L29.7021 117.319Z" fill="#455A64"/>
<path d="M12.4551 118.267C12.6643 118.234 12.8693 118.178 13.0663 118.1L14.6991 117.572C16.4805 116.966 18.3071 116.503 20.1616 116.187C22.0166 115.883 23.9102 115.907 25.7567 116.259C26.5141 116.438 27.2617 116.655 27.9964 116.911C27.8212 116.792 27.6316 116.696 27.4322 116.624C26.9011 116.4 26.352 116.223 25.7909 116.092C23.9295 115.683 22.0074 115.633 20.1275 115.946C18.258 116.261 16.422 116.751 14.6435 117.409C13.9596 117.653 13.4125 117.864 13.0321 118.009C12.8315 118.075 12.6381 118.161 12.4551 118.267Z" fill="#455A64"/>
<path d="M15.5195 113.27C16.1516 113.232 16.7853 113.232 17.4173 113.27C18.0029 113.313 18.6996 113.403 19.469 113.493C20.2384 113.583 21.0889 113.69 21.9695 113.858C23.475 114.099 24.9186 114.636 26.2181 115.436C26.7357 115.8 27.2283 116.198 27.6927 116.628C27.609 116.477 27.5023 116.34 27.3764 116.221C27.0559 115.875 26.6991 115.564 26.3121 115.294C25.0155 114.432 23.5489 113.86 22.0122 113.617C21.1231 113.45 20.2683 113.351 19.4946 113.27C18.721 113.188 18.02 113.12 17.4259 113.098C16.9576 113.076 16.4883 113.098 16.0239 113.163C15.8515 113.174 15.6817 113.21 15.5195 113.27Z" fill="#455A64"/>
<path d="M25.0991 37.0718C22.6072 36.6429 20.3974 37.6122 18.3072 39.0234C16.1688 40.5329 14.5395 42.6603 13.6361 45.1223C12.7328 47.5843 12.5983 50.2641 13.2507 52.8047C13.6104 54.0961 14.2278 55.3007 15.0654 56.3455C15.903 57.3903 16.9434 58.2534 18.1234 58.8825C21.3676 60.5382 25.518 59.9634 28.4202 57.7587C31.3225 55.5541 32.9852 51.9125 33.122 48.2624C33.2495 45.7275 32.578 43.2167 31.2028 41.0865C30.5132 40.0312 29.6141 39.1299 28.5617 38.4391C27.5093 37.7484 26.3261 37.2829 25.0863 37.0718" fill="#263238"/>
<path d="M18.003 45.5859C18.3663 44.6294 18.2252 43.5613 18.3706 42.5448C18.6911 40.3101 20.4821 38.5172 22.5594 37.6465C24.4914 36.8358 26.8337 37.0117 29.176 37.7666C30.7939 38.2557 32.2385 39.1994 33.3392 40.486C34.0389 41.3579 34.5205 42.3853 34.7435 43.4822C34.9666 44.5792 34.9248 45.7138 34.6215 46.7911L23.2219 45.1269C22.1576 46.0105 21.0847 46.9112 19.7683 47.4045C19.3957 47.5718 18.9861 47.6383 18.58 47.5975C18.3779 47.5734 18.187 47.4914 18.0301 47.3613C17.8732 47.2313 17.757 47.0586 17.6952 46.864C17.5884 46.4308 17.8448 46.0019 18.003 45.5859Z" fill="#263238"/>
<path d="M29.4203 40.9235L19.4697 43.0381C19.005 43.0692 18.5688 43.2742 18.2474 43.6125C17.9261 43.9509 17.743 44.398 17.7344 44.8653L17.8541 66.483C17.8613 67.9605 18.3541 69.3943 19.256 70.5621L20.2049 71.7888C22.372 74.5896 26.7532 74.3066 28.4073 71.1754C28.5107 70.9956 28.5884 70.8022 28.6381 70.6007C28.6794 70.4398 28.7108 70.2765 28.7322 70.1117L28.9245 68.0057C29.0185 66.0841 29.0356 64.1454 29.0356 64.1454C29.0356 64.1454 33.1048 63.6264 34.1648 58.3635C34.6649 55.7599 34.6991 51.4192 34.6221 47.8806C34.5367 44.6937 32.5919 40.7133 29.4203 40.9235Z" fill="#FFBE9D"/>
<path d="M33.1001 51.9339C33.0956 52.1114 33.0219 52.2801 32.8948 52.4036C32.7677 52.5271 32.5974 52.5956 32.4205 52.5945C32.3341 52.5979 32.2479 52.584 32.1669 52.5536C32.0859 52.5232 32.0118 52.4768 31.949 52.4173C31.8861 52.3578 31.8356 52.2863 31.8006 52.207C31.7656 52.1276 31.7468 52.0421 31.7451 51.9554C31.7507 51.7782 31.8247 51.6102 31.9516 51.4869C32.0784 51.3636 32.2481 51.2947 32.4247 51.2948C32.5111 51.2914 32.5973 51.3053 32.6783 51.3357C32.7592 51.3661 32.8333 51.4124 32.8962 51.472C32.9591 51.5315 33.0096 51.603 33.0446 51.6823C33.0796 51.7616 33.0984 51.8472 33.1001 51.9339Z" fill="#263238"/>
<path d="M33.5921 50.0896C33.5066 50.1754 33.0066 49.7765 32.2799 49.7465C31.5533 49.7165 30.9976 50.0682 30.9292 49.9738C30.8609 49.8795 30.9805 49.7765 31.2199 49.6135C31.5448 49.4069 31.9256 49.3065 32.3098 49.3262C32.6881 49.3372 33.0526 49.4712 33.3485 49.7079C33.5665 49.888 33.6391 50.051 33.5921 50.0896Z" fill="#263238"/>
<path d="M26.5694 51.771C26.565 51.9484 26.4912 52.1171 26.3642 52.2406C26.2371 52.3641 26.0667 52.4327 25.8898 52.4315C25.8039 52.4338 25.7184 52.4191 25.6382 52.3882C25.558 52.3573 25.4846 52.3108 25.4223 52.2515C25.36 52.1921 25.3099 52.121 25.275 52.0423C25.2401 51.9635 25.221 51.8786 25.2188 51.7924C25.2243 51.6153 25.2983 51.4473 25.4252 51.324C25.5521 51.2007 25.7218 51.1318 25.8984 51.1319C25.9845 51.1284 26.0705 51.1423 26.1513 51.1728C26.232 51.2033 26.3058 51.2497 26.3684 51.3092C26.4309 51.3688 26.4809 51.4404 26.5155 51.5197C26.55 51.599 26.5684 51.6844 26.5694 51.771Z" fill="#263238"/>
<path d="M26.6755 49.9138C26.5857 49.9953 26.0899 49.5964 25.359 49.5707C24.6281 49.5449 24.0767 49.8881 24.0083 49.7937C23.9399 49.6993 24.0596 49.5964 24.3032 49.4377C24.6264 49.2302 25.0057 49.1283 25.3889 49.146C25.7679 49.1601 26.1328 49.2937 26.4318 49.5278C26.6456 49.7122 26.7182 49.8752 26.6755 49.9138Z" fill="#263238"/>
<path d="M28.8601 55.4725C29.2489 55.366 29.6496 55.3098 30.0526 55.3052C30.2407 55.3052 30.4159 55.2623 30.4544 55.138C30.4762 54.9446 30.4405 54.7491 30.3518 54.5761C30.1937 54.1214 30.027 53.6367 29.856 53.1349C29.1678 51.0804 28.6806 49.3947 28.7618 49.369C28.843 49.3432 29.467 50.986 30.1552 53.0362L30.6254 54.4903C30.7352 54.7186 30.7595 54.979 30.6938 55.2237C30.6644 55.2887 30.6206 55.346 30.5658 55.3914C30.511 55.4367 30.4466 55.4689 30.3775 55.4854C30.2739 55.51 30.1676 55.5215 30.0612 55.5197C29.6604 55.555 29.2568 55.5391 28.8601 55.4725Z" fill="#263238"/>
<path d="M29.0306 64.1454C26.5418 64.0855 24.1182 63.3342 22.0293 61.9751C22.0293 61.9751 23.6664 65.7153 28.9708 65.4065L29.0306 64.1454Z" fill="#EB996E"/>
<path d="M28.4842 57.2226C28.3519 57.0423 28.1763 56.8986 27.9738 56.8048C27.7712 56.7111 27.5483 56.6703 27.3258 56.6864C27.1615 56.6946 27.0007 56.737 26.8535 56.8108C26.7064 56.8846 26.5761 56.9883 26.471 57.1153C26.3704 57.2318 26.3075 57.3763 26.2907 57.5295C26.2739 57.6828 26.304 57.8375 26.3769 57.9732C26.4883 58.1095 26.6377 58.2094 26.8061 58.2598C26.9744 58.3103 27.1539 58.309 27.3216 58.2563C27.6713 58.1483 27.9955 57.9703 28.2747 57.733C28.3603 57.6778 28.4344 57.6064 28.4927 57.5228C28.5197 57.483 28.5342 57.4359 28.5342 57.3877C28.5342 57.3395 28.5197 57.2924 28.4927 57.2526" fill="#EB996E"/>
<path d="M26.697 55.8972C26.8167 55.8972 26.7868 56.6865 27.4408 57.2784C28.0947 57.8703 28.9411 57.8102 28.9453 57.9218C28.9496 58.0333 28.7487 58.0676 28.3939 58.0633C27.9301 58.0532 27.4849 57.8784 27.1373 57.57C26.8042 57.2748 26.5988 56.8609 26.5645 56.4162C26.5474 56.0817 26.6415 55.8887 26.697 55.8972Z" fill="#263238"/>
<path d="M26.6333 47.7434C26.5564 47.9364 25.8298 47.8163 24.9706 47.885C24.1115 47.9536 23.4105 48.1638 23.3079 47.9793C23.2566 47.8935 23.3849 47.7091 23.6712 47.5504C24.0513 47.3252 24.4789 47.193 24.9193 47.1644C25.357 47.1291 25.7968 47.1997 26.2016 47.3703C26.5008 47.4861 26.6675 47.6491 26.6333 47.7434Z" fill="#263238"/>
<path d="M33.5063 46.8856C33.3695 47.0443 32.878 46.8555 32.271 46.8212C31.6641 46.7869 31.1554 46.8899 31.0443 46.7097C30.993 46.6239 31.0828 46.4609 31.3093 46.3151C31.6166 46.1368 31.9699 46.0546 32.324 46.0791C32.6781 46.1035 33.0168 46.2335 33.2968 46.4524C33.502 46.6325 33.5661 46.8041 33.5063 46.8856Z" fill="#263238"/>
<path d="M16.1782 44.0461C17.2126 41.0051 21.7348 36.8617 24.9021 37.1491L29.9415 40.3188C29.7579 41.1892 29.3432 41.9936 28.7412 42.6467C28.1393 43.2999 27.3725 43.7775 26.5221 44.029C25.6116 44.2863 24.526 44.3421 23.9575 45.1099C23.389 45.8776 23.6925 47.0529 23.1667 47.8635C22.4358 48.983 20.5081 48.893 19.9525 50.1111C19.7131 50.643 19.8199 51.2864 19.5678 51.8268C19.2344 52.5302 17.4306 53.3924 16.6912 53.1436C15.9517 52.8948 15.9773 51.6295 15.7508 50.9604C15.4593 50.2062 15.4381 49.3737 15.691 48.6056C16.0671 47.1001 15.6867 45.4959 16.1782 44.0461Z" fill="#263238"/>
<path d="M18.8883 53.7998C18.8883 53.4051 18.4822 52.4572 18.0975 52.38C17.0674 52.1784 15.1953 52.187 15.0756 54.8292C14.9132 58.4407 18.5591 57.8617 18.5677 57.7587C18.5762 57.6558 18.837 55.1637 18.8883 53.7998Z" fill="#FFBE9D"/>
<path d="M17.5245 56.339C17.5245 56.339 17.4604 56.3819 17.3492 56.4248C17.2754 56.4555 17.1962 56.4714 17.1163 56.4714C17.0363 56.4714 16.9572 56.4555 16.8833 56.4248C16.5072 56.2703 16.2165 55.6484 16.2251 54.9964C16.2314 54.6866 16.3059 54.3819 16.4431 54.1043C16.4788 53.9872 16.5434 53.881 16.6308 53.7956C16.7182 53.7101 16.8256 53.6481 16.9432 53.6153C17.0167 53.5997 17.0933 53.6104 17.1597 53.6457C17.2261 53.681 17.2781 53.7385 17.3065 53.8083C17.3492 53.9113 17.3065 53.9799 17.3449 53.9885C17.3834 53.997 17.4219 53.9327 17.4005 53.7826C17.3855 53.6907 17.3385 53.6072 17.268 53.5467C17.1726 53.4671 17.0497 53.4285 16.9261 53.4394C16.775 53.4635 16.6327 53.5263 16.5129 53.6218C16.3931 53.7172 16.2998 53.842 16.2422 53.9842C16.0761 54.2897 15.9866 54.6313 15.9814 54.9793C15.9814 55.7084 16.3106 56.4076 16.8363 56.5792C16.9314 56.6122 17.0327 56.6231 17.1327 56.6112C17.2326 56.5994 17.3286 56.5649 17.4133 56.5105C17.5245 56.429 17.5458 56.3475 17.5245 56.339Z" fill="#EB996E"/>
<path d="M15.4093 43.1068C15.4093 41.9787 14.0159 41.2409 12.9174 40.9621C11.794 40.7721 10.6401 41.0009 9.67323 41.6055C9.0962 41.9229 8.5149 42.3733 8.39094 43.021C8.26699 43.6686 8.88249 44.445 9.49799 44.2134C9.21147 44.3283 8.95187 44.5017 8.73568 44.7227C8.51948 44.9436 8.35139 45.2072 8.24208 45.4968C8.13277 45.7863 8.08461 46.0955 8.10067 46.4047C8.11674 46.714 8.19666 47.0165 8.33538 47.293C8.50075 47.5546 8.7185 47.7787 8.97479 47.9513C9.23109 48.1239 9.52034 48.2411 9.82418 48.2956C10.128 48.35 10.4398 48.3405 10.7398 48.2676C11.0398 48.1947 11.3214 48.06 11.5667 47.8721C11.2536 48.9191 10.593 49.8272 9.6946 50.4456C10.6266 50.5794 11.5773 50.464 12.4506 50.1112C13.324 49.7583 14.0891 49.1805 14.6688 48.4361C15.2485 47.6917 15.6222 46.8069 15.7522 45.8712C15.8823 44.9355 15.764 43.9819 15.4093 43.1068Z" fill="#263238"/>
<path d="M12.9123 48.8543C12.8058 48.503 12.7596 48.136 12.7755 47.7692C12.7726 46.8821 12.9171 46.0007 13.203 45.1613C13.484 44.3216 13.9046 43.5356 14.4468 42.8365C14.6531 42.5352 14.9089 42.2712 15.2033 42.0559C15.2717 42.0988 14.0664 43.2998 13.4295 45.2385C13.0719 46.4097 12.8974 47.6295 12.9123 48.8543Z" fill="url(#paint16_linear_1708_11506)"/>
<path d="M28.8945 39.2249C29.2279 40.6962 31.4591 42.5834 32.4337 43.7286C34.2972 45.9119 34.6648 46.6367 34.6477 51.5179C35.5282 49.8322 36.2036 48.1809 36.1352 46.2764C36.0935 44.353 35.3515 42.5114 34.0493 41.0993C33.3943 40.4065 32.5874 39.8764 31.6926 39.551C30.7978 39.2257 29.8398 39.114 28.8945 39.2249Z" fill="#263238"/>
<path d="M44.1621 79.4107C44.1621 79.4107 40.281 72.9169 39.2039 71.6301C38.3402 70.6144 37.253 69.8141 36.0281 69.2925C35.5454 69.0811 35.0387 68.9298 34.5193 68.8421L28.937 67.5811C28.937 67.5811 28.937 71.4028 24.9406 71.6387C20.9441 71.8746 17.5888 66.2986 17.5888 66.2986C17.5888 66.2986 11.1474 67.298 9.60437 68.0958C8.06135 68.8936 5.63782 69.9015 4.30424 76.6013L3.36816 83.1595L14.4814 84.1889L15.5457 100.758L21.0552 104.619C21.0552 104.619 36.3359 108.608 37.2976 108.869C38.2593 109.131 38.5799 84.1975 38.5799 84.1975C38.5799 84.1975 42.5379 81.6411 44.1621 79.4107Z" fill="#263238"/>
<path d="M36.8447 76.6228C36.9348 76.7744 37.0079 76.9355 37.0627 77.1032C37.1867 77.412 37.3491 77.8753 37.5286 78.45C37.9937 79.953 38.3241 81.4947 38.516 83.0566C38.7053 84.6218 38.7554 86.2007 38.6656 87.7748C38.6314 88.3796 38.5844 88.8643 38.5331 89.1988C38.5212 89.3731 38.4911 89.5456 38.4433 89.7135C38.4229 89.5397 38.4229 89.3641 38.4433 89.1902C38.4433 88.8557 38.4861 88.3667 38.5032 87.7705C38.545 86.2089 38.4736 84.6464 38.2894 83.0952C38.0987 81.5408 37.7944 80.0026 37.379 78.4929C37.2209 77.9139 37.0798 77.4506 36.9772 77.1289C36.916 76.9652 36.8716 76.7956 36.8447 76.6228Z" fill="#455A64"/>
<path d="M36.3696 103.769L15.4469 99.1969L14.4809 84.1846L5.17578 83.3268C5.17578 83.3268 5.522 93.5866 5.87677 96.6234C6.39396 101.011 8.97564 106.995 10.4887 108.204C12.0018 109.414 37.31 108.861 37.31 108.861L36.3696 103.769Z" fill="#FFBE9D"/>
<path d="M48.2479 106.489C48.1783 106.634 48.067 106.755 47.9283 106.836C47.7897 106.917 47.63 106.954 47.47 106.943C47.3999 106.939 47.3309 106.924 47.2648 106.9C46.8032 106.755 46.8374 105.807 46.8374 105.807L44.6233 105.442C44.6233 105.442 41.7381 107.308 40.7123 108.547C39.6865 109.787 37.0706 108.783 37.0706 108.783L36.1602 104.039L40.2421 100.334C40.2421 100.334 39.9942 100.557 40.272 99.8618C40.5499 99.1669 41.8364 99.4329 41.8364 99.4329C42.0373 99.0897 42.8751 98.9653 42.8751 98.9653L46.457 99.3943C46.8207 99.4372 47.1703 99.5611 47.4801 99.757C47.79 99.953 48.0523 100.216 48.2479 100.527L49.761 102.929C49.761 102.929 50.5646 104.644 50.4321 105.073C50.375 105.245 50.2552 105.39 50.0967 105.477C49.9382 105.565 49.7527 105.589 49.5772 105.545C49.5772 105.545 49.4019 106.682 49.1027 106.72C48.7972 106.707 48.4969 106.636 48.218 106.51L48.2479 106.489Z" fill="#FFBE9D"/>
<path d="M40.627 103.083C40.627 103.117 41.1099 103.083 41.875 103.109C42.8689 103.155 43.8514 103.34 44.7944 103.658C45.3136 103.832 45.8182 104.047 46.3032 104.301C46.7307 104.546 47.1837 104.73 47.3248 105.065C47.3566 105.133 47.3698 105.209 47.3631 105.284C47.3563 105.36 47.3298 105.432 47.2863 105.494C47.2196 105.595 47.1244 105.674 47.0128 105.721C46.912 105.754 46.8066 105.77 46.7007 105.768C46.7007 105.768 46.8119 105.867 47.0427 105.807C47.1808 105.766 47.3021 105.682 47.3889 105.566C47.4501 105.488 47.4901 105.395 47.5051 105.297C47.52 105.198 47.5095 105.098 47.4744 105.005C47.3846 104.797 47.2359 104.621 47.047 104.498C46.8503 104.37 46.6452 104.241 46.4186 104.117C45.9277 103.846 45.4143 103.62 44.8842 103.439C43.9191 103.11 42.907 102.942 41.8879 102.941C41.4628 102.923 41.0374 102.97 40.627 103.083Z" fill="#EB996E"/>
<path d="M40.3789 105.373C40.3789 105.438 41.8407 105.373 43.6274 105.485C45.414 105.596 46.8588 105.811 46.8716 105.742C46.5725 105.625 46.2591 105.549 45.9398 105.515C45.1786 105.386 44.4109 105.298 43.6402 105.253C42.8714 105.21 42.1008 105.21 41.3321 105.253C41.0103 105.249 40.6895 105.289 40.3789 105.373Z" fill="#EB996E"/>
<path d="M48.2274 106.394C48.2599 106.27 48.2757 106.141 48.2744 106.013C48.2962 105.663 48.2962 105.312 48.2744 104.962C48.2623 104.716 48.2294 104.472 48.1761 104.232C48.1106 103.952 47.9916 103.687 47.8256 103.452C47.4729 102.908 47.0168 102.438 46.4835 102.071C45.9581 101.703 45.3822 101.414 44.7737 101.213C44.2706 101.066 43.7503 100.987 43.2264 100.977C42.799 100.977 42.4272 100.977 42.1835 100.977C42.0538 100.971 41.924 100.985 41.7988 101.02C42.2694 101.084 42.7431 101.123 43.2179 101.136C43.7255 101.171 44.2274 101.265 44.7139 101.414C45.2968 101.625 45.8488 101.914 46.3552 102.272C46.8599 102.625 47.2948 103.068 47.6375 103.581C47.9181 103.998 48.0792 104.485 48.1034 104.987C48.2017 105.845 48.1804 106.399 48.2274 106.394Z" fill="#EB996E"/>
<path d="M43.0547 99.8789C43.0547 99.9132 43.5932 99.9261 44.4481 100.025C45.303 100.123 46.5853 100.213 47.3418 101.354C48.0707 102.205 48.6778 103.154 49.1456 104.172C49.3004 104.608 49.4149 105.058 49.4875 105.515C49.5104 105.389 49.5104 105.259 49.4875 105.133C49.4656 104.786 49.3951 104.444 49.2781 104.117C48.8433 103.058 48.2415 102.076 47.4957 101.209C47.2971 100.944 47.0642 100.708 46.8032 100.505C46.5461 100.319 46.256 100.184 45.9484 100.106C45.4519 99.9753 44.9435 99.8949 44.431 99.866C43.9736 99.8107 43.511 99.815 43.0547 99.8789Z" fill="#EB996E"/>
<path d="M41.5038 107.78C41.5809 107.734 41.6526 107.679 41.7175 107.617L42.3159 107.136C43.0689 106.549 43.8552 106.006 44.6711 105.511H44.6198L46.8338 105.888L46.7569 105.794C46.75 105.976 46.7644 106.159 46.7997 106.338C46.8267 106.539 46.9148 106.726 47.0518 106.875C47.1334 106.947 47.2346 106.993 47.3425 107.008C47.4454 107.029 47.5516 107.029 47.6545 107.008C47.8688 106.976 48.0645 106.868 48.2059 106.703C48.2434 106.662 48.2763 106.618 48.3042 106.57V106.536L48.176 106.583L48.2486 106.613C48.3427 106.652 48.4367 106.686 48.535 106.716C48.6344 106.747 48.7358 106.772 48.8385 106.789C48.892 106.8 48.9463 106.808 49.0009 106.81C49.072 106.816 49.1433 106.801 49.2061 106.767C49.3063 106.694 49.3823 106.593 49.4241 106.476C49.4686 106.377 49.5058 106.275 49.5352 106.171C49.5948 105.964 49.642 105.754 49.6763 105.541L49.548 105.631C49.6982 105.662 49.854 105.652 49.9992 105.603C50.1443 105.553 50.2734 105.465 50.373 105.348C50.4765 105.221 50.5311 105.061 50.5268 104.897C50.5152 104.752 50.4894 104.609 50.4499 104.468C50.2821 103.922 50.0779 103.387 49.8387 102.869L49.0308 101.582L48.5179 100.767C48.3605 100.485 48.1728 100.222 47.958 99.9819C47.7293 99.7501 47.4559 99.5676 47.1544 99.4457C46.8605 99.3369 46.5524 99.2719 46.2397 99.2527L42.8673 98.8752H42.8417C42.6389 98.9064 42.4398 98.9581 42.2475 99.0297C42.0439 99.0945 41.865 99.2202 41.7346 99.3899L41.8586 99.3513C41.6758 99.269 41.4759 99.2318 41.2759 99.243C41.0758 99.2542 40.8813 99.3134 40.7088 99.4157C40.4278 99.6404 40.2391 99.961 40.1788 100.316L40.2044 100.269L37.3919 102.808L36.6354 103.512C36.5418 103.589 36.4559 103.675 36.3789 103.769C36.4808 103.704 36.5766 103.629 36.6653 103.546L37.456 102.881L40.3155 100.398V100.368C40.3777 100.051 40.5562 99.7695 40.8156 99.5787C40.9623 99.4945 41.1268 99.4466 41.2956 99.4392C41.4644 99.4317 41.6325 99.4648 41.7859 99.5358L41.8628 99.5701L41.9099 99.4972C42.022 99.366 42.1709 99.2718 42.3373 99.227C42.5162 99.1623 42.7008 99.1149 42.8887 99.0854H42.863L46.2354 99.4843C46.528 99.4995 46.8164 99.5602 47.0903 99.6645C47.3632 99.7742 47.6105 99.9392 47.8169 100.149C48.021 100.379 48.1988 100.63 48.347 100.9C48.5179 101.166 48.6889 101.44 48.8599 101.71L49.6677 102.997C49.9055 103.504 50.1069 104.027 50.2704 104.563C50.3078 104.686 50.3322 104.812 50.3431 104.94C50.3483 105.052 50.31 105.161 50.2362 105.245C50.1637 105.331 50.0693 105.395 49.9632 105.431C49.8571 105.468 49.7431 105.474 49.6335 105.451H49.5181V105.558C49.4851 105.76 49.4408 105.961 49.3856 106.158C49.3513 106.336 49.2718 106.501 49.1548 106.639C49.1254 106.647 49.0944 106.647 49.065 106.639C49.0195 106.643 48.9738 106.643 48.9283 106.639C48.8343 106.623 48.7415 106.602 48.6504 106.574L48.3769 106.48L48.3128 106.45L48.1803 106.497V106.527C48.1585 106.563 48.1342 106.598 48.1076 106.63C47.9983 106.76 47.8469 106.846 47.6802 106.875C47.5996 106.89 47.5171 106.89 47.4365 106.875C47.3611 106.867 47.2896 106.838 47.2314 106.789C47.0448 106.517 46.96 106.187 46.992 105.858V105.777H46.9193L44.6967 105.429H44.6711H44.6454C43.834 105.942 43.0572 106.508 42.3202 107.123C42.0637 107.341 41.8714 107.512 41.7432 107.638C41.6598 107.679 41.5798 107.726 41.5038 107.78Z" fill="#EB996E"/>
<path d="M75.3941 92.6902L47.8376 92.9132C46.94 92.9132 46.0895 93.3421 45.9527 94.2343L42.9607 114.394H28.7443C28.5352 114.409 28.3396 114.503 28.1968 114.657C28.054 114.811 27.9746 115.013 27.9746 115.224C27.9746 115.434 28.054 115.637 28.1968 115.791C28.3396 115.945 28.5352 116.039 28.7443 116.054H74.0861L77.185 94.7919C77.2258 94.5323 77.21 94.2669 77.1387 94.014C77.0674 93.7611 76.9424 93.5266 76.7722 93.3269C76.602 93.1271 76.3906 92.9668 76.1527 92.8569C75.9148 92.7469 75.656 92.6901 75.3941 92.6902Z" fill="#E0E0E0"/>
<path d="M75.3941 92.6902C75.5379 92.6843 75.6818 92.6987 75.8216 92.7331C76.1882 92.8203 76.519 93.0192 76.7685 93.3026C77.018 93.586 77.174 93.9399 77.215 94.3158C77.2253 94.6974 77.1909 95.0789 77.1124 95.4525C76.997 96.2674 76.8645 97.2068 76.7149 98.2576C76.1079 102.487 75.236 108.577 74.1503 116.062V116.135H74.0777L30.0908 116.165H28.9154C28.699 116.183 28.4818 116.142 28.2871 116.045C28.0907 115.933 27.9395 115.755 27.8596 115.543C27.7847 115.332 27.7865 115.102 27.8647 114.892C27.9429 114.683 28.0925 114.508 28.2871 114.398C28.4802 114.301 28.6961 114.26 28.9111 114.278H42.9394L42.8325 114.372C43.9139 107.149 44.9269 100.415 45.8245 94.3759C45.8544 93.9712 46.038 93.5935 46.3374 93.3207C46.6353 93.0665 47.0008 92.9055 47.3889 92.8575C47.7581 92.8201 48.1293 92.8057 48.5002 92.8146H49.5816L53.732 92.7846L61.1052 92.7374L71.6028 92.6859H75.1377H75.3813C75.3813 92.6859 75.3001 92.6859 75.1377 92.6859H74.4111L71.6028 92.7288L61.1052 92.8446L53.732 92.9175L49.5816 92.9561H48.5002C48.1393 92.9473 47.7782 92.9602 47.4188 92.9947C47.064 93.0425 46.7302 93.1913 46.4571 93.4237C46.1964 93.6695 46.0429 94.0086 46.0297 94.3673C45.1321 100.411 44.1276 107.149 43.0377 114.368V114.458H28.9325C28.7565 114.439 28.5787 114.47 28.4196 114.548C28.3072 114.61 28.2135 114.701 28.1482 114.811C28.0829 114.922 28.0484 115.048 28.0484 115.176C28.0484 115.305 28.0829 115.431 28.1482 115.542C28.2135 115.652 28.3072 115.743 28.4196 115.805C28.5788 115.887 28.7592 115.918 28.9367 115.895H30.1207L74.1076 115.925L74.0221 115.998C75.1291 108.513 76.0267 102.427 76.6508 98.2019C76.8089 97.151 76.95 96.2117 77.0782 95.3967C77.1576 95.0289 77.1963 94.6535 77.1936 94.2772C77.164 93.9679 77.0534 93.672 76.8731 93.4194C76.627 93.0712 76.267 92.8208 75.8558 92.7116C75.5437 92.6902 75.3941 92.7031 75.3941 92.6902Z" fill="#263238"/>
<path d="M60.4475 105.849C61.4012 105.849 62.1743 105.074 62.1743 104.117C62.1743 103.16 61.4012 102.384 60.4475 102.384C59.4938 102.384 58.7207 103.16 58.7207 104.117C58.7207 105.074 59.4938 105.849 60.4475 105.849Z" fill="white"/>
<path d="M44.0596 115.865C44.0981 115.865 44.9743 110.739 46.0173 104.404C47.0602 98.0689 47.8766 92.9218 47.8381 92.9132C47.7997 92.9046 46.9191 98.0388 45.8762 104.378C44.8333 110.718 44.0254 115.861 44.0596 115.865Z" fill="#263238"/>
</g>
<defs>
<linearGradient id="paint0_linear_1708_11506" x1="97.0469" y1="36.8505" x2="119.179" y2="36.6642" gradientUnits="userSpaceOnUse">
<stop stop-color="#C10077"/>
<stop offset="1" stop-color="#2B388F"/>
</linearGradient>
<linearGradient id="paint1_linear_1708_11506" x1="94.3418" y1="36.7747" x2="122.505" y2="36.1805" gradientUnits="userSpaceOnUse">
<stop stop-color="#C10077"/>
<stop offset="1" stop-color="#2B388F"/>
</linearGradient>
<linearGradient id="paint2_linear_1708_11506" x1="99.1963" y1="36.3612" x2="118.3" y2="36.2397" gradientUnits="userSpaceOnUse">
<stop stop-color="#C10077"/>
<stop offset="1" stop-color="#2B388F"/>
</linearGradient>
<linearGradient id="paint3_linear_1708_11506" x1="93.3213" y1="42.8771" x2="94.3679" y2="42.869" gradientUnits="userSpaceOnUse">
<stop stop-color="#C10077"/>
<stop offset="1" stop-color="#2B388F"/>
</linearGradient>
<linearGradient id="paint4_linear_1708_11506" x1="122.651" y1="26.2729" x2="123.703" y2="26.2648" gradientUnits="userSpaceOnUse">
<stop stop-color="#C10077"/>
<stop offset="1" stop-color="#2B388F"/>
</linearGradient>
<linearGradient id="paint5_linear_1708_11506" x1="97.249" y1="44.2245" x2="97.5141" y2="44.2224" gradientUnits="userSpaceOnUse">
<stop stop-color="#C10077"/>
<stop offset="1" stop-color="#2B388F"/>
</linearGradient>
<linearGradient id="paint6_linear_1708_11506" x1="100.083" y1="29.5252" x2="100.348" y2="29.5232" gradientUnits="userSpaceOnUse">
<stop stop-color="#C10077"/>
<stop offset="1" stop-color="#2B388F"/>
</linearGradient>
<linearGradient id="paint7_linear_1708_11506" x1="120.809" y1="36.6711" x2="121.074" y2="36.6691" gradientUnits="userSpaceOnUse">
<stop stop-color="#C10077"/>
<stop offset="1" stop-color="#2B388F"/>
</linearGradient>
<linearGradient id="paint8_linear_1708_11506" x1="122.655" y1="30.456" x2="122.92" y2="30.454" gradientUnits="userSpaceOnUse">
<stop stop-color="#C10077"/>
<stop offset="1" stop-color="#2B388F"/>
</linearGradient>
<linearGradient id="paint9_linear_1708_11506" x1="103.054" y1="32.5114" x2="113.973" y2="32.4475" gradientUnits="userSpaceOnUse">
<stop stop-color="#C10077"/>
<stop offset="1" stop-color="#2B388F"/>
</linearGradient>
<linearGradient id="paint10_linear_1708_11506" x1="101.155" y1="40.4338" x2="115.87" y2="40.2568" gradientUnits="userSpaceOnUse">
<stop stop-color="#C10077"/>
<stop offset="1" stop-color="#2B388F"/>
</linearGradient>
<linearGradient id="paint11_linear_1708_11506" x1="98.1553" y1="117.629" x2="101.93" y2="117.608" gradientUnits="userSpaceOnUse">
<stop stop-color="#C10077"/>
<stop offset="1" stop-color="#2B388F"/>
</linearGradient>
<linearGradient id="paint12_linear_1708_11506" x1="109.486" y1="117.631" x2="113.856" y2="117.602" gradientUnits="userSpaceOnUse">
<stop stop-color="#C10077"/>
<stop offset="1" stop-color="#2B388F"/>
</linearGradient>
<linearGradient id="paint13_linear_1708_11506" x1="121.813" y1="120.885" x2="126.184" y2="120.206" gradientUnits="userSpaceOnUse">
<stop stop-color="#C10077"/>
<stop offset="1" stop-color="#2B388F"/>
</linearGradient>
<linearGradient id="paint14_linear_1708_11506" x1="149.878" y1="179.721" x2="173.459" y2="179.476" gradientUnits="userSpaceOnUse">
<stop stop-color="#C10077"/>
<stop offset="1" stop-color="#2B388F"/>
</linearGradient>
<linearGradient id="paint15_linear_1708_11506" x1="5.12305" y1="155.93" x2="58.0075" y2="155.355" gradientUnits="userSpaceOnUse">
<stop stop-color="#C10077"/>
<stop offset="1" stop-color="#2B388F"/>
</linearGradient>
<linearGradient id="paint16_linear_1708_11506" x1="12.7725" y1="45.5193" x2="15.2068" y2="45.5125" gradientUnits="userSpaceOnUse">
<stop stop-color="#C10077"/>
<stop offset="1" stop-color="#2B388F"/>
</linearGradient>
<clipPath id="clip0_1708_11506">
<rect width="183" height="190.038" fill="white"/>
</clipPath>
</defs>
</svg>
