<svg width="92" height="16" viewBox="0 0 92 16" fill="none" xmlns="http://www.w3.org/2000/svg">
<path fill-rule="evenodd" clip-rule="evenodd" d="M8.125 12.4377L3.99782 14.5436C3.63015 14.7313 3.20637 14.4177 3.2782 14.0113L4.0625 9.57295L0.754009 6.44284C0.449752 6.15499 0.613068 5.64303 1.02781 5.58453L5.61424 4.93769L7.67931 0.876499C7.86465 0.512003 8.38535 0.512003 8.57069 0.876499L10.6358 4.93769L15.2222 5.58453C15.6369 5.64303 15.8002 6.15499 15.496 6.44284L12.1875 9.57295L12.9718 14.0113C13.0436 14.4177 12.6198 14.7313 12.2522 14.5436L8.125 12.4377Z" fill="#FFBA49"/>
<path fill-rule="evenodd" clip-rule="evenodd" d="M26.875 12.4377L22.7478 14.5436C22.3802 14.7313 21.9564 14.4177 22.0282 14.0113L22.8125 9.57295L19.504 6.44284C19.1998 6.15499 19.3631 5.64303 19.7778 5.58453L24.3642 4.93769L26.4293 0.876499C26.6147 0.512003 27.1353 0.512003 27.3207 0.876499L29.3858 4.93769L33.9722 5.58453C34.3869 5.64303 34.5502 6.15499 34.246 6.44284L30.9375 9.57295L31.7218 14.0113C31.7936 14.4177 31.3698 14.7313 31.0022 14.5436L26.875 12.4377Z" fill="#FFBA49"/>
<path fill-rule="evenodd" clip-rule="evenodd" d="M45.625 12.4377L41.4978 14.5436C41.1302 14.7313 40.7064 14.4177 40.7782 14.0113L41.5625 9.57295L38.254 6.44284C37.9498 6.15499 38.1131 5.64303 38.5278 5.58453L43.1142 4.93769L45.1793 0.876499C45.3647 0.512003 45.8853 0.512003 46.0707 0.876499L48.1358 4.93769L52.7222 5.58453C53.1369 5.64303 53.3002 6.15499 52.996 6.44284L49.6875 9.57295L50.4718 14.0113C50.5436 14.4177 50.1198 14.7313 49.7522 14.5436L45.625 12.4377Z" fill="#FFBA49"/>
<path fill-rule="evenodd" clip-rule="evenodd" d="M64.375 12.4377L60.2478 14.5436C59.8802 14.7313 59.4564 14.4177 59.5282 14.0113L60.3125 9.57295L57.004 6.44284C56.6998 6.15499 56.8631 5.64303 57.2778 5.58453L61.8642 4.93769L63.9293 0.876499C64.1147 0.512003 64.6353 0.512003 64.8207 0.876499L66.8858 4.93769L71.4722 5.58453C71.8869 5.64303 72.0502 6.15499 71.746 6.44284L68.4375 9.57295L69.2218 14.0113C69.2936 14.4177 68.8698 14.7313 68.5022 14.5436L64.375 12.4377Z" fill="#FFBA49"/>
<path fill-rule="evenodd" clip-rule="evenodd" d="M83.125 12.4377L78.9978 14.5436C78.6302 14.7313 78.2064 14.4177 78.2782 14.0113L79.0625 9.57295L75.754 6.44284C75.4498 6.15499 75.6131 5.64303 76.0278 5.58453L80.6142 4.93769L82.6793 0.876499C82.8647 0.512003 83.3853 0.512003 83.5707 0.876499L85.6358 4.93769L90.2222 5.58453C90.6369 5.64303 90.8002 6.15499 90.496 6.44284L87.1875 9.57295L87.9718 14.0113C88.0436 14.4177 87.6198 14.7313 87.2522 14.5436L83.125 12.4377Z" stroke="#585858"/>
</svg>
