<svg width="17" height="18" viewBox="0 0 17 18" fill="none" xmlns="http://www.w3.org/2000/svg">
<path d="M13.7109 11.6719C12.6689 11.6719 11.7506 12.1845 11.1738 12.964L6.18715 10.4106C6.26994 10.1284 6.32812 9.83595 6.32812 9.52734C6.32812 9.10877 6.24231 8.71084 6.09405 8.34483L11.3128 5.20439C11.8936 5.886 12.7473 6.32812 13.7109 6.32812C15.4557 6.32812 16.875 4.90883 16.875 3.16406C16.875 1.41929 15.4557 0 13.7109 0C11.9662 0 10.5469 1.41929 10.5469 3.16406C10.5469 3.56614 10.6297 3.94755 10.767 4.30165L5.53271 7.4513C4.95243 6.78994 4.11107 6.36328 3.16406 6.36328C1.41929 6.36328 0 7.78257 0 9.52734C0 11.2721 1.41929 12.6914 3.16406 12.6914C4.22332 12.6914 5.15711 12.1637 5.7317 11.3623L10.702 13.9074C10.6104 14.2029 10.5469 14.5107 10.5469 14.8359C10.5469 16.5807 11.9662 18 13.7109 18C15.4557 18 16.875 16.5807 16.875 14.8359C16.875 13.0912 15.4557 11.6719 13.7109 11.6719Z" fill="#C10045"/>
</svg>
