<svg width="156" height="82" viewBox="0 0 156 82" fill="none" xmlns="http://www.w3.org/2000/svg">
<path d="M80.7745 3.33955C80.0378 1.69047 78.4037 0.630005 76.6005 0.630005C76.591 0.630005 76.5803 0.630005 76.5696 0.630005C74.7557 0.643112 73.1204 1.7286 72.4028 3.39674L61.5066 28.7454C60.508 31.0665 61.5792 33.7582 63.8977 34.7567C64.4868 35.0105 65.0998 35.1308 65.702 35.1308C67.473 35.1308 69.1583 34.0942 69.9022 32.3629L70.4854 31.0069H83.1049L83.7357 32.4201C84.7652 34.7281 87.4669 35.7623 89.7723 34.7328C92.0765 33.7022 93.1108 30.9962 92.0825 28.6894L80.7745 3.33955ZM74.4189 21.856L76.6779 16.6001L79.0226 21.856H74.4189Z" fill="#C10077"/>
<path d="M92.08 28.6882L80.7721 3.33955C80.0366 1.69047 78.4012 0.630005 76.5993 0.630005C76.5886 0.630005 76.5791 0.630005 76.5684 0.630005C76.5993 0.630005 76.6767 16.6001 76.6767 16.6001L79.0213 21.856H76.804V31.0069H83.1037L83.7333 32.4201C84.7628 34.7281 87.4657 35.7623 89.7711 34.7328C92.0753 33.7022 93.1096 30.9962 92.08 28.6882Z" fill="#C10077"/>
<path d="M53.9836 0.530029C51.4604 0.530029 49.4133 2.57827 49.4133 5.10551V16.2749H39.8633V5.10551C39.8633 2.57827 37.8174 0.530029 35.293 0.530029C32.7698 0.530029 30.7227 2.57827 30.7227 5.10551V30.5543C30.7227 33.0815 32.7698 35.1297 35.293 35.1297C37.8174 35.1297 39.8633 33.0815 39.8633 30.5543V25.4259H49.4133V30.5543C49.4133 33.0815 51.4604 35.1297 53.9836 35.1297C56.508 35.1297 58.554 33.0815 58.554 30.5543V5.10551C58.554 2.57827 56.508 0.530029 53.9836 0.530029Z" fill="#C10077"/>
<path d="M118.865 0.341707C116.342 0.341707 114.295 2.38995 114.295 4.91719V17.3258L102.34 2.09088C101.137 0.557375 99.0948 -0.0443493 97.2524 0.59312C95.4112 1.23059 94.1758 2.96665 94.1758 4.91719V30.5566C94.1758 33.0838 96.2229 35.1321 98.7461 35.1321C101.27 35.1321 103.316 33.0838 103.316 30.5566V18.148L115.272 33.3829C116.155 34.5089 117.49 35.1321 118.866 35.1321C119.365 35.1321 119.87 35.0498 120.359 34.8806C122.201 34.2432 123.435 32.5071 123.435 30.5566V4.91719C123.435 2.38995 121.389 0.341707 118.865 0.341707Z" fill="#C10077"/>
<path d="M155.449 28.4714L148.372 12.288L153.334 8.83613C155.405 7.39438 155.919 4.54662 154.483 2.47216C153.046 0.397705 150.202 -0.11942 148.127 1.31518L140.07 6.89155C139.934 6.98569 139.805 7.08577 139.683 7.19182L136.58 9.34968V4.97319C136.58 2.44595 134.534 0.397705 132.01 0.397705C129.485 0.397705 127.439 2.44595 127.439 4.97319V30.4219C127.439 32.9468 129.483 34.995 132.005 34.9974H132.01C134.531 34.9974 136.575 32.9539 136.58 30.4315L136.6 20.4798L140.722 17.6118L147.075 32.1413C148.088 34.4553 150.783 35.511 153.095 34.4982C155.408 33.4842 156.461 30.7865 155.449 28.4714Z" fill="#C10077"/>
<path d="M59.4616 47.7826C57.4406 46.2669 54.577 46.678 53.0631 48.7L46.8765 56.9621L40.6911 48.7C39.1772 46.678 36.3124 46.2669 34.2927 47.7826C32.273 49.2982 31.8623 52.1662 33.3763 54.1882L42.3062 66.1155V77.0454C42.3062 79.5726 44.3521 81.6209 46.8765 81.6209C49.4009 81.6209 51.4468 79.5726 51.4468 77.0454V66.1167L60.3768 54.1882C61.8907 52.1662 61.4813 49.2982 59.4616 47.7826Z" fill="#C10077"/>
<path d="M77.2365 46.6804C73.3553 46.6506 69.5883 48.1507 66.9056 50.8114C64.361 53.3363 62.959 56.6642 62.959 60.1828V68.1625C62.959 75.6334 69.3265 81.7698 77.1519 81.8425H77.2864C81.1224 81.8425 84.8322 80.3411 87.4839 77.7102C90.0286 75.1866 91.4294 71.8586 91.4294 68.3388V60.3603C91.4306 52.8894 85.0631 46.7519 77.2365 46.6804ZM82.29 68.3388C82.29 69.696 81.6163 70.6492 81.051 71.2104C80.1 72.1529 78.7313 72.6915 77.2888 72.6915C77.271 72.6915 77.2543 72.6915 77.2365 72.6915C74.4038 72.6653 72.0996 70.6337 72.0996 68.1625V60.1828C72.0996 58.8257 72.7733 57.8724 73.3386 57.3124C74.2896 56.3687 75.6583 55.8301 77.0996 55.8301C77.1174 55.8301 77.1353 55.8301 77.1531 55.8313C79.9858 55.8564 82.29 57.8891 82.29 60.3603V68.3388Z" fill="#C10077"/>
<path d="M77.2365 46.6804L77.0996 55.8302C77.1175 55.8302 77.1353 55.8302 77.1532 55.8314C79.9858 55.8564 82.29 57.8892 82.29 60.3604V68.3389C82.29 69.6961 81.6164 70.6493 81.051 71.2105C80.1001 72.153 78.7314 72.6916 77.2888 72.6916C77.271 72.6916 77.2543 72.6916 77.2365 72.6916L77.1532 81.8425H77.2865C81.1224 81.8425 84.8334 80.3412 87.484 77.7103C90.0286 75.1866 91.4294 71.8587 91.4306 68.3389V60.3604C91.4306 52.8895 85.0631 46.7519 77.2365 46.6804Z" fill="#C10077"/>
<path d="M119.575 46.7352C117.051 46.7352 115.005 48.7846 115.005 51.3107V68.3389C115.005 69.696 114.331 70.6492 113.766 71.2104C112.803 72.1649 111.414 72.6951 109.951 72.6915C107.119 72.6653 104.814 70.6337 104.814 68.1625V51.1343C104.814 48.6071 102.769 46.5588 100.244 46.5588C97.7209 46.5588 95.6738 48.6071 95.6738 51.1343V68.1625C95.6738 75.6334 102.041 81.771 109.868 81.8425H110.002C113.837 81.8425 117.548 80.3411 120.2 77.7102C122.743 75.1866 124.145 71.8586 124.145 68.34V51.3119C124.145 48.7846 122.1 46.7352 119.575 46.7352Z" fill="#C10077"/>
<path d="M23.4976 0.378662H4.91406C2.39087 0.378662 0.34375 2.42691 0.34375 4.95414C0.34375 7.48019 2.39087 9.52963 4.91406 9.52963H9.63553V30.5542C9.63553 33.0815 11.6815 35.1297 14.2058 35.1297C16.7302 35.1297 18.7762 33.0815 18.7762 30.5542V9.52963H23.4976C26.022 9.52963 28.0679 7.48019 28.0679 4.95414C28.0679 2.42691 26.022 0.378662 23.4976 0.378662Z" fill="#C10077"/>
</svg>
