<svg width="8" height="9" viewBox="0 0 8 9" fill="none" xmlns="http://www.w3.org/2000/svg">
<path d="M7.69222 2.19338C7.19151 2.19338 6.72953 2.02751 6.35854 1.74768C5.93306 1.4269 5.62736 0.95635 5.5194 0.414001C5.49267 0.279999 5.47827 0.141713 5.4769 0H4.04658V3.90834L4.04486 6.04911C4.04486 6.62145 3.67216 7.10674 3.15551 7.27741C3.00558 7.32693 2.84364 7.35041 2.67503 7.34115C2.4598 7.32933 2.25811 7.26439 2.08281 7.15951C1.70977 6.93641 1.45684 6.53166 1.44999 6.06865C1.43919 5.345 2.02421 4.75502 2.74734 4.75502C2.89008 4.75502 3.02717 4.77832 3.15551 4.82065V3.7524V3.36839C3.02014 3.34834 2.88237 3.33789 2.74306 3.33789C1.95155 3.33789 1.21128 3.66689 0.682131 4.25962C0.282181 4.70755 0.0422791 5.27903 0.00526574 5.87827C-0.0432286 6.66549 0.244824 7.41381 0.803452 7.96593C0.885533 8.04698 0.971726 8.1222 1.06186 8.1916C1.54081 8.5602 2.12634 8.76 2.74306 8.76C2.88237 8.76 3.02014 8.74972 3.15551 8.72967C3.73162 8.64433 4.26317 8.38061 4.68266 7.96593C5.1981 7.45648 5.4829 6.78013 5.48599 6.06025L5.47862 2.86339C5.72452 3.05309 5.99338 3.21005 6.28194 3.33189C6.73073 3.52124 7.20659 3.6172 7.69633 3.61703V2.57843V2.19304C7.69668 2.19338 7.69256 2.19338 7.69222 2.19338Z" fill="white"/>
</svg>
