<svg width="12" height="13" viewBox="0 0 12 13" fill="none" xmlns="http://www.w3.org/2000/svg">
<path d="M11.4839 3.31505C10.7546 3.31505 10.0817 3.07343 9.54128 2.66583C8.92152 2.19857 8.47622 1.51316 8.31897 0.72316C8.28003 0.52797 8.25907 0.32654 8.25707 0.120117H6.17363V5.81308L6.17113 8.93138C6.17113 9.76506 5.62824 10.4719 4.87569 10.7205C4.65728 10.7927 4.42141 10.8269 4.1758 10.8134C3.86229 10.7962 3.56851 10.7016 3.31316 10.5488C2.76978 10.2238 2.40136 9.63427 2.39138 8.95984C2.37565 7.90576 3.2278 7.04638 4.28113 7.04638C4.48905 7.04638 4.68873 7.08032 4.87569 7.14197V5.58594V5.02658C4.6785 4.99738 4.47782 4.98215 4.27489 4.98215C3.12197 4.98215 2.04368 5.46139 1.2729 6.32477C0.690327 6.97724 0.340882 7.80966 0.286967 8.68253C0.216329 9.82921 0.635913 10.9192 1.44962 11.7235C1.56918 11.8415 1.69473 11.9511 1.82602 12.0522C2.52367 12.5891 3.37656 12.8801 4.27489 12.8801C4.47782 12.8801 4.6785 12.8651 4.87569 12.8359C5.71485 12.7116 6.48913 12.3275 7.10016 11.7235C7.85096 10.9814 8.26581 9.99619 8.2703 8.94761L8.25957 4.291C8.61775 4.56731 9.00938 4.79595 9.42971 4.97342C10.0834 5.24923 10.7766 5.38901 11.4899 5.38876V3.87591V3.31455C11.4904 3.31505 11.4844 3.31505 11.4839 3.31505Z" fill="#36A7E9"/>
</svg>
