<svg width="10" height="10" viewBox="0 0 10 10" fill="none" xmlns="http://www.w3.org/2000/svg">
<path d="M9.22246 3.21573C8.75699 2.11696 7.88237 1.24234 6.7836 0.776859C6.21883 0.539023 5.61222 0.416504 4.99942 0.416504C4.38662 0.416504 3.78 0.539023 3.21524 0.776859C2.11647 1.24234 1.24185 2.11696 0.77637 3.21573C0.538535 3.78049 0.416016 4.38711 0.416016 4.99991C0.416016 5.61271 0.538535 6.21932 0.77637 6.78409C1.24185 7.88285 2.11647 8.75748 3.21524 9.22295C3.78 9.46079 4.38662 9.58331 4.99942 9.58331C5.61222 9.58331 6.21883 9.46079 6.7836 9.22295C7.88237 8.75748 8.75699 7.88285 9.22246 6.78409C9.4603 6.21932 9.58282 5.61271 9.58282 4.99991C9.58282 4.38711 9.4603 3.78049 9.22246 3.21573ZM4.99942 8.74991C2.93164 8.74991 1.24942 7.06768 1.24942 4.99991C1.24942 2.93213 2.93164 1.24991 4.99942 1.24991C7.06719 1.24991 8.74942 2.93213 8.74942 4.99991C8.74942 7.06768 7.06719 8.74991 4.99942 8.74991Z" fill="white"/>
<path d="M5.41523 4.82744V2.5001C5.41523 2.38961 5.37134 2.28364 5.29321 2.20552C5.21509 2.12739 5.10912 2.0835 4.99863 2.0835C4.88814 2.0835 4.78218 2.12739 4.70405 2.20552C4.62592 2.28364 4.58203 2.38961 4.58203 2.5001V5.0001C4.58199 5.05481 4.59275 5.10899 4.6137 5.15953C4.63465 5.21008 4.66537 5.25599 4.7041 5.29463L5.9541 6.54463C5.99275 6.58352 6.03869 6.61441 6.08929 6.63551C6.1399 6.65661 6.19417 6.66752 6.249 6.6676C6.30382 6.66769 6.35813 6.65695 6.4088 6.636C6.45947 6.61506 6.5055 6.58431 6.54427 6.54554C6.58303 6.50676 6.61376 6.46071 6.63469 6.41004C6.65562 6.35936 6.66634 6.30505 6.66624 6.25022C6.66613 6.1954 6.65521 6.14113 6.63409 6.09053C6.61297 6.03993 6.58207 5.994 6.54316 5.95537L5.41523 4.82744Z" fill="white"/>
</svg>
