<svg width="16" height="11" viewBox="0 0 16 11" fill="none" xmlns="http://www.w3.org/2000/svg">
<path d="M14.8017 0.42041H1.19828C0.536469 0.42041 0 0.95754 0 1.62017V9.71636C0 10.379 0.536469 10.9161 1.19828 10.9161H14.8017C15.4635 10.9161 16 10.379 16 9.71636V1.62017C16 0.95754 15.4635 0.42041 14.8017 0.42041Z" fill="#41479B"/>
<path d="M15.9834 1.42186C15.889 0.853694 15.396 0.42041 14.8017 0.42041H14.4899L9.37931 3.77288V0.420441H6.62069V3.77291L1.51006 0.420441H1.19828C0.604 0.420441 0.111031 0.853694 0.0165938 1.42189L4.38466 4.2873H0V7.04932H4.38466L0.0165938 9.91467C0.111031 10.4828 0.604 10.9161 1.19828 10.9161H1.51006L6.62069 7.56365V10.9161H9.37931V7.56365L14.4899 10.9161H14.8017C15.396 10.9161 15.889 10.4829 15.9834 9.91467L11.6153 7.04926H16V4.28723H11.6153L15.9834 1.42186Z" fill="#F5F5F5"/>
<path d="M8.82759 0.42041H7.17241V4.83963H0V6.49686H7.17241V10.9161H8.82759V6.49686H16V4.83963H8.82759V0.42041Z" fill="#FF4B55"/>
<path d="M0.775594 10.8388L6.60631 7.04932H5.59294L0.289062 10.4964C0.418844 10.6481 0.585625 10.7669 0.775594 10.8388Z" fill="#FF4B55"/>
<path d="M10.8239 7.04932H9.81055L15.4579 10.7196C15.616 10.6157 15.7478 10.4753 15.8419 10.3105L10.8239 7.04932Z" fill="#FF4B55"/>
<path d="M0.126953 1.08378L5.05602 4.28732H6.06939L0.484016 0.657227C0.334047 0.768989 0.211328 0.915107 0.126953 1.08378Z" fill="#FF4B55"/>
<path d="M10.3923 4.28692L15.7059 0.833446C15.5747 0.682291 15.4066 0.564145 15.2153 0.493652L9.37891 4.28692H10.3923Z" fill="#FF4B55"/>
</svg>
