<svg width="22" height="16" viewBox="0 0 22 16" fill="none" xmlns="http://www.w3.org/2000/svg">
<path d="M20.3524 0.793335H1.64764C0.737645 0.793335 0 1.53098 0 2.44097V13.5595C0 14.4695 0.737645 15.2072 1.64764 15.2072H20.3524C21.2623 15.2072 22 14.4695 22 13.5595V2.44097C22 1.53098 21.2624 0.793335 20.3524 0.793335Z" fill="#41479B"/>
<path d="M21.9772 2.16839C21.8473 1.38812 21.1695 0.793091 20.3524 0.793091H19.9237L12.8966 5.39706V0.793134H9.10345V5.39711L2.07634 0.793134H1.64764C0.8305 0.793134 0.152668 1.38812 0.0228164 2.16843L6.0289 6.10351H0V9.89662H6.0289L0.0228164 13.8316C0.152668 14.6119 0.8305 15.2069 1.64764 15.2069H2.07634L9.10345 10.6029V15.2069H12.8966V10.6029L19.9237 15.2069H20.3524C21.1695 15.2069 21.8473 14.6119 21.9772 13.8316L15.9711 9.89654H22V6.10343H15.9711L21.9772 2.16839Z" fill="#F5F5F5"/>
<path d="M12.1379 0.793335H9.86206V6.86228H0V9.13817H9.86206V15.2071H12.1379V9.13817H22V6.86228H12.1379V0.793335Z" fill="#FF4B55"/>
<path d="M1.06546 15.1007L9.0827 9.89661H7.68931L0.396484 14.6306C0.574934 14.8388 0.804258 15.002 1.06546 15.1007Z" fill="#FF4B55"/>
<path d="M14.8836 9.89661H13.4902L21.2554 14.9371C21.4727 14.7944 21.654 14.6016 21.7833 14.3752L14.8836 9.89661Z" fill="#FF4B55"/>
<path d="M0.173828 1.70432L6.95129 6.10376H8.34468L0.664789 1.11853C0.458582 1.27201 0.289844 1.47268 0.173828 1.70432Z" fill="#FF4B55"/>
<path d="M14.2899 6.10324L21.5961 1.36056C21.4156 1.15298 21.1845 0.99073 20.9215 0.893921L12.8965 6.10324H14.2899Z" fill="#FF4B55"/>
</svg>
