<svg width="10" height="10" viewBox="0 0 10 10" fill="none" xmlns="http://www.w3.org/2000/svg">
<path d="M10 4.77417C10 5.26883 9.11378 5.61732 8.96886 6.06367C8.81855 6.5263 9.32549 7.32819 9.04517 7.71312C8.76223 8.10206 7.8411 7.86632 7.45216 8.14941C7.06708 8.42958 7.00828 9.37985 6.5458 9.52959C6.09944 9.67451 5.49521 8.94495 4.99999 8.94495C4.50476 8.94495 3.90108 9.67451 3.45417 9.52959C2.99154 9.37927 2.93274 8.42903 2.54767 8.14941C2.15887 7.86647 1.23774 8.10221 0.954655 7.71327C0.674481 7.32819 1.18128 6.5263 1.03111 6.06382C0.88622 5.61746 0 5.26897 0 4.77432C0 4.27967 0.88622 3.93117 1.03114 3.48482C1.18131 3.0223 0.67451 2.22042 0.954683 1.83537C1.23777 1.44643 2.1589 1.68217 2.54784 1.39923C2.93277 1.11905 2.99157 0.168641 3.4542 0.019048C3.90056 -0.125871 4.50478 0.603687 5.00001 0.603687C5.49521 0.603687 6.09892 -0.125871 6.54583 0.019048C7.00834 0.169218 7.06725 1.1196 7.45219 1.39923C7.84113 1.68231 8.76226 1.44657 9.04535 1.83537C9.32552 2.22045 8.81857 3.02233 8.96889 3.48482C9.11378 3.931 10 4.27949 10 4.77417Z" fill="#0AAB37"/>
<path d="M4.56321 6.47411C4.41679 6.47431 4.27632 6.41615 4.17288 6.31248L2.94204 5.08164C2.7264 4.86606 2.72635 4.5165 2.94189 4.30087C3.15747 4.08524 3.50703 4.08518 3.72266 4.30072L4.56318 5.14113L6.27806 3.42639C6.49367 3.21076 6.84326 3.21073 7.05889 3.42633C7.27452 3.64194 7.27455 3.99153 7.05895 4.20716L4.95362 6.31248C4.85019 6.41617 4.70966 6.47434 4.56321 6.47411Z" fill="white"/>
</svg>
