<svg width="24" height="23" viewBox="0 0 24 23" fill="none" xmlns="http://www.w3.org/2000/svg">
<path d="M8.01621 20.4827C4.53017 17.9133 0.168945 12.5632 0.168945 5.66756C0.168945 2.28917 2.45322 0.422607 5.79065 0.422607C8.68957 0.422607 10.7977 1.47179 11.9986 3.93613C10.8173 6.00419 10.2004 8.35873 10.2124 10.7539C10.2124 13.1666 10.8271 14.6616 12.2031 14.6616C13.4333 14.6616 14.1948 13.1666 14.1948 10.7539C14.1948 8.16193 13.3196 5.90311 11.9986 3.93895C13.1113 1.47178 15.3075 0.422607 17.4478 0.422607C21.6347 0.422607 23.8309 2.28448 23.8309 5.66756C23.8309 12.5632 19.0413 17.9987 16.2167 20.4827C15.08 21.4381 13.6875 22.9227 12.3114 22.9574C11.238 22.9893 8.82442 21.1715 8.01621 20.4827Z" fill="white"/>
</svg>
