<svg width="10" height="15" viewBox="0 0 10 15" fill="none" xmlns="http://www.w3.org/2000/svg">
<path d="M2.40996 7.49982L9.03596 1.72434C9.10893 1.66064 9.14992 1.57432 9.14992 1.48432C9.14992 1.39432 9.10893 1.30799 9.03596 1.24429L8.30495 0.603923C8.23184 0.540346 8.13276 0.504639 8.02946 0.504639C7.92616 0.504639 7.82708 0.540346 7.75396 0.603923L0.11396 7.26023C0.0409871 7.32394 0 7.41026 0 7.50026C0 7.59026 0.0409871 7.67659 0.11396 7.74029L7.75296 14.3957C7.7891 14.4273 7.83203 14.4524 7.87931 14.4695C7.92659 14.4866 7.97727 14.4954 8.02846 14.4954C8.07965 14.4954 8.13033 14.4866 8.1776 14.4695C8.22488 14.4524 8.26782 14.4273 8.30396 14.3957L9.03896 13.7554C9.11193 13.6917 9.15292 13.6053 9.15292 13.5153C9.15292 13.4253 9.11193 13.339 9.03896 13.2753L2.40996 7.49982Z" fill="white"/>
</svg>
