<svg width="18" height="18" viewBox="0 0 18 18" fill="none" xmlns="http://www.w3.org/2000/svg">
<path fill-rule="evenodd" clip-rule="evenodd" d="M5.39995 14.4001C4.40996 14.4001 3.60896 15.2101 3.60896 16.2001C3.60896 17.1901 4.40996 18.0001 5.39995 18.0001C6.38994 18.0001 7.19993 17.1901 7.19993 16.2001C7.19993 15.2101 6.38994 14.4001 5.39995 14.4001ZM0 0.000244141V1.80023H1.79998L5.03996 8.63117L3.82497 10.8361C3.68097 11.0881 3.59997 11.3851 3.59997 11.7001C3.59997 12.6901 4.40996 13.5001 5.39995 13.5001H16.1999V11.7001H5.77795C5.65195 11.7001 5.55295 11.6011 5.55295 11.4751L5.57995 11.3671L6.38994 9.90016H13.0949C13.7699 9.90016 14.3639 9.53116 14.6699 8.97316L17.8918 3.13222C18.0429 2.85281 18.036 2.51458 17.8737 2.24157C17.7113 1.96857 17.4175 1.80096 17.0998 1.80023H3.78897L2.94297 0.000244141H0ZM14.3999 14.4001C13.4099 14.4001 12.6089 15.2101 12.6089 16.2001C12.6089 17.1901 13.4099 18.0001 14.3999 18.0001C15.3899 18.0001 16.1999 17.1901 16.1999 16.2001C16.1999 15.2101 15.3899 14.4001 14.3999 14.4001Z" fill="white"/>
</svg>
