<svg width="116" height="26" viewBox="0 0 116 26" fill="none" xmlns="http://www.w3.org/2000/svg">
<path d="M6.75186 20.5505C3.75287 18.0816 0 12.9411 0 6.3165C0 3.06543 1.96478 1.27734 4.83656 1.27734C7.3314 1.27734 9.1454 2.28565 10.1796 4.65327C9.15184 6.68242 8.62437 8.928 8.64125 11.2025C8.64125 13.5207 9.17132 14.9578 10.354 14.9578C11.4141 14.9578 12.069 13.5207 12.069 11.2025C12.0566 8.88745 11.4043 6.62087 10.1843 4.65327C11.1361 2.28565 13.0255 1.27734 14.8654 1.27734C18.4675 1.27734 20.3569 3.06543 20.3569 6.3165C20.3569 12.9411 16.2365 18.1641 13.8076 20.5505C12.8299 21.4693 11.6308 22.9064 10.4458 22.9299C9.52469 22.9535 7.44919 21.2196 6.75186 20.5505Z" fill="white"/>
<path d="M21.6191 6.16326C22.9402 5.45256 24.4138 5.07263 25.9139 5.05601C29.0118 5.05601 30.3476 6.97132 30.3476 9.64049C30.3476 9.96796 30.2957 13.4452 30.3735 14.8823C30.4229 15.8646 30.7763 16.7669 32.1875 16.6703C31.0779 20.0981 28.4817 20.9297 26.6936 20.9297C24.1234 20.9297 22.1327 19.0898 22.234 16.0908C22.3612 12.4628 22.3612 14.2273 22.234 10.1706C22.1728 8.38247 22.1963 7.37417 21.6191 6.16326ZM37.4575 20.9297C35.1912 20.9297 32.9225 19.8955 32.1686 16.6703C32.7976 14.7857 32.8754 13.219 32.8236 9.91848C32.7976 8.22934 32.7717 7.32705 32.3948 6.16326C33.5926 5.432 34.9704 5.04861 36.3738 5.05601C39.5 5.05601 41.2127 6.8441 41.1114 9.38842C40.9347 13.6714 40.9607 13.0683 40.9347 16.2675C40.9347 17.681 40.9347 18.5362 41.4907 19.5421C40.4895 20.5127 38.9276 20.9297 37.4575 20.9297Z" fill="white"/>
<path d="M42.6719 6.16326C43.9896 5.45475 45.4588 5.0749 46.9548 5.05602C50.0527 5.05602 51.3885 6.97132 51.3885 9.6405C51.3885 9.96796 51.339 13.4452 51.4144 14.8823C51.4639 15.8646 51.8173 16.7669 53.2284 16.6703C52.1188 20.0981 49.525 20.9297 47.7346 20.9297C45.1644 20.9297 43.176 19.0898 43.275 16.0908C43.4022 12.4628 43.4022 14.2273 43.275 10.1706C43.2255 8.38247 43.2514 7.37417 42.6719 6.16326ZM58.5197 20.9297C56.251 20.9297 53.9847 19.8955 53.2284 16.6703C53.8574 14.7857 53.9352 13.219 53.8834 9.91849C53.8574 8.22934 53.8315 7.32705 53.4546 6.16326C54.6533 5.43193 56.0318 5.04854 57.436 5.05602C60.5598 5.05602 62.2725 6.8441 62.1712 9.38842C61.9945 13.6714 62.0205 13.0683 61.9945 16.2675C61.9945 17.681 61.9945 18.5362 62.5505 19.5421C61.5422 20.5127 59.9803 20.9297 58.5197 20.9297Z" fill="white"/>
<path d="M69.3652 21.0546C71.5067 21.0546 73.0168 19.8461 73.0168 17.9308C72.9847 17.3554 72.8398 16.7918 72.5904 16.2723C73.9497 13.5513 74.7106 11.259 73.9756 9.16703C72.1357 8.7901 71.2028 10.1494 71.2028 11.9634C71.2028 13.0989 71.6056 14.1308 72.5904 16.2723C70.9012 19.4974 68.5336 19.9003 67.2473 19.9003C64.3261 19.9003 63.5439 17.8083 63.167 14.5596C63.167 7.60511 68.6585 5.06079 74.9839 5.06079C77.4764 5.06079 81.029 5.48956 81.5591 5.91832C81.3235 7.803 80.9536 9.04217 80.9042 11.5606C80.8288 13.7774 81.0809 16.3736 81.0809 18.263C81.0809 21.5894 78.7627 25.9713 70.9012 25.9713C66.7432 25.9713 63.4426 24.9135 63.4426 22.3433C63.4426 21.5894 63.5698 20.1524 65.2331 19.448C66.5688 20.5505 68.2062 21.0546 69.3652 21.0546Z" fill="white"/>
<path d="M92.8725 19.8201C91.502 20.5324 89.9832 20.9125 88.4388 20.9297C85.3408 20.9297 83.9038 19.0144 83.9297 16.3429C83.9532 11.782 84.0286 9.11278 83.9791 5.63554C83.9297 3.75087 83.8778 2.78732 83.3242 1.30078C84.7377 0.520997 86.6742 0.0168457 88.01 0.0168457C90.2787 0.0168457 92.1681 1.15001 92.1681 3.1407C92.1681 5.88762 92.0927 12.689 92.2175 15.8152C92.3188 17.4501 92.4201 18.5597 92.8725 19.8201Z" fill="white"/>
<path d="M111.365 16.2415C111.365 19.9708 106.68 20.9296 103.33 20.9296C97.44 20.9296 94.5117 17.4265 94.5117 13.2943C94.5117 8.5826 98.592 5.04883 104.437 5.04883C108.343 5.04883 111.516 6.63667 111.516 10.3895C111.496 11.5543 111.108 12.6829 110.409 13.6147C108.343 14.0694 104.991 14.1942 102.901 12.9598C103.455 14.7243 104.84 15.808 106.67 15.808C108.084 15.808 109.262 15.0518 110.4 13.6147C111.064 14.1518 111.365 15.2355 111.365 16.2415ZM102.649 11.1787C102.649 11.7859 102.734 12.3901 102.901 12.9739C103.482 12.641 103.965 12.1608 104.301 11.5818C104.637 11.0027 104.815 10.3453 104.816 9.67571C104.816 9.02079 104.64 8.51664 104.084 8.51664C103.052 8.49779 102.649 10.0432 102.649 11.1787Z" fill="white"/>
<path d="M114.44 0.210066C114.645 0.212083 114.847 0.254766 115.036 0.335645C115.224 0.416523 115.395 0.533988 115.537 0.681236C115.667 0.835296 115.763 1.01445 115.82 1.20744C115.876 1.40042 115.893 1.60306 115.867 1.80262C115.83 2.15041 115.689 2.4789 115.462 2.74496C115.337 2.90622 115.195 3.05317 115.038 3.18315L112.918 4.9571C112.868 4.99457 112.807 5.01282 112.745 5.00849C112.683 5.00416 112.625 4.97753 112.581 4.93354L110.736 2.88395C110.606 2.73984 110.492 2.58183 110.397 2.41278C110.198 2.10697 110.097 1.7479 110.107 1.38328C110.11 1.18159 110.155 0.982736 110.239 0.799119C110.322 0.615502 110.443 0.451067 110.592 0.316079C110.756 0.190978 110.943 0.100031 111.143 0.0486363C111.342 -0.00275893 111.55 -0.0135558 111.754 0.0168864C112.033 0.0453492 112.298 0.151455 112.52 0.323147C112.713 0.460374 112.891 0.618373 113.05 0.794316C113.23 0.641039 113.428 0.509031 113.639 0.40089C113.883 0.264313 114.16 0.198249 114.44 0.210066Z" fill="#EB008B"/>
</svg>
