<svg width="19" height="20" viewBox="0 0 19 20" fill="none" xmlns="http://www.w3.org/2000/svg">
<path d="M8.3349 20C9.84369 20 11.1062 18.9249 11.3961 17.5H5.27246C5.5636 18.9249 6.82611 20 8.3349 20Z" fill="white"/>
<path d="M14.1782 10C14.1742 10 14.1718 10 14.1681 10C10.9519 10 8.33438 7.38373 8.33438 4.16626C8.33438 3.28247 8.53824 2.44629 8.89194 1.69373C8.70822 1.67633 8.52298 1.66504 8.33438 1.66504C5.11325 1.66504 2.50064 4.27612 2.50064 7.49878V9.82239C2.50064 11.4713 1.77798 13.0276 0.510587 14.1C0.0882239 14.4614 -0.0994592 15.0363 0.051908 15.5963C0.230741 16.25 0.874357 16.6663 1.55185 16.6663H15.1145C15.8243 16.6663 16.4945 16.2064 16.6382 15.5112C16.7493 14.9738 16.5583 14.4351 16.1405 14.0851C14.928 13.0676 14.2282 11.575 14.1782 10Z" fill="white"/>
<path d="M18.3345 4.16626C18.3345 6.46729 16.4692 8.33252 14.1682 8.33252C11.8672 8.33252 10.002 6.46729 10.002 4.16626C10.002 1.86523 11.8672 0 14.1682 0C16.4692 0 18.3345 1.86523 18.3345 4.16626Z" fill="#C10077"/>
</svg>
