<svg width="20" height="18" viewBox="0 0 20 18" fill="none" xmlns="http://www.w3.org/2000/svg">
<path d="M9.99998 3.17768L9.59903 2.63947C9.25054 2.17167 8.85817 1.77486 8.42923 1.45287L8.4292 1.45285C7.5844 0.818596 6.63228 0.5 5.58701 0.5C4.17538 0.5 2.88707 1.04707 1.94904 2.03465L9.99998 3.17768ZM9.99998 3.17768L10.401 2.63949M9.99998 3.17768L10.401 2.63949M10.401 2.63949C10.7496 2.17151 11.1419 1.77483 11.5707 1.45282C12.4156 0.818575 13.3678 0.5 14.413 0.5C15.8246 0.5 17.1128 1.04707 18.0509 2.0347C18.9788 3.01183 19.5 4.35719 19.5 5.8345C19.5 7.32834 18.9336 8.72041 17.6363 10.2399L17.6362 10.24C16.4599 11.6179 14.7588 13.0272 12.7326 14.7033L12.7326 14.7033L12.715 14.7178C12.0312 15.2836 11.2549 15.9259 10.4493 16.6098L10.449 16.61C10.3273 16.7136 10.1679 16.7727 10 16.7727C9.83212 16.7727 9.67286 16.7136 9.55072 16.6098L9.55038 16.6095C8.73882 15.9207 7.95752 15.2743 7.27034 14.7058L7.26789 14.7037L7.26786 14.7037M10.401 2.63949L7.26786 14.7037M7.26786 14.7037C5.24139 13.0273 3.54022 11.6179 2.3639 10.2401C1.0665 8.72037 0.5 7.32831 0.5 5.83465C0.5 4.3572 1.02117 3.01183 1.94899 2.0347L7.26786 14.7037Z" stroke="white"/>
</svg>
