<svg width="239" height="54" viewBox="0 0 239 54" fill="none" xmlns="http://www.w3.org/2000/svg">
<path d="M13.8744 42.2292C7.71178 37.1558 0 26.5926 0 12.9796C0 6.29898 4.03743 2.62463 9.93865 2.62463C15.0653 2.62463 18.7929 4.6966 20.9181 9.56184C18.8061 13.7315 17.7222 18.346 17.7569 23.0199C17.7569 27.7835 18.8462 30.7365 21.2764 30.7365C23.4548 30.7365 24.8006 27.7835 24.8006 23.0199C24.775 18.2627 23.4347 13.6051 20.9278 9.56184C22.8836 4.6966 26.7661 2.62463 30.547 2.62463C37.9489 2.62463 41.8314 6.29898 41.8314 12.9796C41.8314 26.5926 33.3644 37.3252 28.3733 42.2292C26.3643 44.1172 23.9002 47.0702 21.4652 47.1186C19.5723 47.167 15.3074 43.604 13.8744 42.2292Z" fill="white"/>
<path d="M44.4258 12.665C47.1404 11.2046 50.1686 10.4239 53.251 10.3897C59.617 10.3897 62.3618 14.3255 62.3618 19.8104C62.3618 20.4833 62.2553 27.6287 62.4151 30.5817C62.5167 32.6004 63.2429 34.4545 66.1427 34.2561C63.8626 41.2998 58.5277 43.0087 54.8534 43.0087C49.5718 43.0087 45.4811 39.2278 45.6893 33.0652C45.9507 25.61 45.9507 29.2359 45.6893 20.8996C45.5634 17.2253 45.6118 15.1533 44.4258 12.665ZM76.9721 43.0087C72.315 43.0087 67.6531 40.8834 66.104 34.2561C67.3965 30.3832 67.5563 27.1639 67.4498 20.3816C67.3965 16.9106 67.3433 15.0565 66.5687 12.665C69.0302 11.1624 71.8613 10.3745 74.7452 10.3897C81.1693 10.3897 84.6887 14.0641 84.4805 19.2924C84.1175 28.0934 84.1707 26.8541 84.1175 33.4282C84.1175 36.3329 84.1175 38.0902 85.2599 40.1573C83.2025 42.1518 79.9929 43.0087 76.9721 43.0087Z" fill="white"/>
<path d="M87.6855 12.665C90.3933 11.2091 93.4125 10.4286 96.4866 10.3897C102.853 10.3897 105.597 14.3255 105.597 19.8104C105.597 20.4833 105.496 27.6287 105.651 30.5817C105.752 32.6004 106.478 34.4546 109.378 34.2561C107.098 41.2998 101.768 43.0087 98.0889 43.0087C92.8074 43.0087 88.7215 39.2278 88.9249 33.0652C89.1863 25.61 89.1863 29.2359 88.9249 20.8996C88.8232 17.2253 88.8764 15.1533 87.6855 12.665ZM120.251 43.0087C115.589 43.0087 110.932 40.8835 109.378 34.2561C110.671 30.3832 110.831 27.1639 110.724 20.3816C110.671 16.9106 110.618 15.0565 109.843 12.665C112.306 11.1622 115.139 10.3744 118.024 10.3897C124.444 10.3897 127.963 14.0641 127.755 19.2924C127.392 28.0934 127.445 26.8541 127.392 33.4283C127.392 36.3329 127.392 38.0902 128.534 40.1573C126.462 42.1518 123.253 43.0087 120.251 43.0087Z" fill="white"/>
<path d="M142.54 43.2652C146.94 43.2652 150.043 40.7818 150.043 36.846C149.977 35.6635 149.679 34.5056 149.167 33.4379C151.96 27.8465 153.524 23.1362 152.013 18.8373C148.233 18.0628 146.316 20.8561 146.316 24.5837C146.316 26.917 147.143 29.0374 149.167 33.4379C145.696 40.0653 140.831 40.8931 138.187 40.8931C132.185 40.8931 130.577 36.5943 129.803 29.9185C129.803 15.6277 141.087 10.3994 154.085 10.3994C159.207 10.3994 166.507 11.2805 167.597 12.1616C167.113 16.0344 166.353 18.5808 166.251 23.7558C166.096 28.3113 166.614 33.6461 166.614 37.5286C166.614 44.3641 161.85 53.3685 145.696 53.3685C137.151 53.3685 130.369 51.1948 130.369 45.9133C130.369 44.3641 130.631 41.4111 134.048 39.9636C136.793 42.2292 140.158 43.2652 142.54 43.2652Z" fill="white"/>
<path d="M190.843 40.7284C188.027 42.1921 184.906 42.9732 181.733 43.0086C175.367 43.0086 172.414 39.0728 172.467 33.5831C172.515 24.2108 172.67 18.7259 172.568 11.5805C172.467 7.70772 172.36 5.72773 171.223 2.67303C174.127 1.07065 178.107 0.034668 180.851 0.034668C185.513 0.034668 189.396 2.36321 189.396 6.45389C189.396 12.0985 189.241 26.0746 189.498 32.4987C189.706 35.8584 189.914 38.1385 190.843 40.7284Z" fill="white"/>
<path d="M228.846 33.3749C228.846 41.0383 219.217 43.0086 212.333 43.0086C200.23 43.0086 194.213 35.8099 194.213 27.3188C194.213 17.6367 202.598 10.3751 214.608 10.3751C222.635 10.3751 229.156 13.638 229.156 21.3498C229.113 23.7433 228.317 26.0624 226.88 27.9771C222.635 28.9115 215.746 29.168 211.452 26.6313C212.589 30.2573 215.436 32.4841 219.198 32.4841C222.102 32.4841 224.523 30.9302 226.861 27.9771C228.226 29.0809 228.846 31.3078 228.846 33.3749ZM210.934 22.9715C210.934 24.2192 211.109 25.4608 211.452 26.6604C212.646 25.9762 213.638 24.9895 214.329 23.7997C215.02 22.6098 215.385 21.2589 215.388 19.8829C215.388 18.5371 215.025 17.5011 213.882 17.5011C211.762 17.4624 210.934 20.6381 210.934 22.9715Z" fill="white"/>
<path d="M235.163 0.431665C235.584 0.435809 236.001 0.52352 236.388 0.689717C236.775 0.855914 237.126 1.09729 237.419 1.39987C237.685 1.71645 237.882 2.0846 237.999 2.48116C238.115 2.87773 238.149 3.29414 238.097 3.70421C238.021 4.41889 237.73 5.0939 237.264 5.64062C237.008 5.97199 236.715 6.27398 236.392 6.54106L232.036 10.1864C231.934 10.2633 231.808 10.3009 231.68 10.292C231.553 10.2831 231.433 10.2283 231.343 10.1379L227.553 5.92624C227.286 5.63011 227.052 5.30541 226.856 4.95804C226.447 4.32961 226.239 3.59176 226.26 2.8425C226.267 2.42806 226.359 2.01943 226.53 1.64211C226.702 1.2648 226.949 0.926899 227.257 0.649512C227.594 0.392441 227.978 0.205555 228.388 0.0999428C228.798 -0.00566934 229.225 -0.0278558 229.644 0.0346999C230.217 0.0931883 230.762 0.311225 231.217 0.664035C231.615 0.946024 231.98 1.2707 232.307 1.63224C232.678 1.31727 233.084 1.04601 233.517 0.823789C234.019 0.543137 234.588 0.407381 235.163 0.431665Z" fill="#EB008B"/>
</svg>
