<svg width="19" height="13" viewBox="0 0 19 13" fill="none" xmlns="http://www.w3.org/2000/svg">
<path d="M17.9104 2.03406C17.7091 1.28565 17.1191 0.695685 16.3708 0.494162C15.0037 0.120117 9.53539 0.120117 9.53539 0.120117C9.53539 0.120117 4.06727 0.120117 2.70022 0.47998C1.96631 0.681291 1.36185 1.28575 1.16054 2.03406C0.800781 3.401 0.800781 6.23587 0.800781 6.23587C0.800781 6.23587 0.800781 9.08503 1.16054 10.4377C1.36206 11.186 1.95192 11.776 2.70033 11.9775C4.08167 12.3516 9.5356 12.3516 9.5356 12.3516C9.5356 12.3516 15.0037 12.3516 16.3708 11.9918C17.1192 11.7904 17.7091 11.2004 17.9107 10.4521C18.2703 9.08503 18.2703 6.25027 18.2703 6.25027C18.2703 6.25027 18.2847 3.401 17.9104 2.03406ZM7.79439 8.85483V3.61692L12.3416 6.23587L7.79439 8.85483Z" fill="#36A7E9"/>
</svg>
