<svg width="8" height="7" viewBox="0 0 8 7" fill="none" xmlns="http://www.w3.org/2000/svg">
<path d="M7.34546 1.7543C7.25903 1.433 7.00571 1.17972 6.68445 1.0932C6.09755 0.932617 3.74991 0.932617 3.74991 0.932617C3.74991 0.932617 1.40236 0.932617 0.81546 1.08711C0.500381 1.17354 0.240875 1.43304 0.154449 1.7543C0 2.34116 0 3.55821 0 3.55821C0 3.55821 0 4.7814 0.154449 5.36212C0.240967 5.68338 0.494202 5.93666 0.815506 6.02318C1.40854 6.18381 3.75 6.18381 3.75 6.18381C3.75 6.18381 6.09755 6.18381 6.68445 6.02931C7.00575 5.94284 7.25903 5.68956 7.34555 5.3683C7.49995 4.7814 7.49995 3.56439 7.49995 3.56439C7.49995 3.56439 7.50613 2.34116 7.34546 1.7543ZM3.00247 4.68257V2.43385L4.95465 3.55821L3.00247 4.68257Z" fill="black"/>
</svg>
